<mxfile host="app.diagrams.net" modified="2022-09-20T15:35:47.254Z" agent="5.0 (Windows NT 10.0; Win64; x64) AppleWebKit/537.36 (KHTML, like Gecko) Chrome/105.0.0.0 Safari/537.36" etag="XHk4JF-dGh_vp3cHapzg" version="20.3.1" type="github">
  <diagram id="piDafpqhtRUU5qUU-vj8" name="Page-1">
    <mxGraphModel dx="2892" dy="1600" grid="1" gridSize="10" guides="1" tooltips="1" connect="1" arrows="1" fold="1" page="1" pageScale="1" pageWidth="827" pageHeight="1169" math="0" shadow="0">
      <root>
        <mxCell id="0" />
        <mxCell id="1" parent="0" />
        <mxCell id="DuZaDqDCN82xKvI541lF-2" value="" style="strokeWidth=1;shadow=0;dashed=0;align=center;html=1;shape=mxgraph.mockup.containers.browserWindow;rSize=0;strokeColor=#666666;strokeColor2=#008cff;strokeColor3=#c4c4c4;mainText=,;recursiveResize=0;" vertex="1" parent="1">
          <mxGeometry x="40" y="40" width="720" height="720" as="geometry" />
        </mxCell>
        <mxCell id="DuZaDqDCN82xKvI541lF-3" value="Анкета" style="strokeWidth=1;shadow=0;dashed=0;align=center;html=1;shape=mxgraph.mockup.containers.anchor;fontSize=17;fontColor=#666666;align=left;" vertex="1" parent="DuZaDqDCN82xKvI541lF-2">
          <mxGeometry x="60" y="12" width="110" height="26" as="geometry" />
        </mxCell>
        <mxCell id="DuZaDqDCN82xKvI541lF-4" value="https://www.safetyplace.ua" style="strokeWidth=1;shadow=0;dashed=0;align=center;html=1;shape=mxgraph.mockup.containers.anchor;rSize=0;fontSize=17;fontColor=#666666;align=left;" vertex="1" parent="DuZaDqDCN82xKvI541lF-2">
          <mxGeometry x="130" y="60" width="250" height="26" as="geometry" />
        </mxCell>
        <mxCell id="DuZaDqDCN82xKvI541lF-5" value="" style="verticalLabelPosition=bottom;shadow=0;dashed=0;align=center;html=1;verticalAlign=top;strokeWidth=1;shape=mxgraph.mockup.containers.userFemale;strokeColor=#666666;strokeColor2=#008cff;" vertex="1" parent="DuZaDqDCN82xKvI541lF-2">
          <mxGeometry x="60" y="140" width="170" height="170" as="geometry" />
        </mxCell>
        <mxCell id="DuZaDqDCN82xKvI541lF-25" value="" style="strokeWidth=1;shadow=0;dashed=0;align=center;html=1;shape=mxgraph.mockup.text.textBox;fontColor=#666666;align=left;fontSize=17;spacingLeft=4;spacingTop=-3;strokeColor=#666666;mainText=" vertex="1" parent="DuZaDqDCN82xKvI541lF-2">
          <mxGeometry x="410" y="315" width="250" height="125" as="geometry" />
        </mxCell>
        <mxCell id="DuZaDqDCN82xKvI541lF-26" value="" style="strokeWidth=1;shadow=0;dashed=0;align=center;html=1;shape=mxgraph.mockup.text.textBox;fontColor=#666666;align=left;fontSize=17;spacingLeft=4;spacingTop=-3;strokeColor=#666666;mainText=" vertex="1" parent="DuZaDqDCN82xKvI541lF-2">
          <mxGeometry x="410" y="470" width="250" height="90" as="geometry" />
        </mxCell>
        <mxCell id="DuZaDqDCN82xKvI541lF-27" value="" style="strokeWidth=1;shadow=0;dashed=0;align=center;html=1;shape=mxgraph.mockup.text.textBox;fontColor=#666666;align=left;fontSize=17;spacingLeft=4;spacingTop=-3;strokeColor=#666666;mainText=" vertex="1" parent="DuZaDqDCN82xKvI541lF-2">
          <mxGeometry x="330" y="155" width="330" height="30" as="geometry" />
        </mxCell>
        <mxCell id="DuZaDqDCN82xKvI541lF-29" value="дата рождения" style="strokeWidth=1;shadow=0;dashed=0;align=center;html=1;shape=mxgraph.mockup.text.textBox;fontColor=#666666;align=left;fontSize=17;spacingLeft=4;spacingTop=-3;strokeColor=#666666;mainText=" vertex="1" parent="DuZaDqDCN82xKvI541lF-2">
          <mxGeometry x="430" y="260" width="150" height="30" as="geometry" />
        </mxCell>
        <mxCell id="DuZaDqDCN82xKvI541lF-30" value="&lt;font style=&quot;font-size: 18px;&quot;&gt;Стать&lt;/font&gt;" style="text;html=1;resizable=0;autosize=1;align=center;verticalAlign=middle;points=[];fillColor=none;strokeColor=none;rounded=0;" vertex="1" parent="DuZaDqDCN82xKvI541lF-2">
          <mxGeometry x="250" y="200" width="70" height="40" as="geometry" />
        </mxCell>
        <mxCell id="DuZaDqDCN82xKvI541lF-24" value="Жіноча" style="strokeWidth=1;shadow=0;dashed=0;align=center;html=1;shape=mxgraph.mockup.forms.comboBox;strokeColor=#999999;fillColor=#ddeeff;align=left;fillColor2=#aaddff;mainText=;fontColor=#666666;fontSize=17;spacingLeft=3;" vertex="1" parent="DuZaDqDCN82xKvI541lF-2">
          <mxGeometry x="330" y="205" width="150" height="30" as="geometry" />
        </mxCell>
        <mxCell id="DuZaDqDCN82xKvI541lF-31" value="&lt;font style=&quot;font-size: 18px;&quot;&gt;П.І.Б&lt;/font&gt;" style="text;html=1;resizable=0;autosize=1;align=center;verticalAlign=middle;points=[];fillColor=none;strokeColor=none;rounded=0;" vertex="1" parent="DuZaDqDCN82xKvI541lF-2">
          <mxGeometry x="250" y="150" width="60" height="40" as="geometry" />
        </mxCell>
        <mxCell id="DuZaDqDCN82xKvI541lF-32" value="&lt;font style=&quot;font-size: 18px;&quot;&gt;Дата народження&lt;/font&gt;" style="text;html=1;resizable=0;autosize=1;align=center;verticalAlign=middle;points=[];fillColor=none;strokeColor=none;rounded=0;" vertex="1" parent="DuZaDqDCN82xKvI541lF-2">
          <mxGeometry x="245" y="255" width="170" height="40" as="geometry" />
        </mxCell>
        <mxCell id="DuZaDqDCN82xKvI541lF-33" value="&lt;font style=&quot;font-size: 18px;&quot;&gt;Психічний стан&lt;/font&gt;" style="text;html=1;resizable=0;autosize=1;align=center;verticalAlign=middle;points=[];fillColor=none;strokeColor=none;rounded=0;" vertex="1" parent="DuZaDqDCN82xKvI541lF-2">
          <mxGeometry x="245" y="310" width="150" height="40" as="geometry" />
        </mxCell>
        <mxCell id="DuZaDqDCN82xKvI541lF-34" value="&lt;font style=&quot;font-size: 18px;&quot;&gt;Якість сну&lt;/font&gt;" style="text;html=1;resizable=0;autosize=1;align=center;verticalAlign=middle;points=[];fillColor=none;strokeColor=none;rounded=0;" vertex="1" parent="DuZaDqDCN82xKvI541lF-2">
          <mxGeometry x="245" y="465" width="110" height="40" as="geometry" />
        </mxCell>
        <mxCell id="DuZaDqDCN82xKvI541lF-36" value="Надіслати" style="strokeWidth=1;shadow=0;dashed=0;align=center;html=1;shape=mxgraph.mockup.buttons.button;strokeColor=#666666;fontColor=#ffffff;mainText=;buttonStyle=round;fontSize=17;fontStyle=1;fillColor=#008cff;whiteSpace=wrap;" vertex="1" parent="DuZaDqDCN82xKvI541lF-2">
          <mxGeometry x="510" y="620" width="150" height="50" as="geometry" />
        </mxCell>
        <mxCell id="DuZaDqDCN82xKvI541lF-46" value="" style="strokeWidth=1;shadow=0;dashed=0;align=center;html=1;shape=mxgraph.mockup.containers.browserWindow;rSize=0;strokeColor=#666666;strokeColor2=#008cff;strokeColor3=#c4c4c4;mainText=,;recursiveResize=0;fontSize=18;" vertex="1" parent="1">
          <mxGeometry x="40" y="860" width="830" height="720" as="geometry" />
        </mxCell>
        <mxCell id="DuZaDqDCN82xKvI541lF-47" value="Пацієнти" style="strokeWidth=1;shadow=0;dashed=0;align=center;html=1;shape=mxgraph.mockup.containers.anchor;fontSize=17;fontColor=#666666;align=left;" vertex="1" parent="DuZaDqDCN82xKvI541lF-46">
          <mxGeometry x="60" y="12" width="110" height="26" as="geometry" />
        </mxCell>
        <mxCell id="DuZaDqDCN82xKvI541lF-48" value="https://www.safetyplace.ua" style="strokeWidth=1;shadow=0;dashed=0;align=center;html=1;shape=mxgraph.mockup.containers.anchor;rSize=0;fontSize=17;fontColor=#666666;align=left;" vertex="1" parent="DuZaDqDCN82xKvI541lF-46">
          <mxGeometry x="130" y="60" width="250" height="26" as="geometry" />
        </mxCell>
        <mxCell id="DuZaDqDCN82xKvI541lF-49" value="" style="strokeWidth=1;shadow=0;dashed=0;align=center;html=1;shape=mxgraph.mockup.containers.marginRect2;rectMarginLeft=67;strokeColor=#666666;gradientColor=none;fontSize=18;" vertex="1" parent="DuZaDqDCN82xKvI541lF-46">
          <mxGeometry x="10" y="130" width="810" height="530" as="geometry" />
        </mxCell>
        <mxCell id="DuZaDqDCN82xKvI541lF-50" value="К.Е.К." style="strokeColor=inherit;fillColor=inherit;gradientColor=inherit;strokeWidth=1;shadow=0;dashed=0;align=center;html=1;shape=mxgraph.mockup.containers.rrect;rSize=0;fontSize=17;fontColor=#666666;" vertex="1" parent="DuZaDqDCN82xKvI541lF-49">
          <mxGeometry width="60" height="25" relative="1" as="geometry">
            <mxPoint y="10" as="offset" />
          </mxGeometry>
        </mxCell>
        <mxCell id="DuZaDqDCN82xKvI541lF-51" value="Б.Т.С." style="strokeWidth=1;shadow=0;dashed=0;align=center;html=1;shape=mxgraph.mockup.containers.rrect;rSize=0;fontSize=17;fontColor=#ffffff;strokeColor=#008cff;fillColor=#008cff;" vertex="1" parent="DuZaDqDCN82xKvI541lF-49">
          <mxGeometry width="60" height="25" relative="1" as="geometry">
            <mxPoint y="40" as="offset" />
          </mxGeometry>
        </mxCell>
        <mxCell id="DuZaDqDCN82xKvI541lF-52" value="Б.Т.В." style="strokeColor=inherit;fillColor=inherit;gradientColor=inherit;strokeWidth=1;shadow=0;dashed=0;align=center;html=1;shape=mxgraph.mockup.containers.rrect;rSize=0;fontSize=17;fontColor=#666666;" vertex="1" parent="DuZaDqDCN82xKvI541lF-49">
          <mxGeometry width="60" height="25" relative="1" as="geometry">
            <mxPoint y="70" as="offset" />
          </mxGeometry>
        </mxCell>
        <mxCell id="DuZaDqDCN82xKvI541lF-53" value="" style="strokeWidth=1;shadow=0;dashed=0;align=center;html=1;shape=mxgraph.mockup.containers.leftButton;rSize=5;strokeColor=#008cff;fillColor=#008cff;resizeHeight=1;movable=0;deletable=0;fontSize=18;" vertex="1" parent="DuZaDqDCN82xKvI541lF-49">
          <mxGeometry width="7" height="490.2499999999999" relative="1" as="geometry">
            <mxPoint x="60" as="offset" />
          </mxGeometry>
        </mxCell>
        <mxCell id="DuZaDqDCN82xKvI541lF-60" value="" style="verticalLabelPosition=bottom;shadow=0;dashed=0;align=center;html=1;verticalAlign=top;strokeWidth=1;shape=mxgraph.mockup.containers.userMale;strokeColor=#666666;strokeColor2=#008cff;fontSize=18;" vertex="1" parent="DuZaDqDCN82xKvI541lF-49">
          <mxGeometry x="98.51" y="26.5" width="181.49" height="198.75" as="geometry" />
        </mxCell>
        <mxCell id="DuZaDqDCN82xKvI541lF-62" value="&lt;font style=&quot;font-size: 18px;&quot;&gt;П.І.Б&lt;/font&gt;" style="text;html=1;resizable=0;autosize=1;align=center;verticalAlign=middle;points=[];fillColor=none;strokeColor=none;rounded=0;" vertex="1" parent="DuZaDqDCN82xKvI541lF-49">
          <mxGeometry x="317.4324324324324" y="39.75" width="60" height="40" as="geometry" />
        </mxCell>
        <mxCell id="DuZaDqDCN82xKvI541lF-63" value="&lt;span style=&quot;color: rgb(102, 102, 102); font-size: 17px; text-align: left;&quot;&gt;Бобун Тимур Сергеевич&lt;/span&gt;" style="text;html=1;resizable=0;autosize=1;align=center;verticalAlign=middle;points=[];fillColor=none;strokeColor=none;rounded=0;fontSize=18;" vertex="1" parent="DuZaDqDCN82xKvI541lF-49">
          <mxGeometry x="426.8918918918919" y="39.75" width="210" height="40" as="geometry" />
        </mxCell>
        <mxCell id="DuZaDqDCN82xKvI541lF-64" value="&lt;font style=&quot;font-size: 18px;&quot;&gt;Стать&lt;/font&gt;" style="text;html=1;resizable=0;autosize=1;align=center;verticalAlign=middle;points=[];fillColor=none;strokeColor=none;rounded=0;" vertex="1" parent="DuZaDqDCN82xKvI541lF-49">
          <mxGeometry x="317.4324324324324" y="99.375" width="70" height="40" as="geometry" />
        </mxCell>
        <mxCell id="DuZaDqDCN82xKvI541lF-66" value="&lt;span style=&quot;color: rgb(102, 102, 102); font-size: 17px; text-align: left;&quot;&gt;Чоловіча&lt;/span&gt;" style="text;html=1;resizable=0;autosize=1;align=center;verticalAlign=middle;points=[];fillColor=none;strokeColor=none;rounded=0;fontSize=18;" vertex="1" parent="DuZaDqDCN82xKvI541lF-49">
          <mxGeometry x="481.6216216216216" y="99.375" width="90" height="40" as="geometry" />
        </mxCell>
        <mxCell id="DuZaDqDCN82xKvI541lF-68" value="&lt;font style=&quot;font-size: 18px;&quot;&gt;Дата народження&lt;/font&gt;" style="text;html=1;resizable=0;autosize=1;align=center;verticalAlign=middle;points=[];fillColor=none;strokeColor=none;rounded=0;" vertex="1" parent="DuZaDqDCN82xKvI541lF-49">
          <mxGeometry x="317.4324324324324" y="159" width="170" height="40" as="geometry" />
        </mxCell>
        <mxCell id="DuZaDqDCN82xKvI541lF-69" value="&lt;font style=&quot;font-size: 17px;&quot;&gt;29.02.1999&lt;/font&gt;" style="text;html=1;resizable=0;autosize=1;align=center;verticalAlign=middle;points=[];fillColor=none;strokeColor=none;rounded=0;fontSize=18;" vertex="1" parent="DuZaDqDCN82xKvI541lF-49">
          <mxGeometry x="514.4594594594594" y="159" width="110" height="40" as="geometry" />
        </mxCell>
        <mxCell id="DuZaDqDCN82xKvI541lF-71" value="&lt;font style=&quot;font-size: 18px;&quot;&gt;Психічний стан&lt;/font&gt;" style="text;html=1;resizable=0;autosize=1;align=center;verticalAlign=middle;points=[];fillColor=none;strokeColor=none;rounded=0;" vertex="1" parent="DuZaDqDCN82xKvI541lF-49">
          <mxGeometry x="317.4324324324324" y="225.24999999999994" width="150" height="40" as="geometry" />
        </mxCell>
        <mxCell id="DuZaDqDCN82xKvI541lF-72" value="Середній, панічні атаки, &lt;br&gt;депрессивність." style="strokeWidth=1;shadow=0;dashed=0;align=center;html=1;shape=mxgraph.mockup.text.textBox;fontColor=#666666;align=left;fontSize=17;spacingLeft=4;spacingTop=-3;strokeColor=#666666;mainText=" vertex="1" parent="DuZaDqDCN82xKvI541lF-49">
          <mxGeometry x="514.46" y="225.25" width="265.54" height="164.75" as="geometry" />
        </mxCell>
        <mxCell id="DuZaDqDCN82xKvI541lF-88" value="&lt;font style=&quot;font-size: 18px;&quot;&gt;Якість сну&lt;/font&gt;" style="text;html=1;resizable=0;autosize=1;align=center;verticalAlign=middle;points=[];fillColor=none;strokeColor=none;rounded=0;" vertex="1" parent="DuZaDqDCN82xKvI541lF-49">
          <mxGeometry x="317.4324324324324" y="414.9999999999999" width="110" height="40" as="geometry" />
        </mxCell>
        <mxCell id="DuZaDqDCN82xKvI541lF-104" value="Відсутній режим сна." style="strokeWidth=1;shadow=0;dashed=0;align=center;html=1;shape=mxgraph.mockup.text.textBox;fontColor=#666666;align=left;fontSize=17;spacingLeft=4;spacingTop=-3;strokeColor=#666666;mainText=" vertex="1" parent="DuZaDqDCN82xKvI541lF-49">
          <mxGeometry x="514.46" y="414.5" width="275.54" height="95.5" as="geometry" />
        </mxCell>
        <mxCell id="DuZaDqDCN82xKvI541lF-59" value="П.О.Г." style="strokeColor=inherit;fillColor=inherit;gradientColor=inherit;strokeWidth=1;shadow=0;dashed=0;align=center;html=1;shape=mxgraph.mockup.containers.rrect;rSize=0;fontSize=17;fontColor=#666666;" vertex="1" parent="DuZaDqDCN82xKvI541lF-49">
          <mxGeometry y="99.38" width="60" height="25" as="geometry" />
        </mxCell>
        <mxCell id="DuZaDqDCN82xKvI541lF-105" value="" style="strokeWidth=1;shadow=0;dashed=0;align=center;html=1;shape=mxgraph.mockup.containers.browserWindow;rSize=0;strokeColor=#666666;strokeColor2=#008cff;strokeColor3=#c4c4c4;mainText=,;recursiveResize=0;fontSize=17;" vertex="1" parent="1">
          <mxGeometry x="910" y="40" width="680" height="720" as="geometry" />
        </mxCell>
        <mxCell id="DuZaDqDCN82xKvI541lF-106" value="Оплата" style="strokeWidth=1;shadow=0;dashed=0;align=center;html=1;shape=mxgraph.mockup.containers.anchor;fontSize=17;fontColor=#666666;align=left;" vertex="1" parent="DuZaDqDCN82xKvI541lF-105">
          <mxGeometry x="60" y="12" width="110" height="26" as="geometry" />
        </mxCell>
        <mxCell id="DuZaDqDCN82xKvI541lF-107" value="https://www.safetyplace.ua" style="strokeWidth=1;shadow=0;dashed=0;align=center;html=1;shape=mxgraph.mockup.containers.anchor;rSize=0;fontSize=17;fontColor=#666666;align=left;" vertex="1" parent="DuZaDqDCN82xKvI541lF-105">
          <mxGeometry x="130" y="60" width="250" height="26" as="geometry" />
        </mxCell>
        <mxCell id="DuZaDqDCN82xKvI541lF-113" value="" style="shape=mxgraph.mockup.containers.marginRect;rectMarginTop=10;strokeColor=#666666;strokeWidth=1;dashed=0;rounded=1;arcSize=5;recursiveResize=0;fontSize=17;" vertex="1" parent="DuZaDqDCN82xKvI541lF-105">
          <mxGeometry x="40" y="130" width="590" height="520" as="geometry" />
        </mxCell>
        <mxCell id="DuZaDqDCN82xKvI541lF-109" value="Номер картки&amp;nbsp;" style="text;html=1;strokeColor=none;fillColor=none;align=center;verticalAlign=middle;whiteSpace=wrap;rounded=0;fontSize=17;" vertex="1" parent="DuZaDqDCN82xKvI541lF-105">
          <mxGeometry x="50" y="190" width="150" height="30" as="geometry" />
        </mxCell>
        <mxCell id="DuZaDqDCN82xKvI541lF-110" value="Строк дії" style="text;html=1;strokeColor=none;fillColor=none;align=center;verticalAlign=middle;whiteSpace=wrap;rounded=0;fontSize=17;" vertex="1" parent="DuZaDqDCN82xKvI541lF-105">
          <mxGeometry x="40" y="250" width="150" height="30" as="geometry" />
        </mxCell>
        <mxCell id="DuZaDqDCN82xKvI541lF-108" value="ПІБ власника" style="text;html=1;resizable=0;autosize=1;align=center;verticalAlign=middle;points=[];fillColor=none;strokeColor=none;rounded=0;fontSize=17;" vertex="1" parent="DuZaDqDCN82xKvI541lF-105">
          <mxGeometry x="60" y="310" width="130" height="30" as="geometry" />
        </mxCell>
        <mxCell id="DuZaDqDCN82xKvI541lF-111" value="Код CVV2" style="text;html=1;strokeColor=none;fillColor=none;align=center;verticalAlign=middle;whiteSpace=wrap;rounded=0;fontSize=17;" vertex="1" parent="DuZaDqDCN82xKvI541lF-105">
          <mxGeometry x="40" y="370" width="150" height="30" as="geometry" />
        </mxCell>
        <mxCell id="DuZaDqDCN82xKvI541lF-112" value="Email" style="text;html=1;resizable=0;autosize=1;align=center;verticalAlign=middle;points=[];fillColor=none;strokeColor=none;rounded=0;fontSize=17;" vertex="1" parent="DuZaDqDCN82xKvI541lF-105">
          <mxGeometry x="80" y="430" width="70" height="30" as="geometry" />
        </mxCell>
        <mxCell id="DuZaDqDCN82xKvI541lF-115" value="XXXX XXXX XXXX XXXX" style="strokeWidth=1;shadow=0;dashed=0;align=center;html=1;shape=mxgraph.mockup.text.textBox;fontColor=#666666;align=left;fontSize=17;spacingLeft=4;spacingTop=-3;strokeColor=#666666;mainText=" vertex="1" parent="DuZaDqDCN82xKvI541lF-105">
          <mxGeometry x="198" y="190" width="212" height="30" as="geometry" />
        </mxCell>
        <mxCell id="DuZaDqDCN82xKvI541lF-126" value="ММ" style="strokeWidth=1;shadow=0;dashed=0;align=center;html=1;shape=mxgraph.mockup.text.textBox;fontColor=#666666;align=left;fontSize=17;spacingLeft=4;spacingTop=-3;strokeColor=#666666;mainText=" vertex="1" parent="DuZaDqDCN82xKvI541lF-105">
          <mxGeometry x="198" y="250" width="40" height="30" as="geometry" />
        </mxCell>
        <mxCell id="DuZaDqDCN82xKvI541lF-127" value="РР" style="strokeWidth=1;shadow=0;dashed=0;align=center;html=1;shape=mxgraph.mockup.text.textBox;fontColor=#666666;align=left;fontSize=17;spacingLeft=4;spacingTop=-3;strokeColor=#666666;mainText=" vertex="1" parent="DuZaDqDCN82xKvI541lF-105">
          <mxGeometry x="270" y="250" width="40" height="30" as="geometry" />
        </mxCell>
        <mxCell id="DuZaDqDCN82xKvI541lF-128" value="/" style="text;html=1;resizable=0;autosize=1;align=center;verticalAlign=middle;points=[];fillColor=none;strokeColor=none;rounded=0;fontSize=17;" vertex="1" parent="DuZaDqDCN82xKvI541lF-105">
          <mxGeometry x="240" y="250" width="30" height="30" as="geometry" />
        </mxCell>
        <mxCell id="DuZaDqDCN82xKvI541lF-129" value="" style="strokeWidth=1;shadow=0;dashed=0;align=center;html=1;shape=mxgraph.mockup.text.textBox;fontColor=#666666;align=left;fontSize=17;spacingLeft=4;spacingTop=-3;strokeColor=#666666;mainText=" vertex="1" parent="DuZaDqDCN82xKvI541lF-105">
          <mxGeometry x="198" y="310" width="320" height="30" as="geometry" />
        </mxCell>
        <mxCell id="DuZaDqDCN82xKvI541lF-130" value="XXX" style="strokeWidth=1;shadow=0;dashed=0;align=center;html=1;shape=mxgraph.mockup.text.textBox;fontColor=#666666;align=left;fontSize=17;spacingLeft=4;spacingTop=-3;strokeColor=#666666;mainText=" vertex="1" parent="DuZaDqDCN82xKvI541lF-105">
          <mxGeometry x="198" y="370" width="42" height="30" as="geometry" />
        </mxCell>
        <mxCell id="DuZaDqDCN82xKvI541lF-131" value="example@gmail.com" style="strokeWidth=1;shadow=0;dashed=0;align=center;html=1;shape=mxgraph.mockup.text.textBox;fontColor=#666666;align=left;fontSize=17;spacingLeft=4;spacingTop=-3;strokeColor=#666666;mainText=" vertex="1" parent="DuZaDqDCN82xKvI541lF-105">
          <mxGeometry x="198" y="430" width="320" height="30" as="geometry" />
        </mxCell>
        <mxCell id="DuZaDqDCN82xKvI541lF-132" value="Сплатити 1 UAH" style="strokeWidth=1;shadow=0;dashed=0;align=center;html=1;shape=mxgraph.mockup.buttons.button;strokeColor=#666666;fontColor=#ffffff;mainText=;buttonStyle=round;fontSize=17;fontStyle=1;fillColor=#008cff;whiteSpace=wrap;" vertex="1" parent="DuZaDqDCN82xKvI541lF-105">
          <mxGeometry x="260" y="540" width="150" height="50" as="geometry" />
        </mxCell>
        <mxCell id="DuZaDqDCN82xKvI541lF-160" style="edgeStyle=orthogonalEdgeStyle;rounded=0;orthogonalLoop=1;jettySize=auto;html=1;entryX=0.521;entryY=1;entryDx=0;entryDy=0;entryPerimeter=0;fontSize=17;" edge="1" parent="1" source="DuZaDqDCN82xKvI541lF-133" target="DuZaDqDCN82xKvI541lF-134">
          <mxGeometry relative="1" as="geometry" />
        </mxCell>
        <mxCell id="DuZaDqDCN82xKvI541lF-133" value="" style="shape=image;verticalLabelPosition=bottom;labelBackgroundColor=default;verticalAlign=top;aspect=fixed;imageAspect=0;image=data:image/png,iVBORw0KGgoAAAANSUhEUgAAATUAAAKfCAYAAAAPcF8RAAAgAElEQVR4nOy9eZwU1bk+/pyq6p6epYdZmI1ZmGEfkFVRUEQExatg1Gg0JAG3xCSfaPJN/MVorqLR3Ju4JPGq1yRmcYlRgwtRTAzBJSIiw40CMuwwIDDMMPvaPdPdVe/vj6pTXdVTS88CJEM9fIaeqT516tRZnvOe933Pe5iiKEREYIyBiGBE4rXE7wcDp2cxxizTJabh5VYUpU/ejDE9jSAIeprEdzI+K/F5xvusymD1tx0S8+LlSnznoapju3LyunFLx8vC01rVk927G9/JrX54+9mVya7cifVm7A8AoCgKBEEwpbUqp/E+q2clXrOqn8SyJb5DYpkTn2/1u1UegiBAlmXTd8Z+ddXnr8Khzw71reNgFoQLrwFVzgH8PlBUBpMEkBxTnylKWoG0HwGgiAzmEwBF+0IU4tcYA0UjYIIICIL6u+RX7wXww5lluLwiBwExXicRhbC6phlP7KhDVzSmPYcBDAARlN5eCH4/AAYQgQhgIlPT8XqJKWASU/9WCGoipn8Pra6kLc3d8UbildCnWrTvkh1wjJnS8l/Vy8anOOfnNmiM6RKvq/can2l+HgMDgUxX+TVzwS3KqTU+r2/+HH4L025JLDoTtAEA7b0sygskkIUxD+1hTBBAiqKVWL2uDgroeeitaFl/hjImfMe0emRgahoDSTDGTDcYB3wi1PsT2o8AAkFgDAqR3s/U/s2gKNo1c/eJX1N4W/clOK0mLAlZJx8l3hGNfVwnEUFNo7fPQEDGfmsz+fEPnRShtx+0eldvVxtIEAXIsmLODwzmUQuExVFQ0gQktirzB0HhNKBVVp8jQe0/DCAoILlXqysFgADedxSmqORheKZ6TVH7IBSAFBATAIpyfsL/rj8MqSWGknQ/BK0N9rWH8czuenSGosYsDYUUISPWl4T6dFAGyDIgCNYUwgA2bdX/UczyKcMYBFjXLP9eHfUUkzUCIX1G0SvR3GfjPKJ9Uszl+QxAzKkMhrIoNknM/dx8r937KRQnDLvHKxZs55YvaeWx+U6/z+6ZdnkT4vU/mPwBkGwmWEuoc4WaH/89mfrSmIjs6s54v0ObGstAvAya9OR4D5+pFHKtC8ZkkCJotygACeqEISggWehbZt5f+bslkAmfLEyTgdWz7crFhQdyqLt+QHBPcvohUYpSLwJQACYIfQnNmIYAkgHGJzwrsTf5gjg3su3gsb8pLu3gxLc+78QGCcm2PhwmGS4hMsHmZuO9NmlIpuTbQyYuPiaROJ4nJSMcMMNnEtkzbYnGP4cCRCLAJWk5Lpn1ITSdhCzGgrGMjMVXOdRXVeF0r6FQQ0JowOlKanZ1TqpYzqUzJoqquC6oM6Cqh1DUyheZudOz+IRjms0SpTmuC3BqQD4ABTZkDa0XU9RmUzvJx0nScMzY4hqvH8GoBxlA3hpsSSOhHSyLJ6iDGHbSLaBKzrze+RqQ5+0kAZpIm6m6IKtyGN/fRvtCvAwwSD6kkbKTpAgGyJqIZ9QzOZWZT8J27cLf3dh2CUTP311V5bC4hJksCH3HySBxepKabFODDLq+ihmUmKQoGqERmE+M55HQeMzwC8naBSEhgaCRoVPDiy6DbzDgs77dUsZJOnEos+3SE9AkHxpQbyM5vqRjok3ZuO6PYNu2ej5OZZBYfEKBRmg8P7tnA2CilimpfcKWgEQWX9ba1JeqCIdONrqkZkeUQFzhLgqAopiXoLZl1nTKDu+lkg1nPu1aYp9P1EO6Ea/dc4YQpyepOU1iBkU+xWStwzK9g1FEUTsPoHZSfekBXVpjgrb81Jas8bwR79BO5EHaf47ldLhu039IJlCMdEnNcjnnNBj6s5wmwye3YjkRn90jeR0LCToxIxS4DmIgvoy1BL/OiYdLanzQWz3bKEUB8UnLDQJzHHnG/HRJzY2QjZJUMktVrS0cdYB8suC/2+TLCdIVQ2TZd8NpSmoOM4ZGCEzrIEZRmogAEaqYz2dxw8oDMNgTuJLZ9FzDj1v7cpHfBraSkUvnAydbPlAS4TQo7UghcfnAEr8jd0J0G4SO9aUNeJfe7GjRNC6DjHXPjTmWeauFjncnZjuhmG4xKtytknDdI29Gnk52yNf0Hi6dy2gASWai4vWSjBEk2UnvBOL0JDU7sjASDldOczcK3nNlAiTBxXqakJ/VM5KZ2RwkG2bXcrxTO1kKnTreQCzhdu/JpYtEK2I/nklKXx+wvonguKTrg8TsjBZPPQ2LS5n8GRoEknWHCp4fcV1pMu1qmFgcy0fxP1zrQDfCJPF8ZvzVLV8kR3qmMp9anJ6klgSICEzU/MG4HxiXYmKK1tmZpmuDvvTkg5eJ6KsX47MdX944F0DV8djB7iu3PuqkT3NDkoQnKASRFIOi2aVgLlzArWr2D2RJDT59+ZmYFzcA8qWn8XsujRuuKUwE6S4IpKsmmCS4G3dcluGkSYbcWsuXh7ZLb71QilnSdOpfPF/AWQ/Gywum9kU3dci/AKEBHqmZQLJGYND0Z72aTo0rgKMKWIrBUAACxax7KFktFfjS0M1QwEnAwY/NMn/AsXNRLD4AhxR9Bj2DzIS4HoqTuR1clNXcqtafMpi+0sqh+7vZ5CXKUXUy0tfniA9mfXlreCcAqrVT27kQU+yNUEY41D/TJjImMv29ufHAUakvCuZ3czMUaOSblKsIkdoX7epXt/665HOScHqSmp0uQ1SXlYxYvENrSn0maZ3GwoeJidCWqjAvPa1q121G4/lzAuznO7iB72qwTzC4nqkvi0l1+tbryilbJyIQXCQ1R52XViaNDPhA7pOXAkAGZNEHIkNBud6US7cKIJASX3oKXFrTJkQnGCVAF52XLp1B23HASdnWWEHx/Ln6wS1/rX8aLayO0r+D9ZUlI52eRJympGbTOkZC0v4mrp8yNoxdrRk7BoPzMs+uDCdwtmOCOkCGXFLTH4C4AYOvPJORXJzgNgkkGGwcs7Ib7Hz5aZcHkep5D8PSMyEx475tdg7GnADdoMC6fWwJh8U/jfsRHedDM7k7WkD5wx3SkNEQZPfck0hspyep2YDrz+KGArWxdF8cSTA4LVLCvdBIUP3bVeCx6+DGDulmresnN+n7Ih22Otk+sx8GBIFUnZrCNJlGr5Sks+gDWyLuRw82WhVN4IYCmSAaTYwm6Sd+k8D3wGm6UdJ1pOSud3JyK0G8bLrvlyalOhsKktMpmp6hc6HhJgdSdyqzbmyw9a08uaLa6UdqDo6Jqm6ENIlDAfOJKqHFFO3TcC8l3ot40ADJRufFScPoqZ4IC8W0LRLTuOiuTMswy/wcOq/bQGTxpaeuU+OwW/YlAb60cfRSF52JgmTVydToRW8Cl9QkBlkQNYLSiMKn1hUZGENhkppGMPgvykrcX87pPV0mB77EZBLTl59gdktPxJ3A+e+8DzjVh2FPqauUlgRZJmdssL3ZOfMB4PQjNQeQts0k7mgrxyW0mAKmdXAmWW/6ZVAlNorBuiMoBjKzW5Zxiyd/hJNyOBEuHVAf3HbPdtJ9OZRDl1KNRM5nbZE568yc3DlkzVHYrZfK5OynRnA2kHB3kBgf7FqD8muA6p/okqejIh9Q64L7CtrqdTUSjZKJdJiV9ZHruoz6Lr59z3biiq88XAlLJ03n1wIwcCYZpA7XCtKQ5/ivjoSwSKaveEgf7lslMTDSFOsGVwh9duNLBVKllHioI4vH8AGuIMGiYAEyfA5WJ2XI0xR+ZwD32143LoUJEEBQEmJc2eqsBHvSY1p9JRUGyGU5bhkvUGBI8TEEBCG+DDO62/B2162nCe2rW3dJFc+TqVvj7gcr4UuJ9yU9EpBtlBZNquOCkkLoDscQjdqzkB4XTmDJS2lur+WmP3bE0Etqpx+pOYBkJe6bBvTxvCZZievVhHjHT3SEtXSM5YMumU7CYeP64bjPcjBwWiIm5bBs8b2b+4pLXSRFaHzg2xXRYnmakiogJ+BHml9AQBScdVZGEuLqCG0vsFZIuO0AAWC2pPJ8ef24EIOiOyGTPkHJMo9xp21SIqArHENXVxQdnVG4hRRLitgA04Rl+TVLcpuUFYae005DUnMYJKZNwwKACAF+QyckbXbm1h4Z2p5EaP5NMFsAjRCgdmrRXlKMFwRx/ZvlOzjfbpdnXP9jl69DxnbkZCRC7VPh1jVN+e64BE1m9eE2ESRIin2+TpCMUlIFFGUGkC6JyenWDaGa1CW8FsWF16nTkt4IPhEay5Nk5BI16i4Q1/BDN7bqjsAAMlIlpKWIIMbQ1tHbpy/qgTMdpMU+ZeY6OBsMWPo/QRi0To0hvoRP/OnPctkujxPlfWAFUlTnSQbVKMBSRFBU05vIBOZX1wXMp8VU02qPiQn6JCuJJ0buUgtHsh2uzwvY38MjRyQ1+KyQRDvoxM51XIoLoQHOOrUYD/vk8FBer05SJsWNIz6RUJjmQ0ayhMazUNRgAIyx+DYnrYNSjOJ+jE7Q9XMG3ZqkfQrM0WtfkRW1DAqp4bsN75q4gUAQGIpGBpCe7uuTn7H99XexfWkkp1NjsM8nmf2iQ4xBS2rXTyzE7dNL9LC9RjR09uKStdWIuDgmlqVKeH3pdPiFvjXTFZHx/Y8O4IP69hNqGFaXnmJ8kAlQdxBI2iwsahE6GANxnYVBguijQkokOn3LE59pLRqbSxxuzoz9WcIab5OYThS2m9ntOmESZMjfl4matMr1UW6Sml3WDHEfKIc0OokCfQYgV4jzbUeZAT/SfT7Xd9Hvj6nx9TgpkkJgWtx+vS4FQ5+wzQiqJZUbIghqp+FE5xQxFoAgCnFVbIIfmqIQBIEBApkks6xUH3pCMcSMRMaNGQy6dZWs+qLp4Sxe5sTXsrMoJ4MhDAxphGf91KBvhzJdY3H9GsEcGJKb/Q190bQKSuzjphBENo2ZsIyzLetApVdN8Wy7XHALQ5ME1Emb64gMhGZ7v33G+lYhOxgHuM3A0oNDAhBEBjFFcLdSGu+XNLFM89rXHZhFIe6/yCciJ/DyGcMUGTz7XeuXSOs2allIi0+mqvP4+Q7mTDIzffBLgumqKdw2l9zdJlCHBCyBYPuFZLZoDQBDqlMjAjp6YnoVtEdiySl6AbSFYyZJbURAGnprbzIzClOJjDGDQjhmkARiSjyYoMZiusXKcQeBoQyOBYzPpAOVyBxxosRdrawEQO7PXOkUety4ZcwOnBjsslHiukRRYPD7BhKp0lwGpulFdR1lMgEKjC46ie/sFsUEMEnX3EjAT5JyMnJIEgMi1nnrCn6nPpHMRMvrxyqNwbhxsjCkpFbTGsJ3Nh3QrS4ykasFBgCO9chY/t5uvd/k+AQ8c/Fk+G3j6wwQNkShh/COEZgI8CCRzCeqm5S5fog3XsIGXsbihEYGo4IJXGoB7HUUxqBsjttSXN/U5j4XQ4Hjze7f68TOJw8upbnp1ayyk8nsT2U5YLRPB7cQ/Z014hnQFjGDREExTWozON86GnUA6FFf9X5jmOF42Z0snxqBJZadlPjJXCBAsagknyiCQdatk8zQx1wJTUvnlMbdeurwfZJGkv5iSEktIhOOdvci2k9rSIzU+zh6/eKJCZJpu0RRyVM95zA+iCgig/k1072g+fZENemtVwF8gvo31xETQEwb3Ik7CowDHLDuxJz4+MxvUQm6VJhMwEDjO2oWugERWpLtSQrgV2REBQHEDO/rdGqWU35uzsLG8jkYYbiE41cY0mVmH4vO6t6ools7Ac3gIDD4RAamANGYAkEUIDEgGlUg2+kq+SevC/5OMVIlf66SsOgXgqgaphS+20AjJv3IRY2sFUWBIKpLUd7Po4qiE5o+USS5VzYZ0jG5y9ithOzmEa7BGWLd2unn0mEDiipgPkGvYMYYiPs/6bGnoBIXX47yQ1gAU6P01aeROeSQXQPyDiLaD1DV6bO/LzdIKc3BYTkREUGMv98gls86CTtJavoJUfb1ZcwrIhC6RUImklflcEu30RUiKIj41uVjISsKnnvnMMrzUnHzf1TgxfVHsaG6GVGbcFQA4kp3wVDuJEiGAD1EvGm7JmnSmmYRVRLaVxIE6GfcahKnPlEwuFs2nSz2BPj9AmbPGIlgWvLGl0TsO9COgzUdkAc4+SVi0KQWkRV0RWQIYAjJ/R1t9uiKyIgKhO5oDPJJiG3OfGr8L32vHdeX8MiPAlQxLNHRli9LTBcTLpgSucnz2qedF7lTVTj54MEl5JDdLOuSr5UeUT3mVp+GnZ9pBwXmXQB21cYlQYdq1YmxvzBKzFobZvhFXDIrHxOLM/D3T46jOyzjWEsPQj0yLp5ZgNrmHuyv7VKlpcT3ZIhbasnwRULZM9MkjAj60N4dRWd3LE5Uug7McDK8MXsLq3biocp8gjOVywmObU9I9Yu47brxmDQ6aOkBkQx+9eoB/L4uhHBndED3J2LQpPb+sXZ81tkDgKE7GktKh+aG9piCH2yqgcAYZFKwpz180vSMfADoS02/EO8EiqISm1HZq0lOfBYlwD4QA9fNOfGaYQD1v/A213l2boYMp3IlE9jS+DWfDJwazul5DNqyH87ldpE8ja4Y/QbnZQVgmkJ11rgsXHp2IfbUduD96iZ0R2R0NcWwZuMxfOmiMlwyIw+tHb1obI+Y8+LSOu87/N25WkIAMlJEzJuWi7Mn5iAz3YfW7ig27GjCpu0tCIdlzfczHvlEd7zlsHhFSvyjP9Kzg64SUOu2OxTDT3+zE8FUqe/EwZeVTn2dgMP1IUTCTqd/9w+DJrXaUC9qQ73uCTXk+0U0RmTHeu1VCB81dAy2aGYQ7HUufHsUeHghxdxAfFM701rImA/XoRksWH2Wh0YjAVzIwSXixIDALYBO+imnzge469UMXyuGsE1QYG8ocHim0dLnuAVHdxmx0UFq8fCYwOCXGdKjDMyP5CQ3rrvS2m766Excc14xemOENR/W4Xhrr17OjXtbkJ8XwCWzClBT24112xoQMbpvGE+l4mUlmKKyXDS7ABfOysfaf9bjWF0IleUjcPW8EoS7Yvh4bxuimkRKCkEUBfU2RYGgEZ2VJK7IBvOBIYBnUqoIt4giRIgpwJadLdbtqE9sNsvrE2QoYNNW/R8NhXTlBBHA9DQ/bjyjGBeU5yIqE17bfxy/2V2Pxt7YiXgvazgQG/+eNN2ESVLjjS8TmF8ERcysZZLUyEGRzzu0VRkUw3cuM6RjKG+XqBf6uyWmc7rXyRLLzzfleQBgmk+VawBHt/K66ViS0UVpKgVSCL4UAYU5AWQKye8mYDLhxotH4z9mFsDnE5K+DwCaOyP4xZ/3YednnZAjisFIpJXb4JxcNjKAmy+twOZ9LVi3uQGRiAL4GG66tByTStLw0+f3oqUjvjyTY9oCX4gbBkRJgGzU8wKorQ+hszuqPrI/hgK+T9VYXgu45uVEXCeI1E6K8215qh/fmVmGBeUjITCGgCTgugmFuGliIYKJYXxOFJy4jB8Ay9MJ2jWBqYNWj+bK+hAaCLoHPX9EnxA8/H4nZ0P+Hf+0SkfWOqz49/ZSmDHi7ZDv1TNIXAwG51vjwBgouGOqVTb8mkOYHcBagkkaIsOBY11o7Y7o+e050omG9l6EIzL21HahIxxDNKZgf20X2rujumCyv74LnWHNV1M/+5RPXoiTskwozAnAHxCw51CXSmgAECVU729DZmqKuuUJatspsraDgDsVa31Gjil9+rloMPUazyNwDeGt7/l0FgIYY/CliPDb/QQcflIl+FMliEPMASfc+ikwYOLIdEzKzzT1PUFgmF+UhZcPNqGjs+dEF8MRTFCNBAQlvp+TCdD9eATom9f1GZYPZL7MsoOuFOaf5KJTS/i0+76/SEaXYpXGbVmaIKWRgniASKNivD+RRQjxOGqO9cELbFNAzdIHBc5LWOeiYNvhTsw43IGcKX74RAEvv3sE0ydm4YyKLLyw/gg+d04Rxuan47UPjuKCGfk4c0I2RMawtqoeRxrCUBLfXaE4WWtqC79PhKwoiCVsKewOxyAAKMxOQV1DuI+7VJ9lesJrxpQEVY8+aRtmIX7dqRKsLiuEtFQJy6+sQH5OwP0YPxu8v/k4Nm5uQLR3aAyNJ5zUiFQCS03w5GYA0nwixJO5Y93Wj0nVqTHD+DA6baodRnPQ5SKzwc3D9AZccjNtcCeDFQ0uHYjsDQVuynyX687WT5ulQLKxzAD4mIwYE9XI19zh1KlcTkgI+2QJXU1pUykEU+w7HzGkKsn7qXHptqdXRkNzj2onElWC7OlVjWKKTIjIChQiyLKCaEzW5636tt64zxivE/47wSzBQ3WUNVoQSSGkBSRIogA5quhboogUMBbfTaCG/k5iKa5ZTU3zgN09xrq1jT/I4JMEnDczT7N+Oj/fDsdberB5S9O/EakBaA5H0RiKoDA9xfRdQziCHiefnpMEJgiqo61P1INEqkp1VZwnQN3QzstqYDJOYLpOjVnovIzOl27K2YEaChwMAPps7mYosIKLb52xz0dJNJCu4QtLsoSjsywvq22ZFYqTgsM76a4PAkMUhB5G8CFJO4GmA1OIENE2rCc7bo+19CAU0ZT0nEQlprmfaEs/viyNEdq6ogAxpAQlXbJlAsPIEQF0RmI40tijB38kBSbFEZ98rXRqxh0Fekh6uPQFwGDAsE9DCqGjM4Kv31MFQbDYpevQxsY+FYkpjoEt+4uT4nz7SVMXXtnfgGUTCjEiRYJChOPdEby47zjqwxH3DIYCTlIOAcwv6oNA10FJorZjQI3QwfyC7TmfgI2+y3Coh2NobqOBwEZS07cgWcHOwqgtwYgoeQ/9fsDynfWIsQ7l0sqmpk+4rBG7a1mtDh/uUz7jJnTX88gTbgZIVhARBTSEY+iNKfD7BFSMDqKkMAMj0kQU5wWQm+FHik/EmNGZGJkVAGPA8dbe+O4CLrUmbhnTSIMU4EhDN+qaw7hidhE6W6No64ogJ8OHs8aPQM2xboQjMgROsryeGNMEQDU/2aJvxmKy+iD9JjUD1z7Ay+mQjLdPuMdGwiKyVzucICMBcJKsnwCQKjLMyx+BmXlB9MZkfHC0BTu7etFzEp4NwHnW4KGFuD7DMMObyIh3BGPgPG1WJf4MriexerbIzBKGVRkZbLcVOZKai6TmGsrbSYJztKjafJG439EujdWq0TjobR8M932lxvDrAFJ9AkqyAkjxJx44YPMIWYvAwRimlGXg5sUVKB+ZZtqim1gkAOiNKvjzh7VYvekYeiIGyYk7CRtv4DsMFGDi6CC+eGEpSAA6uyPIywog3CNj1TtHsK+2C7JMhqgc8Q3txv2fiaivD6OtO6I2g9YkxMvhaHTSPgdj+fx3JbUUgSEgxGeQziFaTmYaQqaEZEJ0sLsK3ERhXUqK61K4DsIUthkwrbmIu7Qxg9RifAzvTDzyrdtA5boXSwnIRjICThypuUlCBlKTmIKYoonEfOnitIXJidT4oLMzMvB6dXPRMfippQgMxVkBBFKSdOkwuF6kBwRMKg2iIBiAIDDd9ccK4YiC7Qfa0NgV0bfWAVBJzShdGnWGilrW0UXpqChKR3q6hHAohv1HOlHb0KOFYVPrU99JwOsY0K8nlqmuPox2A6mZztdwIzUnUtLfi5Ca5rMOFOC2p1P7LhKOIWon7Q0Ag15+Li7NwfIJBRAAHGwL466PDw16V0G2T8D/zp8Iv8AQjsp4dHstPmnuOlHEri/3iFRjgH4quEymcN5MUjewq+G71c6ph1XTlpl6Z9Pzhtn1wC0K7GCcb502dZ+A2kskWIW0l+WV4LJv0HFp4xYWJ8lN0HzfIxFBERhiyQlpvBCqEQkM3WEZH+9pU3lal+pdJNF4IeJSpZHICSZJkzGGw/UhHK4PxcmccxDT3kUnNG7A4sYY6/pQmHbRaHhJpiu4kR5Ty5CZ5sMD35mG8lHpqmvJAPDiW5/htb8eRk9oaHYVDJrUcgM+VGanqVYbOXlFqhN8jGFSdhpSRAFdERnpvv70xP5DPf5OiDekYa8gReItG4/UQKq+iJMZxQ0GffoL90ty06kB8e/teMCtMzoQCBMGeDiGk6Eg4ZrCB7mgkdtglhgMeqRex7LZLUEpvozVN8czQOlPhA5tpwkAXeLi58ACqhXV8fW4JMknKpn6RuSwez+DDkyJKRBFQY1wKzI9FBE3CggCUy3OVlJvjMzGCmj1yvu4m+RvMzHxs0MZA9IzfMjJShmw9TMt3UbSGyC8KB2AFomB4i4bPO6WaNA/AHE9kcGHiomIdybuV2XsA8k0Fk9v2k5lUU5jvLKkXw5xL3I7Q4kTkiQ0HdypUzcWDIzVjM7C1gkQbxc7A4lkiPQBwKcwpCYTeki3Fgu6Dko/DJlnz329nOqUIU5oEgOiBqlJMHzP87FZgQli3O9PkQmMqYTGwAABtvo09R1UY4JRqk5qRwGfKGwmSq6eae+M4qt3beqbgBO6FU6gPg0YYlJjDEgTBcRYvAa7k+zUaQbLVPbJ9F3T9qeps7pKbFyvpi8dFYCvA5jE1INmDfoQ/TQpLuKb8u9HWVzeu9+Epj2foJbX6uxLnqa/hNdniU2ASApkvgRNdmlmA5Mus8/DEV/SORbSkBcRIlDQRTKy4bLdybg9SJPIEsVk4mtC/iCnohi/SyRCB8ORGqKbLz9Zn0AJ6t/kuFTX+c7gyGzbD4zldesTJ5CUBoshJbWijBTcd9ZovS939sTw40+PuOrYcv0i7phZBknrJJmMQRpqYuNjLbEoWuMxSdtVoPmgxcMOwXQT8XDeWkw1UyjvxGcYP7mVayDS0hBhKLdHWe1vJTDzcsUpDluyhh+33Qh2ejtCHwOJIgOxKCEpRzVNYtfPIAAXQDUpTpeaXQjN6EsnaI1v3NDuAO6yYQwVxP8WBKaTntO79IRipqq2PXSnT7ndCueSn914OwkYUlIbEZCwuCwXgPoujZ29+O/tR+H2Zukiw+KyHP2MAuPKYshgJ/JyZTCP0sE0JbDE1HM/eXBHWV7VreEAACAASURBVD0aj6IKEIM+mHgobz2kd6IEY3y+3QBkhu+H0IcMMAxsJxIZoDLflA5QtwOJQFwh6SINOEEP0OmQhi9z7b5jMOhBVRKQIwooQO6Hr2gOson7ZRkDIGn+isnUjfExAtS+w6UqftaFjVsKYzAdqGI2vsf/sIsc294eja9odb/xeH3YkpsubLtL27Z5nEJJbtA7SQnapJPw4yaR98kn8V79Z4hqxy4bpupOKCKrOjVuNtdcU/jeQYAZjAZkXp5yFk48FYhgtjo5gUumQ90ZDMvPfoO/n1W2Vvofrj9K7AD9OL1Jz98tQgefQBx1kBoxGfRhzeGoeiCQ2/O1ZaHeDxifuEgL8c3008Ucz/zkfUAvFOJx1fhEazORkSaJMQGaX5qmrwTTth+q/VVgLL4S5vcS0NYeUR2AeR/gemAhiUmOryyc6odgPgDc6t1PAQYtqX3W0YO/H26x1FK0RaLmCKA26FEIb3/WarnkDMsyGnuGJiKmJTQdB+ORArjBQAaYTyO3RAlL7+AwK50TpYpE0nNbprhMMbpOJTEfhzpmEsNgNnTbZ2woh9ZsgkKqtMYHBJdA+iN9KkkaNriOyMF6yInMpJsjoKEzDIEBmX7J1hih7/uVVCOSLhhpVmQyhJFyXM7xcvJJQCd9uPYL/eg7IxEZljF872eioSAWU9Dc0oueaEzPn4HFpbVkFPVJKvMddyacouXnSdtRcMrh5FzKGCgmq9uiZD4za52Iu2TwPAy6Yf6p50w2n9yqaTcAjeTgkMbW8ZbguoR0PNxiMLsJDB1XJAUyiw8ex+WrS7BKUsjZ8dbNKThG2oRjszwTgPyAD4GghIAgqCeXGdLxMO5cOouHZLeISWb7nvHDhZkmVVJMMfchhyWecbmpKKpEZnTANSn+QQh1y4jKCrq6oujoihpiNMY3sru6cgDJ7Qbhedkl4eWz+v7fyfr5LwunxmEJnxpIVtSAkDxyQKIUZewYZHGN/807LlcUn4gJxMHRtc8yuT9wuM+KYGXiIiwngYG9q+k8TTdDgd02Kf0cVurTtoCaZ2N3FFJvDD7GIIlCvI04m1ju5dUGJE/nRvyceIyTC68aMqdjcCMKQ2K9zzFdJ6vECD1RWT2R3aA60CNz8Fvg4LPIy+XiPB13/rUpr5OR6ATj9CA1p7pVADDD5nXRcIhxRAYYU69FFMAvqBvbfYJ6qLFmAdQtgZaNC2cjgN65tdlxAGdkqu9hcw/v3APZveYgafF3NvVdQR9F7nk7GE1MPmF25eaPsKkrxpgWfh1xPVLC80gmRAFEQUCP7Byp12jR1TI1SmvqMXoWxgMrkkhIYzrjVIbZOdYpyrGsmNxPmB0f8jJwYdNtknfxUdPzExC3Ltu99ynASQo7e4rhpKjWlL0UkbXOpBGarB5mDCKV5PzxMz4hJy4hEDcUGEGAKUa/VTn4fbzDD7H1U9cZDcRQ4ABuKOASm6TIYKD4En2gSwwFzo63hPjhv06rIz10Di+nRWJJk2BiCZOOVTtpVnDSIj7qOjVuHZUtCA2AyWhiQ5h6VBIudenvaZEf92uTFUAQTPVsWx1aHzPu+7S1/iqk1odb2xnr1fa9ba6fYLI7PUiNLxf6XCdNN6ARmaJ6a/OGp4gc78wxxeRrqQ8q47XExtKlJDIcEGJRNu664OSbZ1hO9LnfLlSRTH0Gdx84kShZlNdYJEOo7ZgggojFyTnREpwIF+U6WdUVEJ8E7OrDkM4YvrqPVRqwJjGDBCkIGlEDKnuT+exMU5nskCAlWSZJIDt92W0FganfSRaHgDqVgev2tHLbu3Mw5/cB4m1wiiQxN5wepKY4iNKIExnfJmU0dzP9CLOEAWLleAtYDx446BeY4cdFMWs7I9ptZdHM7QMNs2x/1p/2aE7sPM1QdXKeTzKDyyEPW7cFq7o0OlrzFZ0igvv061ZuLngls9UISMpVx7J9nIJWGKUj7vvk1sbMYanYX3CePwlS10BwepCaC0hWdMuUPgNzZ9sYaU6SMA9eo67HztqXOOAFB5Jw6ZO2Ole3zswH90Ba2oEULPdPJqa3K7OLTkdvA1s9IK9HF8nW+KexnjRJTxQUmBRRxggppvdjINJuMunmKLnllJv0wydJIn0pCqcYDjw/7hgOxFcDdtItoCv1mejQD92g9ScGZpaEk0UykuAgcXqTmuZRySRBc+mIW4VUQlNUPy+ZwHx9JTV+ihSTbAa5oP1wn63BeO47kaHbgGEYmKHA4ayERP7yKXLSsf8drXuaFGSr8yHtP34wtA0SdXJWyy1Z5utYTdLhujoFECCDGfYwq9IRqVZxgWlSMEtiUiHXNiLtuSZJyin4JkE1VBHiLkcM9kYOrV45CTn6lhE5Ew+z+d2qjHb5n2Dp7vQmNU0xr5KXGL/GdToE3aOcIop5w3rC0svSw94o0TmFHnLTPw0Q+hJpaOJ2JmRu/jMqiCDuc8V91Qayk8CgzLYE0/5LJn/jYDaC14vVRCOpA1pRRE06AwSKxY054DopLb2bygCAW7BFJmoOvYqNzs4IrlPTI3e4L2/VIpO66kiGUFzcSvQYdXb5DUSCG0Kc3qSmWa9UcVyL4a8dl8cHAhMFtZEkpgUIVHcb6DWnH5sHe9GfW8nslN/JSGp2cLiX8QEw0A5ms/y0dQLWnVQpLjn0F8aj45zK5ZQ/Ie4SwSx0a3yZxneTGCuQ58kAprmEKEzSpSImGN7PyZCik52bXtJMDPxv+z2VpJcl/rdLPRtisyXVF3g6K8MVX6WchGXkQHF6kxqgkpnuUAnoBgOZu3ZoPUJRlcUUU/Rllr6RnevbnPqWrX6pH2XtZycaygNWbGGUXLnl0C6IfxJ5cd3XoCKKJHOr7mirped+ZKYyJ2TEDJe1QAHuZUmiMEyVfoxLxEEZSQYKAw87Ga6MMeqsEzhLeicapzep8bFn2BJFIN1pUz2qTbBu3AQysuzfumUK8c6dmBXvQA4dwfLsgyQxYMtnf6VHpunVRBjeuf/PNG2UtkISRJ14vqVVHYgGdw3Sd6ubJze+/NRf0CAcGc+wsJbQk6t3YxQQo4Owfbtx0mOqrxq0sjttLDeSsVv1cXWF05Y8vc86pDmFGP6kxq1CVuBEIzA9yikDA9MCHXJjAXhEBg5NBDdlZdUJjOI71+HYldFBD+GogHeY1Xnk15PVyaKCqLm3MPetTXbgS0Y78tKcpR1dJLQjAblLi7WRQHPX4IdMGPuJrPmoaYYCBoIAWXe+1cnHQMJ27wHGy2xdVl0vxa2fujOvnU4BcWKXhLjBxKGd9WjOksuSMUkJkbm1r11fHoyapR8Y/qTmGKOM6UsJiqqnXhNpfmpE8VBDCZ7+pM1k3EeNiehLdHonY7ruxv78S+dBaguCc2fmusGB6tWSuce4ZCHDNadnOoTaAVyky5jWFsm8E5fUrHRD+nkQWiKBmYIJGA0FBAaFiXpsOkedkxG8bWJkSwImomGIh1yymDhNZVeUuP+li2KeaftUXQ0FSZKOTr52z/QktRMMt9ObBEA/vVrrtLzj6rGiEjqvUXIynRtg7Li6NMI7nZ20aPjsb2dwmVlNLgL9zdt2+ws0ojCUwaiX4su4gYQe1/J31adZnQVhKntClpbqA+39jJIaJxJGZuOBNvHp+1z1OnUpp9OSMKFsTPsHkZNQ3/dQbzCUW/90KYdx4klGUnNKY6x3W1I7easDK0gjJCF+kvRwhOj8bjw8S/wIM/6F0bxpdSPiAzpBv6CEAJYCIKJ9JwHUo34yCaDEQ+mTGSAD0F+Q0eqlpZNlWT8E11l34pRx3+dygUHVRWlLM0pIYCRwp7xtEqmHjsT3X3KkKQLCggLSfu8hBQoD/IrqeuCXGcISwReFfqKULwZERIIkM+0awR9jCEGBn9TnR5l6UEtYJEgayURFIFXLJyYAKTLQLRJSZQaFATIjpCgMHUoUGcwHkYAQyZAgIEQxpDEJUa3S/dq1VCYiphAUEAKCiG45hgATIRNBBiHABIRJhp8J6nzRQwj4BIR7Ffg04oxGCYGAgN4eBaLE0NsjIy1NQrhHVmMaJjOxJU5MDulM3T4xqe2tJ4fs2P62EJ2IMyFPa3CXD+O5BbLh9xPhN5YkdBInUkfmUOULQ9hpXaPeJ9EJgUiAzAy/A6qkrT1PIEAx/E0MEBSV3BKvyYxM13jeTBPkFO0a8Xu07wUDbwgAZCJImrzHDcMyEUQe1BGAwJh6TUtHIP2aoFEGGdLxQKykEESBQdbUCwyAohBEkUHWVhuKHP/7dBvejIYsXrYHDx48nHoMf52aBw8eTit4pObBg4dhBY/UPHjwMKzgkZoHDx6GFTxS8+DBw7CCR2oePHgYVvBIzYMHD8MKHql58OBhWMEjNQ8ePAwreKTmwYOHYQWP1Dx48DCs4JGaBw8ehhU8UvPgwcOwgkdqHjx4GFbwSM2DBw/DCh6pefDgYVjBIzUPHjwMK3ik5sGDh2EFj9Q8ePAwrOCRmgcPHoYVPFLz4MHDsIJHah48eBhW8EjNgwcPwwrSicg0FoshEong8OHDaG1tgyzHMGbMGGRnZyMlJQWC4HGpBw8eTgyGlNRkWcaWLVvwxhtv4I9//CMOHToERVGPI/f7/Zh15ix8/ZavY8GFCzC6bDQYG7oTwj148OABGOIT2l9b/Rruu+8+VG+vhiRJKC0tRdGoUejt7cFnhz5Dc3MzFEXB0suX4nvfvR3z5s2Dz3dChEUPHjycphgyUnvrrbfwrVu/hUMHD2H8+PH42le/inPmzsHI3JGIRqOoqanB39etw29/8xsoioILL7wQP//FL3DGlCmnRGJTFAXNzc2QJB+CwSAkSRx0ntFoFJ2dnYjFYsjICCItLbVf94fDPejoaEdXVxfy8/ORkZFhWzeyLKOlpQVEhKysLPj9/kGX34jGxkYQETIyMpCWlmabLhKJoLm5GdFoFFlZWQgGg7ZljkSi6OzsgCzLyMgIIjU14EnrHoYeNARoamqiadOmEWOMKsaModdee416enpMaWRZpo7OTrrrhz8kSZLI5/PRf/7nf1JHRwcpikLPP/88jRkzhsrKyhx/vva1r1EkEiEiIoWIVq9eTWPHjnW8Z8+ePaQoCvX29tLatWvphhtuoKlnnEHFxcVUXFxMM2fOpNu+fRsdOnSIFEWhT7dvp4svvti1LNdccw3V1tbS/v376Xu3f4+mT59OxcXFNGrUKKqoGEO33PJ12r59OymKYlt3vb29tP6DD+j666+nsWPH0qhRo6iwsJDGjBlDy5Ytoy1btpAsy3r6vXv30sp7V9L0adP0Z5WWltIVV1xBO3fu0tMqRLRx40aqrKyk2bNn09tvv23KZ+vWrbRkyRIaPXo0ff7zn6fOzk46evQo3XXXXTRjxgwq0fIuKSmhFStW0O7du/X7w+Ewvfrqq/TFL36RpkyeTKNGFVNRUREVF5fQsmXL6N1336VoNKo/a/fu3XTnXXfRNEOZx40bT7feeivt3LnLsX48eOgvhoTUnn76acrKyiJJkugb3/iGqUNb4YIFC4gxRueffz7V1NSQLMv0q1/9iiRJIkEQKD09nTIyMkw/giAQALrqqqt0UiMieu6558jv95PP5zPdFwgEiDFGAGjHjh2kKAr98Y8vUEFBoZ52xIgRlJGRQZIkEQCaPXs27d69mz7+5BM6++yzLfNKS0vTry9evJg2/9//UW5uLgmCQKmpqZSZmUnBYJACgQABoKlTp9KmTZtsB+6xY8fouuuuo7S0NMrMzKScnBzKzs6mtLQ0/Zm//d3vqbe3l6p37KA5c+bodTRixAjKzMwkv99PAKioqIhWrVql18+7775LwWCQRo0aRWvWrNFJqb29ne74/vcpLTWVJkyYQDt37qRPP/2UFly4gCRJotTUVD1v/u6SJNGbb75JkUiEampqaNq0aeT3+ykYDFJ2drapzGPHjqU/v/46RSIRqq2tpXFjx5Ioin3qhzFGs2bNoo8//tgjNg9DhiFRaO3ZvRs9PT1IS0vD5z73OVfr5he+8AV8uGEDtm7ditbWVowePVr/rrCwEHfeeSfy8vNN93zn299GQ0OD6RoBqD9+HESEhQsX4gvXXov09HQAwIcbNuDpp59Gd3e3nv7ss2fjoosWITs7GzNnzcTostFobGrCW3/9K1atWoVt27bhl7/8Fe688wf40Y/uR1t7GwBg00cf4Xe/+x26urpw7733orSsDIwx5ObmYvLkyVi+fAWOHj2CefPmYeKkSYj09qJ6RzV++ctforq6Gi/96SVMnTrVchk3IisLS5cswfjx43HOnDkoHz0asVgMH364Ef/zP49i//79+Ol//xe+cM3VGD9uPBZffDGKR43CpZddhtHl5YhGInjvvX/g2WefQUNDA1555RWcd948FBUVWtZ9LBbD66+/jt8/8zSycnLwk5/8FOPGjUNPTw8uvuhiZAYzcfHFizFx0kQosoyqqir85je/QW1tLX78wAOYOnUqysvLccUVV2DJkiWYM2cORo0qBoGwbdtWrLxnJWpqavDnP/8Z55x9DkaNGoXLP3cFamuPYt68eZgwYQJ6enrwyZZP8Pvf/R5btmzBr5/6NR55+BEEg0HHfuPBQ1IYCmZcsXw5CYJAubm5+lLPCe+88w75fD4CQOvWrTNJahMmTKCampo+91RUVFhKavfffz/5fD667bbbqKWlRb/+/PPPU3Z2tklSIyLat28fhUIhU96NjY00ffoMYozR0qWXU2Njo+n7P/3pT5Sbm0sAaNu2baZlHL+/s7PTdK2rq4vu+MEd5PP5aOLEiX3yNCIWi1EsFjNd++yzz2jx4sXEGKOzzjpLz7+xsZG6urpNaXt7I3TrrbeR3++nGTNm0IYNG0iWZUtJbePGjTRz1kzKzMyk//7JT6irq0vPp6GxkVpaWk3tFwqF6Nvf+Tb5/X4aN24cvf/++33KytHe3k5nn302+Xw++upXv0p19fV6vm1t7aZ8W1pa6LZv30YpKSlUObmSGhoabOvHg4f+YEgktbT0dAiCAEVR0N7e4Zo+FArrvw9Wwd3R0QEigt/vhyi6K/tLS0vx3nvvYeeunWhtbUVYK0tXVycAoKcnjK6uLuTm5iatxM7KysLHH3+M7du343jDcbS3tSMWi2Hbtk+hKAra2togy7Lt/bzcr61+DVWbqhAOh7Fnzx5UVVVh3LhxuPvuuxEIBAAAI0eOxJ49e7D+g/VoaGhAW2sbiAg7d+6AoigIh8MIhUKm/Jubm/Gzn/0Mq1atwp49e7Bn9x58/vNXY9kXv2iSHkdkZmLPnr1Y/efX0NTUhKbGJiiKgt27doOI0NPTg2bNOAGoxor3338f69atQ0tLCw4cOIDdu3ejclIlrrzySuRkZwMAMoNBbNu2DdU7qlFXV4e21jZEo1Fs3bIVsiyjtaXVsX48eOgPhoTUCgoK4PP5EI1GsW/fXpx55ixbQiAAO3buABFh1KhiZGVlD+rZbe3tAIDU1FRXUjtwoAZ3/uAH+Pu6v6OntwekkGmAEhEURdF965LFypUr8atf/QrhcNh0f3/zenvd23jmmWcQjUb18iy4cAEmTZoEQRDQ3t6O++9/AM899yy6urosn6WQor8TR29vL95//30wxnSL5syZMzBq1Ci9nUKhEB577DE8/vjjaGlpMeVNRDrpkOF9ZFnGhg0b8MQTTyAcDkOWZfh8PkyqrMS4ceMgSWr3evChh/D4Y4/ZltmDh6HEkJDa/Pnz8dRTT6G+vh7P/+EPWLRoEQoKCizTtjQ343+feAKyLKOychJGjMgc1LMPH/4MjDHk5+fr0owVQqEQXnrpRaz9+1rE5Bi++93v4vx55yM/Px+MMdx111147733+v38F196CY8++ij8fj++8pWv4D8uvQzFxaMAAtasWYNHHnk46bzuvPNO3HTTTSAi7Nu/Hz975BGseWMNDtYcxJo1b6KqahNeeeVlNDU1Yfny5fjCtdeiQCv/+vXrcc8991jmO2LECFzyH5egvLwc699fj3/+85945plnMHPWTMw/fz5EUcSHH36IJ598EvX1x7F06RIsX7ECZaWlYIzhL3/9Cx566KE++UqShOXLl2PJkiVQiHC8vh73P/AAXn31FQgCw0MPPYT316/HI488AkkUccMNN+DixZegpHgUZFnGqlUv45e/fLLfde7BgxOGhNTOO28eFi1ahBdeeAEbP/oIDz74IG655RZMmDBBNxp0dXWhuroaP33wp6itrUVWdjauu+46FBUVDfi5oVAIB/bXIDs7G3na4LZDd3c3Dhw4gFAohAsWXIB7V96L1NRUEIDenh5Eo9E+Ek4y+Md77yEajWLy5Cn4f//v/2Hy5MlgjCEUCuFvf/ub6/2xWAxdXV1IT09HaWkpSsvKAACzZp2JrVu2YteuXThy5Ah27NyB6mp1+ebz+fDAAz9GWVkpwBhi0Rj+8pe/2JY/PT0dy7+yHJdddhm2bt2KG2+8EdXV1fjFzx9FRXkFSkpKcOzYMTQ1NSE1NYAnn3wSxcXFIKjS2DvvvKOK2Bp6e3tRV1+PUUVFqKioQHlFBQCAAdi0aROqt29H9Y5q1NbWYsMHHyDS24upZ56Fb3zjm5g69QwwQUBXZyfWrFnT7/r24MENQ0JqKSl+rLz3XjQ0NuLtdevw5JNP4pNPPsH8+fMxcqTqfHvgwAG8//772LVrFzIyMvD1W27B0qVL4ff7IfdzCdLR0Yl3330HGz74AJ99dgiVlZUoKS52JLVAIIDs7GwwxrBv7z6sXr0as2bNQktLK9599x18/PHHA1oKlVdUQBRF1NUdw9q1fwcAKAph7dq/4eVXXkYsFnO8v76+Hv/zP/8Dvz8FZWWlKBs9GrIsY/++fXj33XcQiUQwalQxCgsKkZOTg/T0dIRCIbzwwgu4bMlliEWj2LSpCr/+9a/R29vrWt5p06bh9ttvx1133YW//e0tPPxwKX76058gMzMTwWAQra2tePHFF3H55ZcjEolg06ZNeP7559HT06PncfDgQfz85z9HaWkpxo4bi/y8fERjUdQercWbf3kTkUgE2VnZSEtPQ1lZGURRRG1tLdavXw+fT0JMlvHBB+vx+uuvIxqN9rvOPXhwxFBaHfbs3Us33HgjZWZmEgBKSUmhzMxMysjIIFEUCQClp6fTypUrTdbA/lo/9+/fT4sWLSKfz0eSJNHNN99M7e3tpvSJ1k9Zlumtt96iCRMmEGOMCgoLaPLkyTR27FgaOXIkTZkyhURRpIULF9KBAwdMljon6+eBAzU0deo0kiSJ8vLyaPLkyTRpUiXl5uZSYWGR+qyCAqrXLIGJqKqqovLycgoEApSVnUWlpaVUUlJCmZmZJAgCpaWl0QsvvEDd3d20f/9+uvzyy0mSJMrMHEGTJk2iCRMmUHZ2Np1xxhkkiiKNnzCe1q5da2v9JCJqbW2lH/zgTgoGg5SWlkZP/O8TVFNzkK5fcT0FUlIoKyuLpkyZQpMmTaLc3FwqKysjUZSopKSEXn31VXryyScpLy+PUlJSaGTeSCotLaXikmLKysoixhiVlpXR0888Q13d3VRTU0PTp88gn89H+QUFWv1MosLCQiosLKT09HQqLCykurq6QfU9Dx44xPvuu+++oSLI3NxcXL50KS655BJ0dXej9sgRtLWp1rmxY8fipptuwh//+AKWLLkMGRkZ+n0KEerq6lFbexSTp0zGpZde2sdn6cMPP0ROTg7OOusszJgxA2+uWYOagwdx5ZVX4ic/+Qny8vJMktqxumM4cuQIioqKsGLF9QgGMzB27FgsXLQIoXAItUdr0dbaijHjxuKhhx7CqOJi9Pb2Yvr06ViwYIFpi1JdXR0+++wzFBYWYsWK65GZGd8KlJ2djRUrViA9IwP79+9He3u7Kol+4xu4fsX1aGxsQOXkSlx15VWWOr/c3FzMmTsXaWmp6An3YO/evejq6sKooiJcfc01ePaZZzF//nz4/X7k5ORgwYIF6I30oq2tDU2NjcjKysJNN9+M7/9/38fBgwcxftx4LFy4EIVFRejo6MTu3btRMaYCF110EUo1HVlKIIAJEyagq7MToijieP1xXHjhAlxxxRXIyAyisaEJtUePIi0tDV/72tewfPkKtLQ0o7y8HBcuXIjPfe5zOOus2RBEAa0tbairO4aecA9KS0px/Q3X44knHscF8+cjJSUF2dnZuPbaa5GaloYD+/ejvq4O2dnZ+Na3bsW1116L9vY2TJg4AVdccQVSU/u3rcyDBysM6YZ2D6cOChEEbx+lBw8eqXnw4GF4wYvW6MGDh2EFj9Q8ePAwrOCRmgcPHoYVBIKnUvPgwcPwgeBxmgcPHoYTBC+csgcPHoYTPJ2aBw8ehhU8UvPgwcOwgkdqHjx4GFbwSM2DBw/DCh6pefDgYVjhhB+PHolEEAqFEO7pHVAQRg8ePPz7gzEGn09CIJCKtNSA64lzg8GQkxoRobe3F01NTTh27BhisRiCwUz4fL6hfpQHDx7+jaAoCrq7uyHLMaSlpaO0tATBYCYkyf3ApP5gSKN0yLKMxsZGtLS2IpCSgtyRecgMZiR9KpMHDx6GPyKRCBobm9Da2oJgMIiRI0ciLS1tyHhiyEhNURQcPnIE0UgE+fkFpkCKHjx48JAIvqLr7u5GQUEhMjMzMRSUMWSkdvjwEUSjEZSUlCAlJWUosvTgwcMwR0yW0dDQgPa2dowZUzEk3DEk2rqW1jYcqzuG8vJyj9A8ePCQNCRRRFFhIQRR0HXwg8WgSU1RFDQcr8eYijEn1KLhwYOH4QnGGMZUVKC5uRnd3d2D9pIYNAt1dXWDCQKyskZ4OjQPHjwMCD6fD9k5OWhra4Msy4PKa9CkFu4JIy01FaI4tGZZDx48nF7Iz8tDOBwe0Pm7Rgya1Hp7euD3+72lpwcPHgaFlJQUxGKxU09qfP3rLT09ePAwGAiCAFEUoSiEwajVBk9qg83AN2xMAwAAIABJREFUgwcPHoYQgyY1Tz7z4MHDvxI8RZgHDx6GFbzlpwcPHoYVvOWnBw8ehhW85acHDx6GFU45qUUiUbS3t6OjowPR6OD3ff07IxKJoL29HZFIZFD5xGIxdHZ2oqenxzFdNBpFR0eH67aUrq4utLe3e0E+Pfxb4IRHvrWCoijYt28f3nrrLXz00Sa0t7cBYCgsLMTFiy/GlVdcgfT09FNRtH7hgw8+wOrVqzFz1kx88bovmgJhtre347HHHkN6ejqWLVuGESOy8NwfnsWG9R9AEEUsWbIEn//85+Hz+XDs2DG8sWYN3nv3PbS3tyE9PR3nnnceli1bhqLCQmzcuBEvvfQSotGoZTlmz56Nr3zlK4jFYvjb2rX461/+gmPHjkGSJEyaNAnXXnstzjzzTN1Bur6+Hi+++CKqqqrQ1taGzMxMzJk7F1dccQXGVFSAMYZYLIbq6mq8+uqr2LZtKyKRKAoKCnDNNdfgwgsvREZGxkmpYw8e+g0aJA4eOkT19fX9uicWi9HTTz9Nubm5FMzIoJKSEiovryBJkigYDNKPfvQjikajgy3aCcfvfv87yi/Ip/z8fHrxpZdMZa6rq6PZs2fT4sWLaffu3bTy3pU0fvx4evjhh+n73/8+VVRU0Ntvv001NTV01VVXUTAYJEEQqLCwkARBoNTUVLrui9dR/fF6+tWvf00ZGRkkiqLlz+23307hcJhW3nsvjRw5kjLS02nq1Kk0efIUCgQCdM6cc2jjxo2kKAp1dnbS9TdcT8FgkMrKRtPs2bOppKSE0tPT6Qtf+AIdOHCAiIg2btxIM2bMoBEjRtC4ceNp9uzZlJ2VRfl5efT4449TKBQ6VdXuYZgiGo3Szp07qbs7RIoy8HxOiaFAFEVcsGABVq1ahX379+Pw4cPYvXsXfvvb3yI7OxsPP/QQGhoaQUSIRCJobW1FfX09jh07hvr6erS3t+ubXokInZ2dqKurMy3beiO9aGhoQHNzs55PS0sL6urq9Hw6Ozv1LRmyLKO9vR1Hjx7F1q1bUVNTg6amJsclHBFB1uJB/fiBH2NTVZVpM66iKJC1/Fe99CcsXLQQt956K+6770coLi7G6j+vhiiKKCstxZe+/GXs3r0HR48exYYNGzB37ly88vIrOLC/BnIsBr/fjwcffBDhcBixWAxNTU346te+hkAggFmzZsHn8+GlF19EQUEB/vzG69i6dSu2bduK22+/HVu3bMXatWsRCoXw/vvv49VXXsW5556LtWv/hqqqKmzbtg1XXHkF3nrrLezevRsA8Mqrr6K2thZ33303tm7dgqqqKrz8yivICAbxxxf+iKNHjw6g5T14OPE4ZTq1ivJyLFy4EAUFBWCMISUlBefMmYPy8nLIioJYLIpoNIrXX38dV155JWbOmIHKykpMnDgRX1y2DBs/+giKoiAUDuORRx5BWVkZqqqqAKgRNV944QWcd955+OEPf4hwOIxXX3sNly25DJWVlaisnIzJlZX41re+hU8++QSyLOPIkSNYvmI5zj77bCxcuAjTp0/H+eefj4cefhhNTU2O+qTMzEwcPFiDX/z856ipqbFMO3bsWBysOYjt27fjww83oL29HaNHj0ZBQQEefuRneOLxxzF+/DiIoohp06bh7LPPhiAI6OkJo7i4BAsWLMDo0aP1JeSuXbuw5o03MP+C+Tj7nLMhiiJCoTDy8/NRVFgExhgEQcD06dMhSRK6u7sRi8UQDocBAKNHj0Z+fj4YY/D7/SgeVQwgvu2tq6sTKSkpGDlyJHw+HxhT1QPFxcUIdYcQjVkvhT14ONU4JTo1jmg0hjffXIPGxkbIsozt1dU4ePAgbrzxRhQVFelSUEXFGFx11VVIT09HdXU1XnrpJTz6i0cxY/p0y+ggO3bswBOPPY7Kykp873vfg8/nQ6S3F5MrJ+Oaq7+ArKwR2LZtG/7w3HNISUnBAw88gIxgEGdMOQMXLboImZmZ6O3txaOPPopf//rXmDZ1Ki6//HLbSCRTppyBivLR+Otf/4pHHnkEDz74YJ80D/z4x3jkkUfw0EMPQSEFixYuxIrlK+D3+037ZomAQ4cOYfPmzSgrK0NRURHOPbcCCxZcgJSUFL0Mzz77LMLhMC5adBFKiksAAF/+8pfx6muv4NFHH8X06dPR3d2N1atXIy8vD+eccw7S0tJwzjnnYMbMmXj77bcxYkQWxo4dg88OHcIbb7yBuXPnoqKiAgCwaOEi/H3t3/H000+jqakJKSkBfPzxP3Hw4EFce+21yMvLH3T7e/BwInBKSa2rqxOPPvooPv30UxARQqEQghkZmKUptX0+H5YtW4brrrsOOTk5EAQBBw8dwoGaGqxb93f09PSYDAp8eXn33XejNxrFN7/5TYwdOxaSJOHqa67BkiVLkZOTDUEQUFdXh61bt6K6uhrHjx/HtOnTcffd9yA1NQDGGOrrj+O3v/0turu74ff7Hd9jxIhMfPs730FjUxNefPFFlJaVYsXyFaY0M2fOxE8ffBANx4/D7/ejpLQEWSOy+gQCaG5uxn33/Qjbtm3DbbfdhpKSEgQCAQQCAT1NY2Mj3nrrLZSXV2DOnLl6+caPH4+21jY888wzSE1NRTQaRU9PD2affTbKy8shSRJycnIwubISm6uq8MQTjyMlJQXdXV2QfD4sXLgIWdnZAFRJLjs7Gxs2bMAnn3wCxhjC4TAyMjIwduxYZPwbGHI8nKYYrHJvIIYCDkVRaO/evbRt2zbasmULrVq1is4880xKTU2j9evXkyzLtHffPrr11ltp3NixlJWVRZmZmeTz+QgAHT9+nLq7u2nlypUkSRKlpaVRMBikzMxM+q//+i/q6enRn7Nr12666eabafy4cZSdnU2ZmZkkSRLNmDGDPv74Y1IUhaLRKD311FOUl5dHwWCQRFGke++711Yp/tvf/ZZyR+bSpZdeSl1dXfTXt/5KEyZOIL/fT/fddx9NmzaNFl10Ee3evZv++yf/TbNmzaKpU6fqP1VVmykWk/X8Oju76OKLF1MwGKTbbruNjh8/ToqFxvQ/7/5PysjIoK9//evU3d1NRERHjhyhgoICqpxcSS+//DI1NjZSY2Mj3XrrrZSWlkbf/OY3qam5mZ559lnKysqi+fPn07vvvkvNzS20adMmWrZsGeXk5NBrr71GsZhMN918E+Xm5tJ3v/tdqqmpodbWVvrTn/5E48ePpzPOOIN27NgxoDb34MEOQ2UoGLSkNtAdBaTpbsaPH69fmzFjBj799FPs3LkTL774IoqLi3HHHXfg7XXrcP0N12PSpEqEurvx2muvYfPmzX3yPO+885CXl4c1a9bgH//4B66++mpMmDAB4XAY3/72bfhUU4hPOWMqIpEIfv+734MJ8TcQBAFz5s7F/Q88gM6ODqxevRq/eeo3mFw5GVdffbVjIEzGGC79j0ux95t7cf/99+MXP/85REnCyLw8AMDcuechKyvbFCsqL28kGIu7uHzve7dj48YPsWzZMtx9993Iy8vrI8kdOHAAv//d75GdnY0vfelL+pkQa9asQai7G9dcfTWWLl2qS3a33XYbPt3+qeq+0dqKVav+hLS0NNxwww2Yd/48+CQfzjnnHHxp2TKs/dvfsGbNGlx44UK88fobmDx5Cm686SaUl5er73fppfjkk0/w6KOPYufOnZg4caIXHNTDvxxOmZ9adXU1jh49igkTJiI3NxcA4dChQ9i1axei0ShGjhyJtrY2fPbZIUydNhUr71mJvLw87NmzF++++65l/LZ77rkH8+bNwx133IGnn34aTz31FO6++26IooiqqipcdNFFuPvue1BaWoq9e/fi+T88p9/b3NyMw4cPo7y8HDfdeCO6uroRCoXxs589gi1btuCqq65KagB/4xvfxPHjx/HYY4+hvaMDPDDUggvmY8EF8y3rYvv27bjnnnvw9tvrsGDBAtx0003o7OxEV1cX0tLSkJ+fD0EQIMsyXnjhBbS3t2PJkiU466yz9DLl5OQAjOFobS1qamowYcIEyLKMnbt2ou5YHQoLCyFJEkpKSrC5ajNqDtagtaUVeXl5aGtrw959+xCNRpGXlwdZjiErKwvNzU3Ys3s3RpeNRiCQgiNHj+LgwYPw+XwaaXqb5Dz86+GUkFp3KISXX34ZL7z4AirKx6CgIB9EhL1792LXrl2YO3currvuOozIysKUyVOwbt063P+jHyE7JwfV1dWoqqqyjY7JGMOtt92GgwcP4plnnsXkyZNx7bXX4ty5c7F582asvOce5BcUYO/evaitPYaSUlXJ/uabb+LJXz6JsWPGIjNzBDo7O/CPf/wDeXl5mDdvXtKRfVNS/PjhD3+IxqYmPPvMM67pm5qa8MT/PoG3335bdTtpbcXKe+/V6eLcc8/FnXfeiUAggNraY9j40Ufo7e3FsmXLTLq++fPnY+6552L9+vW49dZbMXHiRMiygqqqTeju7saXv/xl5OXn48tf/gr++X//xB+e+wP27d2HvLw8NLc046ONH2FUcTEWL16M7Oxs3HLLLfjFL36BH//4x1iz5k0EAgEcOnQQm6uqsHjxJZg+fQZE8ZRvSPHgoQ/E++67777BZNDe3g5JkvrlYS4KAoqLi1FUVISDhw6h5sAB1NTUYNy4cbjllltw++23Y+LEichIT0dlZSUAYNOmTWhpacGMmTMxe/ZsZGVn4ZprrkFKSgqampoQiUSwdOlS5OfnIzMYRElpKULhEOqOHcNZZ52FOXPnoq2tDbt27UL98XqcddZszJo1CyUlJZh//vmYMGECWtvasG/fXuzbtw+hcAhz556L+++/H+edd56lsaClpQUdHR2YPGUKFixYAElS5wi/34+pZ0xFuCeEcePH49xzz8WIzEzLuujq6kL1jh0IBjMwfsJ4ZGRkQJIk/aeiYgzmzpkDSZJQvWMH9u/bh3PmnIOv3vxVpKWl6fkEg0HMnTMHRaOKsH//fnz66XY0NBzH1KlTcccdd2Dp0qUIZmSgpKQEM2bMQEyWsXv3bmzevBmipPoN/uCOH+D/Z+/Oo+O47gPff6t639HobjT2nQQIgAsILqBIiiK1mpLtSLYjO3ac2MlkcZxMMifLTLaXM5NxcpLMxJM859myPbEtx7Ysa7VsrRQpkqII7ivABSSx7w2g97Wq3h8NtAgC3ERIpFv3cw7OIaurbt2u7vr1vXWrfnf9+nXZ+i9fzoqVK5kIBDjT1cW5c+cocLv49V//In/w+79PRWWFSOEuLCpVVZmcnKSgoGDmNqL3Vs4tTWasAb29vVjMZvx+/81vr2nz7umSJGle1/Ly9WZf0zQtd1LNvn7lSTbbmptdfnnr7vJ9XF7mlfW51ok7u/5CdZ59/cp9XauchVxe9vX2d7WyJFme11GcXW+2PGbKvHK9K1vE19q3INyKTCbD+fPnqaqqxmKxvOegdkvdT4lbu6pyoyfIQutdGZQWKufKgHS9lsXNnrDXW/9Gy7qV4/B+lgXXP2aCcKcR31hBEPKKCGqCIOQVEdQEQcgrYo4CQRDyipijQBCEvCK6n4Ig5BUR1ARByCsiqAmCkFfEQIEgCHlFDBQIgpBXRPdTEIS8IoKaIAh5RQQ1QRDyyi0nibzVgQJFUUgkEoRCYXbseIPa2lqam1swGg2YTCaRJUIQbtCxY8e5eOlSNoOx18uaNW3oDQa6uy/Q3X2eYDCExWJmTVsbZWXlmM2mvEsjpWnarQe193pIVFVlfGKC8+fO0T8wSDKZZGRkmMnJSc6e68bptFNfV0dtbS0Oh+NWqykIec9qteByuejv72dwcIAVK5Zz+vRpOjs78fv9VFdVMTkZ4Pnnn2ft2rVs2LDhujOl/aKRJOn2TZEXCATYseNNDHodTU3LMJlMHOg4QHl5GZWVVQQCE+zv6GB6epr29nZMJhPxeILu7vOMjo5iMplxF7ppWLo0GwjPnp2XHNFqs9HS3IymaXR2djI5OYnJbKGivIyampq8+5USPtyWLl1KXV0dHR0d9PT0AFBfX09NTQ1erxe9Xk86nebZZ59lZGQERVHmbD85OUlf/wDVVVUUFLhIJBKcO3+eQreb0tJSJEmiv7+fWCyG3eFgcGCARCIxrx4rV67E5XLdtvPrtnQ/M4rC+e5uMukU9257EL/fTyQS4bjZRGFhIXV1tdTV1WIymdj3zn5qa2spLPTw4osvEIlEKC4pYToYouNAB0ODw9TV1TA9PZ0NXl1deLw+irwe0uk04XCEn7/8czLpNMUlJUSiUU4cP8badetYu3YtOtG9FfKYb2Y2s1l6vR5Jp8dknN/1nJyc5MiRI7icDgoKXCSTKU6dPEVNTTUlJSVoQE9vL+Pj4zQtW0YoFCIciTA4OISERnFJCQa9fl6w/KDdlu5nJp0mMBHA5/PhcrkWLleSKCkpRa/XE4lE6Ow6w+DgIL/xG7+R26a3t5efPPMMJSV+Hn74YSRJoq+vj9qaarZs2YJOlnnhxZ8SDoX47Gc/S0FBAQC7du1i91tvUVFenvsFEoQPgyNHjjDQ18vWbdtyc2rM0jSNTCaDmuvxaCiq+m5Kd01DURSUTAafz0dDQwOpVIrXX38dgC1btmC32297yvfb8kSBpoGqqWSTkF/9zWuaCmhIkszY+DhlFVU4nU5kWUaWZaqqq3EXehkdG0eSpMsGFbL/zmQyDA4M0NzSgsvlym23adMmNE2jr7//qnMDCEI+SafTHD58mLfffpt169bR3NQ0L6hdnzQvjb4sy7lls+fX7QxomqbdnicKTCYjFeUVDPT309vbs2BgSaXS9PT0IkkyDoedTDqF2TT3oqYsSWTSKRQls+B+VFVDkiV0Ot38D0NMwit8SKRSKY4fP87x48dZt24d69ate08DBJLEvHPpjnO7BgpkWaa2toahoUF27dpFb28vbrebSCTC0NAQINHT28Po6CgrV6zA6/VSUVFBZ2cXg4ODVFRUIEkS58+fJx6LUlRUtOB+jEYDpSWldHV2srylBbfbnZs8WFNVykTXU8hziqJw4sQJTp06RXNzM6tWrXrPI56z3dPr9W4GBgcxGAz4vN7bckvWbbtPzeVysW3bNkZHxzh69Aj9g0MEgyGi0TiRaByX084jDz+Cz+fFaDRy14YNTExM8Pzzz1NeXk46naavr4+VK1fS2NCw4MGTZZm7797Mj59+hqeeeorS0jLC4RAjo6OsXbeOkpKS6wa1ZDKFLMsYDO8eqnQ6TSwWx263zZm1PRwOI8syNpttThmBQACHwzHvyzQ8PIzf759Td1VVmZ6exu12z6lbIpEgnU7nrlnMrhsKhbBYLJhMpty6iqIwOTmJx+OZU3YqlSYcDuN2u5Hld8uOJxKkU2kcjnfL1jSNaDSGrJOxWiy5dTOZDLFYDKvVOqf7kkwmicfj80a9wpEIAHabbc7yUDiCQa/DbDbnlmcyGWLxOFaLZU7ZiUSCTCaD1Wqd834i0SgSYLVa55Q9EZjEYbdjuqxlr6oqwVAYu80257NMJBIkk0kcDsecskOhEHq9fmaqtnfLDgQCuFyueV238fFxCgsL53wfMpkMkUgkd8nk3eMaRZKkOfVWVZVgMIjNZpvzPUmnM6iqitFoeE8/wGfPnmX37t2kUikymQznzp0DwG6309bWRnl5+Zz3nYjH2L1nL0ePHSeVTDE4OEA4HGZoeBQkGBsZwe0uuOr+UqkUL7/8Mp7CQj7ykY9guey780G5bfepzX6oNTXV1NRUE4lEePnll1myZAkrV66c9wFarVY++YlP0NXVxaWeHgxGI48++ii1tbVzPpQ1a9bg8xUhz2zv8Xj4rf/0Gxw4eJDx8XG8Xi/bt2/H7S68oXkFNU1F0+bPQ6ooyvxfLElC07LXDC8vW0Na+NdNWvhXbPbX8PJjoF5+wfaKdRdank6n5+1z9pf2SpqqkblixErTssERiTl10bT5616+/Mp6K8r8umWXK/N+iK52XFVVXXC5oihIMG+f2eOnXmX5wj/DCy1faNlCx3W27IUsNBK40Oc1W8aVr2madtX1FyJJEuXlFTgcDmw2Wy54XVk/q9U678egsLCQtrY2EokERqORdDqNvyh7K8js96+wwIXX68Nqzf5I6XQ6GhoaZgKvEaPRyOrWVixX/DB9UCRucTJjyA7xvtfJjAVBEGYtxmTGGiL1kCAIeUbceSoIQt6QEJlvBUHII7ftPjVBEIT3gyRJovspCEL+WJSBAkEQhMWQvX0le0HrVu6Jv+WgJssyqqqKZygFQbgl2fvxNHS69x6WFmWgwGw2k0gkb3u6EUEQfrElEkmMt5jtelEGCqxWG5FohHQ6fatFCYLwIaVpGqOjo7icrjmPmt2sRRkosFotmIxGAoFJ0QUVBOE9CYXCxOMxbDYr0lUeH7wRi/NEgSRRXl7ORGCC6enpWy1OEIQPmVgsxsBAP6Wlpe/58ajLLcrop9VqpbKikkuXLjE5ObkYRQqC8CGQSCYZGBzEbnfgdhfecqoiiUXI0jGrsNCNJEF3dzeJRBK/339LoxiCIOS3aCxOT28fNouZ0tJS9PpbT9yqadqtZ+m4UjgSpa9/AKNBh7vAjd1uQ5LkOfm7BEH48JlNo5ROpwkEAkxMTFBSUoLf71/UNEWLHtQgm0MqEJgkEJjI5lzS65FlHZIEqgaylM3XBSy4TJZAmVmGNnPx7yrLVO3dR7UWWqYCusuXzfx7dtnV6nAzy3L502bqlVt2jXpdbdmcbS8re6H93Wi9bmddb/YYfiB1vWLZTPVRyV6PmT0hFlx2WTkLLbvZel2rrrN1WIy6Xus4LOYxvFZdFVVDUTIomTR2uwOP14Ptipxut0rjfQpql0skkqQz6VyyQE2bPWDZb6wsgaLOBpl3l2UUDb0soZFdrpclMupMUEND0yR0cna92VagqmrodRLK7JwuZD8YvQwZVUOWJCSyB1evk1C0bIVkKftvnZwtY04ddFI2+F2+3pX1VzR0M3XVtGx9lPdY19k6SJfVVbdQHS5f77K6ZpNUvluHm6tr9vO5dl01QLq5ui702d5gXWfrMLueetnxum5dyZalXlaHOXWVJVSuUVey3xv95cdrZr1sUF64rqo2U/bldSVb9uz3cLaus8dL0m69rrPrLVRXNA3tRuqqaWhkv6+KOjc5qCxl6zCzBFWT5tdB09BdZT0kCYNej9FoeN8SSH4gQe29ujJr6Y2s9162uV3r3Ql1EHUVdc1Hd2xQEwRBuFmL8kSBIAjCnUKkHhIEIa9oiNRDgiDkGRHUBEHIGxIiqAmCkEfEQIEgCHlFDBQIgpBXxECBIAh5RwQ1QRDyhsQipR5SNQ0lk3m3YElClnUiM8cdRFVVMpkM6XSaYDAEaBQVFb1vz+AJ+UdV1dxcJDqdbsHcZ6qqoqoqOp3utjyKpWna4gS10dExjh8/hk6nR5YldDodToeDiooKvF5vXj9n9osgFotx/vx5Ll7qYXpqEkmWWda4jEKPRwQ14bo0TSMQCHCpp5fJyQCqolJU5KOhoRGbzZZ7aF9RFE6cPImmabQ0N2M0Gj/wukqStDhBbWJ8jNOnTnH3lnswGPSkUmnOnj3LyZMn+dznPndLEykItyaVSnHy5EkGBocoKyujbXUrXp8Pq8Vyu6sm/IJQFIWuM2cITExQVFSEqmkcO36cRCLB2rVrMRqNqKrK2bPnOHXqFO3t7bftnNdYxMy3JpOJ1lUrc7/8druN5559llQqTSoV4eSp0/T19pJOp6isqmHtmjbsdhvHT5wgGonS3r4eWZbZu3cvJSUl1NbWEolEOHz4MEuWLKGsrCy3r9HRUQ4cOMDk5CQ6nY4lSxtYsWI5aHDy1Em6z58noygUFRWxft163O4CRkZG6O7uZvXq1VitVgKBSQ4cPMCKFSvo7x/g0qWLpJJJCj0e1q5Zg9/v58yZM5w+fZpoNIrN7mDt2rVUVpTPaXmeOXOGEydOsH37dux2e275oUOHiMVibNy4EZ1Ox6lTpzh58iSqplFWWkpbWxt2u503d71FTVUl1dXVTE1N8eabb/LQQw/hcDg4ePAg0Vicuza0MzIyyuGjRwiHQrjdhdx9991MBiZ4++2350xPaDKbWb9+PdVVVUiSRDAYYnhklIqKchRFpae3N1cHg8HA4SNH0VSVVZd9dgAnTp4kEg5jsVjo7Owkc9nlBZPJxKZNm+no2M+mTZsoKiq6ams8lUpz+MhhLl28iCRJLFmyhFWrVqFpGidPnuT06dMz8z1mOV0u2tvbKfb7OXv2LIcPH56z7/b2dioqKjh37jzd3d1EoxE8Hg+rVq3C6/Wxa9dOli1bRkVFBbIsc/ToUZLJJKtXrwbg7LlzdHV1EY/FWLJkKStWLMdms3H23DkmJgKsXdOGyWQilUqxa9culixZQlVV1Zyu1jPPPEMkEsl+zx1OysvKaG1dlWuZ9Pb2sn//fhKJxJxjsXnzZqxWK4cPH2FyahK73cHmTZsoKHBx5swZJEmioaEBvV7P2NgYZ86coampCa/Xy+DgIEePHWcyMEFRkZ81a9ZQWFjI6Ogo586fp6W5CY/Hg6qqnDlzBkVRaWxs4OzZswSDQdasWYPJZCIej7N7zx5KSkqor6/nQEcHZWVl1NbWotPpGBkZ4cCBA9x9990UFBQA2a7m8pYWDAYDVqsVTdPIZBSGhkdIpVIYjUYGBwc5cuQwbatXU1tTc9uC2vt2820kGuPCxR6WNTVhNBoIRyJEoxHWt69ny9ZtDAz0sWfPblRVZXJyktGxsVxSudHRUUKhEJBtZQwPDxOLxeaUr2lQX1/PAw88SNuatZw+lT05MpkM/X19rFmzhvXr1zM8PMy+fW+TyWSIx+OMjIygKArJZJLnnnsWr8eD2WQiEomwvKWFrdu2kclk2LN3L+FwGFXVWLVqFffddz8eTyHPP/csqVRqTl2CwSBnzp5lz9v7csElHI7w2muvMTAwgKZpHDlyhF1CGQRGAAAgAElEQVS7dtHQ2Mi6tesYHRvjlVdfJZ1O47BZOXz4MOFwmGQySU9PD+l0mqGhIc6cOUN5WRnJZJIdO96gwOnkro0bsdusPP30j9HrDaxdu476+np6e3upraujra1tTpc/Fo/R09PDgQMHGBocIBAI8PLLL3Po8NF3M5AGAvNmApuanGRsbAy/P3sCVVZWMj09TWNjI2vXrcdssdDb20s8Hr/mLGJPPfUjTp08yarWVhoal7F//3727t1LKpUiEAhgNJlYvXo169evp7m5mUwmkwsG4UgEs8Wa+zzHx8cJhkKEw2FCoSDLmpaxZes2NA327t1LIDBBf38/kUgkV6fJyUnGx8dRFIXu7m4OHjhIY0Mj92y7l6GhId56662Z64xBRkdHcwFWVVUGB4fmlDVrYGCAmpoa7rvvfupqa9m3720GhoZQZrYtLPTQ1raGFStXklZUivzFrF27FpPZzKuvvYbVZmPz3Vvw+Xw89dSPGBsbZ3Jyiqmp6dwM5YlEgpGRERKJBIHJKZ5/4QUsZjNb7tlKKqPwwk9fIhaLEovHGRkdJZlMzpwbGtPT00xNTaGqGlNTU7n3lU6neemllzh86BCBQAAlk2FkZIRgMIimaUxMTLBjxw6OHDky53suSRIFBQUzXU2JTEZhemoKu82KXq9nenqaw4cPU19fT319PRMTEyQSSW5X/p9Fa6mFw2H+5V/+BUmSsml7NY377r8fVVUpKy3F6/GQSqVQVZXlLcvpOtNFLBZ/T/sqLvbj83lnvnAqDocDk9GI3W5j+/btZDIZFEWhsbGR051ncl+U2S/viRMnKPT6aG1tRafTsXnTRpLJJKqqUltTy8nTp0kkEjQ3N5FMJonH4zgdDpxO54L18ReXMjoyzMjoKD6vl7d278ZfUoosy8RiMY4dO8badetYuWIFOp0On8/LD37wA/oGBlm6dCmDwyOcO9+Nw26bCfRT9PT0UFxSQnl5GYcOH8bpdLJy5Up0ej0+r5e+/kGGhodY09aGy+Vk165dNDY04vV65uTrikaipFMp7tlyP8uXtyDLMp2dXZw4cZya6krQNIaGR9i5cycWi5XiYj9VVdW59+bz+SgtLcVoNHLhwkUaGhpwuVxEozEyGYXDR45y4eJFLGYz9fX1+Hy+3P7PnT/P0NAQX/jCF3LLDXodP3/5ZZYvXw5ASXExDQ0NGI1GJgIBhoZHcplVo5EIdrudJUuWYDQaee2114Bs0GhvbyeZzE6ivaxpGXv37iUSiSBJEslkkoyizLQoMmiaRiqV4szZszQ1N1NRUY6s07G6rY29e/cwMjKKNnPSB4NBkslktozM1eeyNRiNWKwWCr0eTCYzZqMpl/zR4bDjcNgJhUKcPXueyooKGhoaOH7iJHqdjqZljZgtFtwFLnp6ezndeRqdLKOoGsl0Cp1OJp1O54Lpzl07KS0tY/mK5ZhMJu5qX88Pf/RDevv6MOgNKIpCOBxmenoaRVGIx+Po9YY59c1kMhw9epRwOIy3qBidbu6pH4vFOHToEIlEApvNdtX3nUqlOHb8BOFojPb2dmQ52wtRVY26ujp0Oh0vvvgiW7dupbq6+gO/ZrtoAwUADoeD3/md30Gv16MoCkNDQ/zwhz9EL8t4vF6OHT+Ooihk0mlCwSCSJKEomesXfBWRSIS9e/cSjkTIpNO4XC6CweDMyWkhkUgwNTVFOv3uPoaGhti5cyeDg4M89thjyDod09PTHDp0mGg8DqpCNBolk3m3OzcyMsKxY8cIBAIU+f3z6iHLMkajkdqaKk6fOoXZYiEYnGb1qpUz3aMoyWSKJfX1uSa5w+HAaDQyPTVJeWkJBU4HBw50YJ2p91u73yIWi7Np0yYMBgPT09NMTE7xzv4DuW5QQYETo9F0zWMkSRJmsxmv14PHk52pR5Ik3O4CDAZj9sQBLBYzPp+PeCLBmzt3snnT5lyr41pkWaKw0I3b7WZ4eJinnn6az/3Kr1DgdiMBqWQSs9mc+4UHKCoqQlPVeV2zhSiqis1qmde1DYVCnO7sJBgKoWTSJOJxUskkBoOBmtpaOju7CIUjyLJMT18fRT4fmqYRjkS5eOEik5NTSJKEqql4Pd7cBEEjI8O88sqryDoZTVWZmJhYsF6qqnKpp5fA5DTB4BRGk/GGTt5AYIJgKMyBQ4fRzwQVh82G1WrDbrPS2XWGd/a9g8NuZ3BoiNhMKzgZjxONxTlw4FDuO+Tz+mbSZ2sEg0F279mDyWQCLfv/5ubm3H7T6TQnT55keGSEBx98kN17982pVyqd5tSp08RiMVasWMHBgwcXrH8ymeLI0aP09PSyfu0afD4fly5d5OTJkxQV+Tl37jyyLBMKhTl1+jSSJFNVVfmBBrZFGyi4kk6nw+/3YzAYCAQCBENhErE499yzBavVysFDh+i5dOk9l68oKk6nk/vvv59YLM7+jv10X7iA0WhkeGSUz3z601itFk6dOs2xEydz25WWlnL33Xdz8eJF9u7di81mY3p6mtHRUe67717cbjeXLvVw5OgRIPvrVlFRgd/vZ2x8nOeff56xsXHKy8vmnGh6nY6Ghkb2vbOP/oEBtt5zD9FoFACbzYbFYubM2bOsX7cOnU7H8HC2G1xZUZHtfo+OsqG9HYvFwtjYGJs3b6a3t5euztNUVVbi9XiYmppm1crleDxeJCl7YrtcBde9duFw2DGbzYRCodwv/3QwSCqdwmAwIAHuggJaZq6Z9PX10dfXi95guGa5kA3oNdXVVFZWUlZaSldnJ8FwGFdBAZIk4fV6SafT9Pf3s3TpUjQNLl68iMVqxWw2X7f8ifFx6urq5gW1sbExhoeHaW9vx19UNNON3AXAXRvu4uKlS4RCQQwGAw67PZvGXZax22y43W7WtLVhMhlJpdKk02lcLicDg4MUFfnZeNcGTGYzqWSSl19++arve0l9Hcsal5FMJXnqqae4cKF75sfi6setuLiY/v5+ljU2UFZahixLBINBnE4XoOFwOhkfGwc0CgvdJOKx3HFUx8ZZt3YNTqcTRVGIRMK43W76+wdwOJysXN6Cr8iHqiicPHlyTktsdHSUSCTCuvXr8fv98261On36NAaDka1b70GW5QVv1UilUuzfv5+BwQHWrl1HbU01Op2M2Wxm9erVuUsvmqYiSaCTZTRNvS0TnC9aUEsmk+zeswdZ1qGqCsPDw+gMRpYsWUpgMsCpkyc4ceIEeoOBs+fOY7xsOqzhoUFe/OlLSLJEX38/kVic3r4BkqkkExMTcw6MqqocOHCAgYFBvF4P6Uyanp5e2tracBe42DO9h+PHj4MEPT09c64NGAwGnE4n69atY3p6mv0dB1iyZAmRaIQTJ05itpjp6eklmUySSqV58skn8Xh9OB0OxsbHkGUdLpdzzkkmyzJIEgUFLpY1NpJOp2cuZJ8DwGKxcPeWe3hzxxsMDgzgdBUwMDDAsqYm3G43r7+xA5fLxbJly5iamkKWZbweDz6vj5+//HMOHjrImrY2enp6eO311ykrKyeRTBKLhPnYxz6O0Xjt4FNQUEB1TS2HDh2mv78fg8FIb18fTcsaKSwsBElioK+P3Xv2kk6nmZycpHVVK0PDQ9f9zDOZDAcPH+FSTy8jw8MUejx43O5cN6yoqIjW1lbeeGMH57svkEolGRocZNu2e7FcY/Q1kUzx5q63GBwaYtOmTfNOMovFjKJk6OrqZKC/j+7ubpIzn7PZbKK5aVlu3eD0NLFYDKPBwOrWVezbt4+fjY7i8xUxNDRIdXU1G9rXA9kBkKKiolxL/2otYVVVOd99gXA4kv0sYjG8Xt9156xsWLqUC93d7Nq5i7LychRVJTQ9xcMPP4zL5aK2pobamhoA+vr6mBgfB2DNmrW8/vpr/OznP8PvLyYcDmE2mbj//vuzef8NejyeQor9fhRFoaenJ9fbmJ3BadmyZdTX1S3YagpMTPCxj32cstIyRsdGF6z722+/zf79+/H4ijh58hSdnV0gwX3btlJeXj5n3c7OTpqbm6mqqvrABww0QPc3f/M3f3OrBUmShMGQ7durqoLRaKSuro4HH7ifggIXnsJCPF4vwWAQCdjQvgGr1UZxcTES2fvazCYjFrMJr9eLw27HaNBjMZvx+/1UVVXl+vnZXy4POr2OSDiM0WBg08aNLKmvp7CwkObmFoaHh7DZbDQ2NuLxFFJaUpLrivl8RZhMJqqrq4lEIxQX+1nW2Mj09BQADUsbKCkupri4mKVLG0gk4iQSccrLy7n/vvvmjHBC9gtus1kpLSnB5/NRVFQ080FKWCzZ+hcWuqmtrSOjZFAyGVpXraKlpYVoNEYsFqOtbc3M+8sei4qKShwOOwUFbsKhEBUVlbS0NONwOIhFo1jMJrZs2YLNNjsTT3a76uqqbOvrsqCr0+koKyvD6XQSiUSQJYl1a9fS2NiIXq8nk8mg02V/VS0WM5s2bqKysgJZp8fpcODz+XLdVoPBSOnMqGl20hQVoyF7b2J1dXW2TlbrnO9FTU0N1dXVRKMRbDYbmzffTU11de7mzIKCAtxuN7Isz0zuIeNyOolGwrS1tVFeXp47MRRFobKqmrKyUoqKiohEIqiqSmvragoLCykpKcZsNs95/6qq4na78fl8eDweKisr0VSVZDLBihXLc6N6qqJis1rx+7OfX/Z3VKOkpHRO9xmywdxkNICmYbNauffe+ygvL5sX1GZnw/L5fNjtdvR6PfX19Xi9XmLRKDablbs23IXL5ZrXGtU0DaPRiN/vx+0uYOnSpTOXJ+JUVVbSPtOyz65nwF+U/V7P7tfpdOJ2FyDLMmVlZaxYsSLXOlZVBa/HS0FBAZIk097ePnP9S4ckyRgMBsrKyubcZzY9PZ39rApcWK0WTCYjep2OysrKefejqap62WzrH+w9qhJijgJBEPKIeKBdEIS8IpJECoKQd0RQEwQhb4jupyAIeUV0PwVByCuipSYIQl4RLTVBEPKOCGqCIOSNRXmgfTalidFozN09nE6nsw+WztyxnslkUFU19/D37J3XiqKQTqdRVRVJljHo9ej1+uxDvKkU2sxD1Xq9Hv3Mc4qpVCqXXyubNlyes29BED68FuWB9v7+fnbs2MFjjz1GQUEB6XSGN954A7+/mFWrVvL2vn309faRTCZA0tHc0szatuwDsMePH6erq4tMRkHWydkEgitXMTw8xK7de5DQkGUdBQUuNm/ajNPp4LXXXqO7uxun04ms02E0mdl4111UVVaIwCYIwvuTpeNypaWlNCxtwOFw0D/Qz0+efpr62homJiY4e+4cbW1t1NXVMTk5SSAQYHR0lJ07d7J8xUoaGxtIJZPs2bOHd/bv5/777gVg5cqVbNiwgYyi8vLPf8bFi5fmZaQVBOHDZ1HSec8+aH727FmampqJRCKMj4/jn8k95nS66OzsJBIJk0omSafThEIhhoaGKfb7WbJkCSaTidLSUkpLSzl+4gTIOtpWt+YelG1qauLll1/h3m1bAbh4qYdEKo2ExEQgQOvq1SKgCYKwOFPkeTweWltb2b9/Pzt37sTr9ZFMvpvK96cvvkBj4zLWtK0BKZuWBElCkiWU9LvJGGeDUiaTmZle790xDKPRiHpZbqbSkhJaV64iHAkRjYS4eOEC1VVV18xlJQhC/luUgQJJkmhtbaW1tRVg5pra60iSRDgcIRgK4fV6cbmcTE5Po2oaBr2e0pISOjo6GBkZwev1EgqFGJ+YoLSklP3vvMO+d95h1apVpFNpjh49ypIlS3OBzmQy4nTacbkchMMRLl68QCajiKAmCB9y70vmW0kCmy2bbdXhsNOyfAUnT56gt68XTYNCtxuDwUBdXX0uJbfFYiGZzlBZXsaS+noeeOABDh48yNDQMJIEFouVTRs3otfrcTidDPQPsGPHm8g6HaFQkOXLl2M2Xzu1tSAI+U/jfcinpmkaU1PTGI0G7HY7iqIwOjqKoih4PB4mJibw+4sxmYxkMhmmpqeziQ8tFjweTy4hYDyeYHx8DKPRiMfjmUlMqDE9HSQUCgLZBIgulwu73S6uqQmCAIgkkYIg5BnxRIEgCHlFBDVBEPKKCGqCIOQVEdQEQcgbIp+aIAh5ReRTEwQh74igJghCXhFBTRCEvCKCmiAIeUUENUEQ8ooIaoIg5BUR1ARByCsiqAmCkFdEUBMEIa+IoCYIQl4RQU0QhLyhaZoIaoIg5A9JkkRQEwQhv4igJghCXhFBTRCEvCKCmiAIeUUENUEQ8ooIaoIg5BUR1ARByCsiqAmCkFf0t7sCV6NpGtFoFE3TsNvtSJJ0u6skCMIvgEULahowMTHBhe5uJqcmURWVgoIC6urqKC4uvumglFEUdu7cSSqd5uHt2zGbzbdcx3giwYUL3QwPDZNMJbHZbNTX1VNSWkokHObosaOoijpvO6/PS2NDIxpw6eIl+vp6SWfS2Gw2qquqqaqqQpazjd6h4WHOnz9HOBxGr9Pj9/tpaGjAarVm6xCPc/HSRQb6B0hn0tjtdqoqqykvL8NgMNzyexSEDzONRQxqR44c4dlnn2E6GKS0pBSdLDM+MY7RZOShBx/irg133dRJq2ka4+PjxBJxFHV+oLlZsViM115/jX379uFyFWA0GhgcHMRssfBrn/810OCJJ56gvKKcggI3syH45KmTrFixkqqqGl597RX2vb2P4uJiCgoK6O3tIZFM8Id/8IdUVVXR3z/Af/zgP4jF4xR5vWiaxo43d9DWtoZHf+lRQOPNN9/krd1v4Xa78Xq8DA0PkUi8ymc+/RmWL18uWqSCcAskFimonT9/nq9//f+jpqaGL/z6F/D5fMiyTDQW5cdP/4SnnnoKd4Gb5cuXk0wmSSSTuJxOgsEgqUwGn8eDJEnEEwnGxsaRJQm/v2jBfSVTKcbGxtFUhbKyMnQ6Xe616WAIl9NBOp1mcmqKAlcBZrMJAJPJxJL6JdTX1VNeXo5Op+PSpUt8+9//L52dnSxdshRZJ/PRhz9KS0sLsiwTmJzi/PluGpYsJRaNsmvXLjZv3MRDDz2ExWIhMBngb//2b/nZz3/Of/rN3+TwkUNMBgL87pe+hL+oCE3TeP311/n5yz/noQcfJJVO8dbut2hb3cYDDzyAxWJheHiYf//Od+js6mTp0qWL0iIVhA+zWw5qmqbxyquvkEgm+JM//pM5rTGHw8Gvf/7X+N9f/Wd2vbWL6uoaBgYG+Mrf/U+Wr1hJR8c7fOLRT/D4449z+OhRvv71f2N0dBRN0/D7/dTV1VNQUJDbT9fZs/zL//kq/QP9aJqGy+Xi7//+H6ksLyMcifIXf/nnPHDf/Tz9zNNUlFfwpd/9EuXl5UiShE6no7m5eU7dq6urqayoIBQK4i4s5FOf/GUaGhpwu91IksThw4cxW8xs3rKFdDJFJpPB6/XicDjQ6/WUFJdgNpkZGRlG0zRSqRQWm50Clwur1YqmaXi9XhKJBKqqgpZ94NbusONwONDpdBQWFuLxFBKLxVEW6PoKgnBzbjmoBYNBhoaGuO/eB+a0mmbZ7DbWrFnDO+/sIxaLAjAdnGZ6aoo/+sP/QnNTE1NTU3zta/9K66rVfPTPP4rdZuPNN9/kqaefYtu2+wC41NPLP/zD33P35i185X9+BYCvP/EN/vl//xP/9c/+KxarDYD/+MF/8PnPf4GW5mXXvJanqipnz52jt6+XtjVrKS0p5pc+/vHc65FIhO99/3tsvGsjBU4nmqbR3NTEv3/33xkZHcHn83Ph4kWmpqf4/Oc/j8FgoLW1jb1vv823vv0tli9fQTweZ8eON1jf3p67prZyxUpeeeUVAoFJysvLOdPVxZmzZ/j1X/t1LBbRShOEW3XLQU1VVTRNw2pd+ISUJQmL2UQiniCTyQDgdDp5ePt2Nm7cCJLEM888i91m59OPP54LRI899hhdZ7qQ5WxQ2r37LTRNo6mpiaHhYSRg27Z7eeIbX6er6wytq1cD8NCDD/HQg/ej11/7rR07fpwXXnyBlStWsmJ5S+5C/6xXX3uVcDjMfffeh16vJ5FI4HQ60ev19A8MMD4+wfT0FE6nk0wmQ0ZRSKWS2GxWYrEYXWe6SKVSACiKQiqVwmg0YjKbkWWZgcFBJgIBpqcmcTld6GQdqqrOq4cgCDfnloOaxWLBbrfT1dW14EmZSqUYGBigsNCN2WwmFApj0BtwuVy5dYaHh3E6nfh8vlzLSpZlivzFuXXGRkfRVI2urq45+2hubsFqteT+X1JSct2L7QcPHeI73/0Orata+aWP/xLuAvec16enp3ln/zvce++9VFRUIEkSx44dY/fu3Xz5S1+msbERg9FIJBLhP37wA777ve9SWlrKGzvewOf18ZnP/Aput5tMOkNnVyff+c6/c+zYMUpLS9mzZw/btt3Lli1bMJlMhIJBnnvuOV5//XWqq6vxer03/yEIgpBzy0HNbDazft16nvjWExw4cIANGzbMCSo9vX3sfXsv2z+yHbfbzdjY+JztJcDvL+JMVydjY+OUlGRbaqqqMjE+jteXPcmrqqs5fvI4W7dtw1tY+O72koTBYCCRTN5QfQ8cPMjXvvY1Nm3axKcffxy73b7AOgeYmpriv/3Zf8tdIwwEAmTSGZqbm3PbWC0Wamtq2L9/H4HJKaYmp1i6dCmewkJMJhOYoaqqCqPRyOTkZK6LvGTJElxOJ5IkYTGbqa6ppru7m+QNvgdBEK7ulvs6kiSxefNmljcv5x//1z/yrW99i0s9lxgdHeXpn/yEv/qrv6C+rp6t92xd8JobwIMPPICiKTz5/Sfp6elhZGSEb3zzWxw+cghV1QD46COPYDaZ+fY3v8nQ0BDRaJTde3bzzDPPzLTcrt060zSNo8eO8Y0nvkFlRQV3bdzE4PAIZ893c677Qq5rHI3GOHnqFM3NLTgcjtz2jY2N2B12nvz+9xkcHCQYDNLV1cXOXW9SVlZGTXU1dXV1vPrqKxw9fpypqSmGR4Z54fnnGR4ZpqllOaUlxURjEXbs2MHQ0BDBUJDOzi5279lLTW3NnP0JgvDeSJqmaYtRUCKR4KWXXmLf/neIxbJPAthsdla3tvLw9odxu91oQM+lS3z/P77PZ3/ls9TU1ORadWfOneOpH/2Q0bFRdLKO8vJyPN4iClxOHnnkEcwmE/2Dg3zvu99haGiIjJLB5XSxffsj3L15E7F4nK9//ets2riRdevWzesGx+Nxfvazn7H37b3ZkcjLOJwO/vSP/xSXy0VPTw8/fvpp7rvvPlatWoV8Wavz0KFD/OTZZ4hGIhhNRlRFpba2lk9/+jN4PR4CgQCvvPoKR48eRVEU9Ho9BoOBe++9ly13b0GWZY4cPcZLP/spoekgBqOBZDJJS0sLjzz8yHu6SVkQhLkWLahBtjU0PR0kGJxGVVU8Xh8u59zWRyqVIhwO43K55l3Mj8XiTAQmMBoMuN1uEskkep0Om82WWyeZTDI2Pk46laKkpASLJXs9LZPJEAqFsNls2a7fFVRVJRKJkkjE0TSyDbuZd6436HEXFCDLMolEkmg0isvlXHCwIRKNMhkIkMlksNlseL3eeS3QQCBAMBRCp9Ph8XiwX1Z/gFg8zsTEBJl0GrPZjM/nE08TCMIiWdSg9otiNqbdzn18EHUQhA+jD+X9Ax9EMLnePkRAE4T3x4cyqAmCkL9EUBMEIa+IoCYIQl4RQU0QhLwigpogCHlFBDVBEPKKCGqCIOQVEdQEQcgrIqgJgpBXRFATBCGv3HI+NUVVURTlqq8b3+OD2plMhlgsRiaTQVVVjEYjFovlmg9+qzN1uZGHWSUkDIZrv/10Ok00GkVRFHQ6HWaLBfMCD8sLgnDnuOWg1tPTQ0dHB/F4YsHXH3/8l+dlqbiW8fFxuru76e7uZnBwMBfYHA4HxSWl1NfX0tLcgtvtnrftyMgIr7/xBpnM1YPsLK/PyyPbty+Y4y0UCnH23FlOn+pkYKCfRCKByWTCV1TE8pblrGpdhW1mzoGblckoJFMpzCbjVfPLKYpKOp3GaDSI9N6CcJNuOaj19fXy9NM/JjARWPD1hz7yEWxW63XzhGUUhaNHj/HC889x5uxZxsfGuDKBiCRJeDwe2tvbefzxx6msrJybZbenhye/973c3ADX0tzSzEMPzJ0sRtM0evv6ePaZZzh48CBDQ0Pz6lBUVMTatet49NFHWbKk/qbynx0/fpxdb73F2NgYHk8h7evbWb9+/Zw6dHR08OaunUQjUbweD1u3bWN5y/w5FARBWNiiTWZ8KzRNo6Ojg3/+6j8zMTY+L4nj5etNTEzw6qvZSVH+/M//PJdPDSAcicwLQlezUOrsYDDIE9/4BgcOHiR1ldTaY2NjvPLKywQCE/zul75EdVXVDQW2t/ft4/989atkMhmK/EUcP36Mt3a9xe/93u9x7733otPpePHFF/nud7+LqqmUl5dz+vQpdu3axV//9V9nE1aKwCYI13XLQa2pqZk//uM/IZ1Oo6kqx44d44UXXrhqYFqIpml0dXYSDoaA7GQuW7ZsYevWrVRUVpJIJDh39iw/efYnXDh/gXQ6zVtvvcXdW7awbeu7acKHhoZQZ4JaU3MzjzzyCHabjWQyicFozM58paroDQacM3N3zlI1jSeffJL9+/eTyWTQ6XSsW7+Oj370Y1RX1zA0OMAzzz3DwY6DZDIZ9u/fT3l5OV/84hcXnOfgcoqi8OT3v4eqqvzpn/4p69atY3BknD/6wy/zwx/9kOUrVmI0GnnuuecoKCzgb//HVyj2F9HR0cE//MM/8MQ3n+Cf/umfsNuuvR9BEBYhqPmLinKzkSuqSjyRRHrxxZsqQ5ZlPvvZz+IvLubosSN88hOfZFnjsuyLkgSaRn1dHQ2Ny/izP/sTxkbHAOg8fZqt99yTKycSCcNMUKuoqGDr1q1YLZYbakmdP9/NT3/6UzKZDHq9no9s384f/P7vYzQakSSJ8rJSGpct41//3/fCQjUAACAASURBVH/ljddeR1EU9uzdw/0P3E9jQ+M193HixAn6evrYsGEDra2tyLJMRamfRx99jBeef57OztPEYzECgQAPPPggnsLsZMrt7e0sX7Gco0eOcvbM2dy2giBc3aKdIZIkzcnnf7MsFgsPPvAAf/SH/yUXJCRJQpopG6DI56VpWVPuxJ6enp7T3UwkEmialp2lyWLGNBOQbsQrr/ycdDoNQG1dLZ/4xGOYTKY52zsdjjmzvo+OjLJjx5u5SVuuZnhkBEVRqK6unhOUCt1u0qkUU5OTTE5Nkk6nWbVy5ZxrbMXFJQBMTk7ecNdaED7M7qiffaPRiMNuv2prRFFVYrFY7v+FhYVzgs7I8AiqpqLTZ+c1uNGAlkqlOHTwUK7L3NKyHJ+vaMF1nQ4HbW1tucBz8OCB6wY13cz7WejWF03TyCiZbPdd01CUhbvtiqKIoCYIN+COGCi4UUPDI5w8eTIXfFasWJkLgKlUing8nk3+r0F3dzc/eeYZJEnCarVSVlpKdXU1BQUF84Ld6OgY4XAYTdOQZRl/URHWywYgLifLMitWruSll14CoLenl3A4jNlsvmoQLSgoQKfTMTIyMudaY29PDzqdDqfTidlkxmAw0NvXy13qhlzQHBkZBsDr9YqupyDcgF+YoBaPx/m/3/pmbtSyuqaa1avfvcYUDodz3cdMJkPH/g469nfMKcNmt7Fp4yYee+wxlixZkhsoGB4eyrW2XAUufEW+qwYoSZLweb2511VVJRyN4vP5rlr31tZWioqLOHL0KGfPX6SmqpyJwCTvdOynsLCQ5qYWJFnixRdf5I0dr7N50ya8Pi+9vX2cPt1JTV0N9fX11wxq2VbewvfnybKMLMsoiookZf+vaVp24GSmuy7L8rz3PLvOQq9BtvU4u60g3Ak0TfvFCGoTExN873vf4/Dhw6iqSoHbzW//9u/OmTovEonmgtrVRCNRXn31Vd7p2M9//s9/yD13343BYCCdTt/UaO2Vpien0K5xa4fRaOTLX/oy//Zv/8Y//ePfUV5WTv9AP7FojC988YuUlZWi1+v52Mc/xlM/eoq//pv/h/Kyci5c6MZsNvFLH3/0uiOsqVSKrq6uBQNbUVER5eXl9PX1oWkaxcV+AoEA09PB3MBIYaEbj8eL2fzuExPRWIzh4WFKS0rmHOtZ3RcuYrNaKC0tFYFNuCNIknTnB7We3l5+9MMf8sYbb6AoCm63m0996lMsb2mecyLZbFY+8YlPEAqF5myfTqcJBCYZGOynq7OLWCzG9NQ03/rmExQXFdHc3IxOp3u35aWoKDfwRMLljMbrPwq2Zs0avvR7v8f+d/YzNTXJ2rXrWbG8hfb29lyL8eHtD1PkK+Lw4cOEQiG23rOV9vZ2VqxYcdWnD2apqkp/fz9+vx+73T4nwM4+WjY2Nko0GiUQmCCZTFJQ4MZqtRKLRenqOoPX66WhYWnu3r9EIsHAwABut3vBoNbX10uh201xcbEIasId4Y5vqQ0PD/Ptb3+b/e+8QyqVwmKx8MlPfYqPfexjOJ3OOet6vV4++tGPzitDURTi8QThcIidu3by46d+zOTkJGOjY7zy6is0NjZis9lyJ2U6kyaVvvoTCaqqMjU1Neei/ZUDFlfTtno1zU1NJBIJzGbzvOtwBoOBDRs2sGrVKtLpNCaTad4I7LUYDAaqqqooKiq66jahUAiL1cqKFSuwzwzKZDIZhkdGONPVhcNhp6amRgQp4RfWHfvNnZiY4Ct/9xX27tmTu472uV/9VR7/5V+eF9CuRafTYbfbKCkp4SMPfYQlS5YgSRKKojA4OEQkGqO0rDzXWorFYgQmAtcc0RweHs4FtSJ/0YKDDwvJ3mpiwe12Y7nK/XOzAxsul+uagw+3omFpAw6HIxe49Ho9pSUlFPn9XLx48YYeMxOEO9Ed2f3UNI3+/n7+6q//ip5LPWiahsPh4Ld+67d45JFHrtoNmw0y1woCLpdrXjdKAjyFbpY2LqXjnQ5UVeXEiRPcf//9lJWVzSsjmUrxzv79uWtXjQ2Nc55MuNMZTSYcDvu846TT6fB4PAwNDs25vqhpGiMjI4TD4XllxeMJtPl5BQThtrnjup+ZTIbTnaf52te+Rs+lHgDKysv49OOf5qGHHrrmdaVLly4xHZymoaHxqhk0+vv7GR8fB7LBz+lwYDIZAfiljz/KkUNHSCaTnDl7hiNHjlBcXDxnn5lMhp27dnJq5rYSo8nIxo0bc0EtkUhwqaeHqalJSktKqaysvOO6cbJ89WO40AiqoiiMj40RNBrnra8qmdwTHIJwJ7ijWmqKonDk2DG+/a1vce7sOTRNo7CwkEce+SgrVqwgEAiQzmQw6LMXvbOjdjocThdKJs1zzz3H4SNHaFrWxNq1a6ipqcXj8aA3GtBUlc7Tp9nx5g4uXryIpmmYzWZWtbZinDlZ17S10drayoEDB4iEIzz55JOomsbaNWux2e2EQkH27Xubp370VG6Utbm5hbY12RtxM5kMe/bu5akf/Yix8THq6+v5zd/4TRobG++owJZKJonH4+j1+jmtNVVViUaiGE3GOfXV6/U0NTXhKSycV9bOXbvel+6xINyKOyao9Q8M8M0nvkH3+e5c9ycSifDTF3/KKy+/AoCmqUiSPOffn/vVX8XlcrD/wH5GR0YZ6O+no2M/drsdk8k0c08WBIPTBIPBXEAqryznni1bkGdaYgaDgS/+xhfp6e1hdGSUkZERnnjiCX7y9E8wGPSk0mkCExNEo1EAampr+ZXPfIZCd/ZkD4VCdHR0cOHCBRRF4dTJUxw+fJilS5feWUEtlaT7wgWWt7TMSbgZiUQYGRmmrLR0XiJOnU73C9XFFj7c7phvaiQc5kL3hTndn1QqxdDQ4DW3C4dDNDY2sGL5SnZPvUUykSQYDBIMBq+6TXNLM3/+F3+F2+3m8nbG0iVL+fKXv8xXv/pVJsYnCIdChK+4RQTA7/fz27/1W6xduzYXsIxGI1bL3G7vndiKsVitjI+NcfjIEWqqq7HbHUwHpzl54gQmk4mKiorr3j4iCHeyRQ9qNpuVysrKXGvrWum3L2cymaiqqiKdTueCQfZyjTbn7v3ZIKJqGrIk4bA7KC8r46/+8i85ceJjvPTSS1y8eJFYLEYqlcoNIJhMJqw2K5s2buJTn/rUgvddybLM3ZvvpqKikhdeeIGjR44Si0VRVRWdTofFYmFV6yoeffQxqq5IUGm321nfvo4DBzoYGhrCbDazrKnpA2ulSZKEzWa7bovKYDDQ2trKpYsXOXr0KKqqIskyhYUels6Mis6SZRmr1XrVIGe1WjG9TyO0gvBeSdoiPiWtaRqRSIRQOMzsRAGlpSU39KVPpVJMTATIKBl0MxezNU3LPo+pk5Fg5pqaHg1QZu6Et9sdOJ2OOWVFo1FGRkaYnJzMBteZjLnFxcU3lVp8eHiE4ZFh0qkUZrOZ0rJyvJ5CmMkecqV4PM5//+//g3373qapuZmvfOUrFLhcH8hJrygKyWQSs9l81UDa0dFBMBRi6z33oNPpSCaTZGbmX7AsEJyyZaYwXSX1eCQaRa/TYzLdeDYUQXi/LWpLTZIkHA4H9st+7W/0q240GiktLcn9X7ts28v/fSNsNht1dXXU1dXltr+ZuswqLimmpKT4hutw6dIlxsZGAbjv3ntx2OffOvF+0el0WG9i3gRZludkDb56mVdf52Z+IAThg/K+XFNbjNNYusq/b7Ws97MOo2OjBINBPD4P99xzj7i4Lgi3gTjrFomiKAz0DxCPx2lbs+a6D6DfDpWVlcSSSm7EVxDy0aJeUxMEQbjd7pwbqARBEBaBCGqCIOQVEdQEQcgrIqgJgpBXRFATBCGviKAmCEJeEUFNEIS8IoKaIAh5Q9M0EdQEQcgfkiSJoCYIQn4RQU0QhLwigpogCHlFBDVBEPKKCGqCIOQVEdQEQcgrIqgJgpBXRFATBCGviKAmCEJeWdQ5ClKpFP39/UxPT5NMJudMTCwIgnA5s9mMxWLB7/dTWFi4aJNoL1pQ6+7u5plnnuGln/2M8+fOMTk5STqdXqziBUHII5IkUVBQQFFREXfddRef/OQn2bp163Wnbbwh2iI4cuSI9pHt2zWT0aiRnSJT/Ik/8Sf+buhPp9Np9fX12pNPPqlFo9Fbjke3HNRCoZD2uc99TtPr9bf94Ig/8Sf+fnH/KisrtaNHj2qZTOaWYtItDxTs3bv3/2fvzsPjOgt7j3/PMvs+2uVNtuTdsR3bSRywSUI2CEkIOEAhhAJl6W0pBVrK5UIppb0suVBooTRAaYCwJSQkjrPi7CGJk3iXE2+SrH2XRpp95izv/WOksWRJ3qTEiXg/ffw0jM6cbc75nXc55z08+9yzmKY53VlJkvQnrKenh61b7yWVSk1rPtMOtebmZnq6e6Y7G0mS/sTl83meefoZEonEtOYzrVAzTZPBwUGy2ey0VkKSJEkIQSKZJJFIYNv2Wc9n2qGWyWSmMwtJkqQZJW++lSRpVpGhJknSrDKjTxRIs5umQKlbJ6BrKEB/3mAoZyPO9YpJ0hgy1KTTclGpjyvCUWp8TqJOHQVoz+Q5mszy8MAgjckc9iTpVl5ewdx5c9DU44/AdHd309HRMa3GYEmaigw16aScTidvKnHz5QXzWez2oqIU/3aBD3JRm6VBN//W1MmxZG5Cqe3qt13NZz/zGTze44+/pJIpfvOb3/KLX/yc/v5+hJBlPWnmyFCTTmpDyME/LVhAndtb/OzxeD8rvUEqdCcuVaU/bdOVMSathkYjEcKRMP/+vX/n0KFDeH1e3vGOa/n85/8eh0Pnu9/9Lrlc7rXbIGnWk6EmTWltmZsvr6ikTnUhBDw8MMT/bmwllskihGBZ2Eml28mzvSmMyeqeI7KZLM8//zy7du3Csizuvedetm7dyqZNm7jnnntoaGjA5XKh6zq5XI58Pi9Lb9JZk6EmTUpTYMNqnc3vTGAeVdn2HHzulSaSY4aTOjSU5xD5s5r/Cy++wFVXXsWSpUtZs2YNq1evJhqN0tLczK7du3n++ee5+OKLcblcPPfccwwNDSGEwO12s2nTJtLpNHv27JH3SUoTyFCTJuXXNZZVeNHXBHGUZ/nGHd2k7UKglZStJrr23aie8ITvNT7yj5i5kz/mUlNTwyVvuYSBgQE2XnQR73vfn9HQ2EBjQwOXX3EFH7jpJv7hH/6B888/ny1btvCFL3yBp556CsuyqK2t5Vu33MLWe++lvr7+Vdl26Y1Nhpo0KV1VCDk0lJF+gcGcXezd9IdqqF77AbRw9YTvte/4MVbfIYQ43rNZVlbO9773Pfr7+3G7PcyZU42qanzta//MoUOH2LVrF7t37yYWi7FgQQ3f/vb/46abbuKWW27hmmuu4eKNF/PCCy+QSqXYuHEj+VyOZ599lnQ6/VrsCukNRAghQ02a2uiYMJP9RQgbIexCX6iiwEivqJEeGBdohT8reDweQqEQQgi2b9/O97//fY4dO4bb5WLZ8mV845vforSkhPoD9aQzGerq6kgkEuzctZO3Xn45Dz78EHv37OHjH/84u3fvZseOHXJkZWkCRVFkqEmTixk2OwbyXJYJ8a96LepbPOh/OIaZM2hp2EbLt7cB4A/VUXfV/yNy3mUwfBDsiaMd9/b28MlPfrLYUTAqEPDz5S9/hQ/e/EEOHTzESztfombBAtavW09vbw+ZTIYH7n+ASy+5jMV1dSxevJhoNMqDDz1IPn92bXnS7CdDTZqUbdvUH03xT7traZrnZu57l6MZCj3PNWMkciDAWRqg/KK3UbJsNULTOLLvcUzj9EdsWVRby8aNF7F9+3Y+/Td/QzweJxyO8IMffJ8lS5YghKC+vp6dO1/iuuuuY0FNDS2trezZvUeO3ydNSYaaNKVdxwwa7m1n/vtDuMp8VGypw3teFCuVRwhwhL24q8pJp/NoLfUM7/sltnn6vZGaqqFqKg6Hg2g0imVZXH311Zx//vnFe9f6+/p48skn+cd//AqLF9fx/g98gL6+PnnLhzQlGWrSlOy8xdCubqqUUlwfr0HzOgivrRg3jRD7sbsO0fJIPamBo3AGYfPyyy/z0IMP8dd//Skef/xxkskksViMZDJZDC1bCF544QW6ujoxTYNnnn5aVj2lk5KhJp2UMG1e2bEf/2An8y65Eu+GFIqjEDjCFqRbB2j+5T4y7YlJA+3hhx/h2LFjtLa2TnjWM5fL8fWvf52Xdr7EtddeRzKZ5Hd33gkKVFdXF0dADQQDuNwubr/9doaHh1/9jZbe0GSoSacleaSfg0d+g/5bJ46oB0WBTFscYZ28ZHb48CEOHz500mm2/2E72/+wfdxne/fsBcDlcnH1VVeDgDvvvFPebCudkgw16YyYiTxm4rWr/tXV1XH55Zezbdt99PX1vWbLld645CCR0uuWqqqEQiHqD9Tz6KOPyVKadFpkSU163bJtm507d7J//36y2awcf006LTLUpNe1fD4vezulMyKrn5IkzSoy1CRJmjUE0ww1p9OJ3+9HUZRTTyxJkvQqU5hmqKmqSklJCV6v99QTS5IknYSiKETCYSKRCKp6dtEkhJh+9XPVqlXU1i6SpTVJkqbF5XJx6WWXTauQpCjK9ENtzZo1vP3t1+DxeE49sSRJ0hRWrVrFDTfcgM/nm96MxAw4duyY+OhHPyq8Xu/ouILyn/wn/8l/p/XP4XCIN7/5zeLhRx4R2Wx22nmkCDEzY7j09vby1FNP8fNf/Jw9u/bQ29crx7ySJGlK4VCIlatW8b73vY+rrrqK2tpadH36t87OWKiNsm1bjnUlSdJpURSl+G8mCCFmPtQkSZLOJXnzrSRJs4oMNUmSZhUZapIkzSoy1CRJmlVkqEmSNKvIUJMkaVaRoSZJ0qwiQ02SpFlFhpokSbOKDDVJkmYVGWqSJM0qMtQkSZpVZKhJkjSryFCTJGlWkaEmSdKsIkNNkqRZRYaaJEmzigw1SZJmFRlqkiTNKjLUJEmaVWSoSZI0q8hQkyRp1hDIUJMkaRZRkKEmSdIsI0NNkqRZRYaaJEmzigw1SZJmlRkJNdsWmKY54XPLsib9XJq+ppYODNNkOB5nMBZDCHGuV0mSXhdmJNQ6u3t5+ulnsG27+Fk2m+WFF1/kySefHPe5NDOSw4Mca26jsakJ0zDO9epI0uuGPhMzEZZB3sgXSwumaXLw0CEG+vtR1eO5mU5nSKWSjC1UhEJBXC4XmUwG0zTx+/0oioIQgngiiUN34PW6xy0vm82STKaKYel0OgkE/GiaBhRKiMPDw2SzWdxuN5FIBEVRit9PpdLE48OoqkooFMLtdmOaJrHY0IQSj8/nxev1oijKyDQxLMvG6/Pj93mK25fNZkkkEsVtU1UFfyCA2+UinkihqRTnM8qyLOLxOJlstrAuwSBut5tUKj2ybB+jk6fTGSzLxO12MzwcZ8mSxaQzWcrLSlAQDMaGCQb8DCcS2CeUjj0eD36/j2wux9DQEKqiEAwG8Xg8xWlM02R4eJhcPo/H7SYcDiOEIJlM4nK5cLlcJz0G0uk0qVR63P4b/W3z+TzZbBaHw0EikcA0TcLhMB6Ph3Qmi2maBAP+4r7J5fNkMxn8fj/JZIp8Plfcr263C6fLTT6fx+vxoOsaQgjS6cKyvV4vtm2TSCTw+fw4nY7i+uTzeTKZDD6fD13XGRyM4fP5cLmcxX2QSCQJBgPFYwnAtm2SySS6ruPxeIrrWVhOEo/HjdPpRAhBJpsjkUhgmQYlJSU4nU5SqRSZTGbcca9pKsFgEF3XiScSpFMpnC4X4VCouOxcLkcymcKyrHG/pc/nRVVVUqkUqVQK07IIBYPF4+vE7Rz7G+XzeYLBILZtk05nCvvT6RzZPwbZXA6vxz3ue2802le/+tWvTncm8Xicvr4+ahctAqC1tY3evl4qKytJJBLU1dWhKApt7e0cOXKEbC7LYGyQ1pZWQqEwfr+Pzq4uenp6KCkpQVVVBmMxdu/eja5rRMLhcWHQ2dlJU1MThmGQTCbp6u4in8sVf6z99fV0dHYRj8fp6u4mkUhQUlICQEtLCwcPHSKVTtHX18fQ0BCBQIBsNsvu3bvIZNIkkwni8ThtbW0oqkI0EiGZTFJfX09PTy+JZJKuri4UVSEQCADQ0dFBY1MT6UyaeDxOa1srHo+HQCDAkSNHSCVTlJREx21Hb28vTceOkUqlGBwYpL2jnXA4QiIRp7Ozk0gkjK7rWJZFa1srmUwWh9PB7l27qKmpwe/3YdkWB15+mfb2DsrLymhpbWWgv59jx46RTqdIppJomkYmk+GVVw6SSCSIJxL0Dwzg9/uLF5QDL79Md08P8eFhOjs7ERROoKNHj6JpWvFiM5WWlhZaWppJpdLEYjHa2loJBAL4/X6Gh4c5cOAA/QMDxGIxYrEYnZ2deDxeMpkMhw8fpqy0FF3XURSFY8eOMRRPEQz6aWhsoLu7m1QqRTwexzRNhG3T2tZGKBjA6XSSTqepr68nk8kQiUQwDINdu3YBglAohKqq2LZNU3Mrba2tBEcuHjt37sTn8+H1ejFNkwMvv0xrWyvl5eXFEx0KYXjkyFH6+/uJRMI4HIWg7Onpob5+P4FAAK/Xy+DgIIePHCEWi5FIJuho78DhcpNKJunu6aa7u5v29jZyuRzpdCF0mpqaOHasmUQiQVdXF6lUmkgkgqZp9PX10djYWPjN4sN0dHRgWYULQjqTof7AAeLDcYaGYrS2tuLz+fB4PAwODvLyyy8XfrdAAFVRsCyLI0eO0NbWRkVFBbl8nqamJpxOJz6fD8MwOHzkMD3d3YRCoVNexF7PZjyOh4aGaGhsYOmSJQghaG9vL/4tn8/j9Xo5b9Uq8vk8e/bswbJMhBAYhkE2mwUYCZjdZDIZ8vn8hGUYhoHL5WLJksVomk5nZwedXV1UV1fT2TtIMpFgzdq1eNxustksTz/zRwKBAB6Ph6Zjx1i2dCmlpaWFklIigaZpZHM5DMNg2bJleDweBLB//37y+XzxgLBtwYYN69E0jd6+Pg4dOkzA7ycUCpHL5QgFgyxbtgxVVXn++ecxDXNkezLYY662o8rKyohGC0FnC8GTTz5JV+8gFaUhWlpbGRoaory8HMM06evtZfHixcXSkxACy7Joamyiv38AELhcTlYuX0Y+n+ePf/wjc+bOpaK8nEwmw759+1i4aBGVFRXYts2Ro0dpbm5m+bJlHDp8GMMwWH3eecWQy2RzhZJHJoNxGu2iyVSKSCRCbW0tuVyO+vr6YgljtORcV1fH/Pnz0TSNI0eO0NTUyNKlSzHyebq6uqmpWUDeMOjp6aGmpgZtJIzmVFdTVVWFqqooikJfXx/ZTAbLKpTUDx85QldXF7rDgS0Etm0XLiytbUQiEaLRKKlUipbmJpwOZ7GEn0qlMEaq7g0NDXR2dgJMaC6xbZtcLkdPby8VFeVUV1eTH1nnwcFBTNPENE2am5vxeT3U1taiaRqNjU10tLexYvkyqqoqCxe+xkaWL1+Gy+WipaWF9o4Ozl+7tngM7dq1G93lpW7RfAzDQNcdLF26BKfTSePIhVwIgc/rZc3q1cUS1YEDB2hoaCAUCmGaJql0miNHjlBaVoZ3JOgGBgfJ5/PYto1tWWRHakeF7W+kubmFgN8/rmT4RiOY4VDL5XIcPnyUqqpq5syZQ0dHx7i/p1MpvF4fDocDIcS4qumoVCrFrt27KS0txTAMpiobpFIp2trasIWgp6eHipGra2vTESoqKwn4/aiqitPppKqqksHBQSKRCG63m2g0WrwSj1bBUuk0iqLgcDiKfytWLXM5Uuk0K1esKE5fWVFBa0sLyWSKYDCIpml4PB6cTieKokwo1TQ1NdLa2oKiKITCYdasWUMoGMSyLNo7exgaiuHQdaororg9HrweDz29vUSjUVpbWnC5XMUrNBROtGPNzcQTcRbMn097R3tx/Uf3raZpOJ1OhoaHUVSVZCJB28hFwjQM8oaBZVkkEgmqqqrw+XzFfRYKUbzI7N61i7179qCqKuXlFSxduoRQKDRu+4Rto2kaDocD27Yn/LahUIjq6uri/ps3bx579+0jl8uxcOFCWlqamTOnmqFYDK/HQ3RMk4Gm6zgcjuPzHPncsiwOHHiZdDpNzcKF45bn8/nw+X0MDA4SCAY52tBQKMlb4wNLCEFrWxs9vb2sWbOGQwcPTnq8OZ0OKsrLOHL0KKFwmKFYDIEgGo0W1yU2NISiKLS3t480odiFC0Qmg8fjKZZE9ZHtSSQSVFZUEg6Hi8ddRWUFQwM92AvmIITA4fLgdLpwOHQ0TRvXfprP5+nu7kaIQkddNpstVv8jkQipVJqW5mbmzJlDe3s7Xo930vOpvb2Djo525s+bRyqdOmmJ/PVuRp8oKFz9GzBMg3nz5o9rkxhlWhYuz9TVmFwux6FDhwj4/axauRJVmXr1Rks3iqLg9XjIjLTNoCgTfjjbKpxwQggQYly7j23bk/YcjvtsZDljSyyWZWFZFoLC/LLZ7KTbPGrRolquvfZarrrqapxOJ+3t7YUSgaLgcOj4ve5iKcyh61RWVpJMJEmn03R0dFBWXj6unaOvr4+uri5qFy0qVoFPtq8Mw8C0rEJJRggCwSBV1XPR9UIIccIuGFtaWbd+Pddddx2XX345pmXS3z8w7u+2bZPNZvGOhOJkDMMklz/e7mrbNpqqoqoq1dVVZLNZ2tra6O7uJhwO43a7J53PKMu2ONp4jI6ublasWIF3TPsggK7rVFdVMRQb4vDhI+TzeeZUV6Npx9dPCEFvby9tbW0sWbyEaCRy0mUWgj9Ac3MznV1dlJWW4nK5ihcxTVURI/vXFgLd4WDBgvkT2lJHmaaJYY3f8cZISap4TKli3DqP6untZc+evSRTqUmPYV3TWbZsGV3d3bR3dKBpGuETmnFsIejr7+fI0aPU1S2mtLRkyt/vjWTGtsDI1FmHiQAAIABJREFU5+nu7mLliuWEgv5xfxNCEBsaIhaLEQn6pgy1/oEBVFVjxYoVJ925iqri8XiZP28eNQsWUFpaSiIRJ5/Ps7iujp6eXnp6eojHE7S1Fdr3ysvLCYXDmKZFR0cniWSSvr5+GhoaSCaTkyzk+Dq6XC4i4TCtLS0MDAwwHI/T0tKCEBAMBIjHEySTqZOeiKZpks/nyeUK4WtbNr29vcQTKUoiIUpLywCIDQ1h2zYlpaVous4rBw+h6ToV5eXj9lvTsWMsmD+f0tJSTnVh9Y+0tZimSWlJKeVlZbhdLiKhALquUVlRSW9fL/0DA8TjcZqammhpaSkGl2kYhVA0zZF1OH4CWbZNX38/hmGgjWm8Hu0cGK3epFJJ2traiA0NMRyPc+zYsZEOnkK72PwFC2hobCSdyRAKhQolnZNsUzKRIDE8yOrVqwkGg5MeU+FwmFA4RGdHB7WLFo2UEo9PZ5omvb29lJaUUlpacsoSiqqqLF26hL6+PlxuL9Ho8RDQNK3YHhyNRqkor8DrLXQyTdU+VVFRwUB/L11dhfbfjo4O+vr7qaisJJvNMjxc6MzKZLOk0mlyeRNjpKobi8VwOp0srKlhzpw5aLo+IdiCgQA1CxbQ39dHZVUVXq933N8Nw6CtrY0FC+Yzb95c1JNclN9IZqT6qWgOfD4fK1asKBbHAXTdgWukXauxoRGf10s4XKi2KKqKy+UutpM4dAfRaJTautpiD5budKFN0gvj0HUSyQQ7d+0qlNhsm+rqarxeLz6fD9M0aWw6RjabRQFWn3ce5SOhsGLF8sJJ29qKbduUlxUaqC3bLl51gXGlPV3Xqauro6GhkUOHDpFKpfB4/dTWLSYQDPLE408QCPjH9bJ6vD40h7P4/b6+Pnbu3IktBC6nk3nz5jIcT3C0oZF8LoctbPzBCDULFhSqjopCWWkp+/fv4/x164qN05qq4fZ4mDdvHtXV1ei6jqq7itXeUWP/t8fjYfmyZTQ0NrJv/z6ELfD7fcUSXs3CGjRN5dChQ+TzBgibVatWoaoqLpeL5pYWOru6QAgCgQAVFRXFkzmTydDU1EQimeTI0aPFRvl0Os3hI0eIRqMIIXC73eRzefbt2wcUqoeLFy8uXghqamroaG/H7/NNGVKjVFXF4/FQW1dHZXkpQgg0XUcfOSkVRcHpdKKqKjULFlBRXk4wGCSRSODyeFDVwjHl9ngoLS2lpmYBTqeTTCYz7hgoHt+KiuZwoWkawYCfdeefj9PlRtdU9JFqsa7r1NbWcqy5udie6Ha7WbJ4SfFo0nQd55j5z5kzB03TaDp2jCNHG0AI5i+Yz5zqahobm+gfuYD29/cDkM3mMI08oVCIqspKhofj7NxV6Ewb3ebR483p9qCoKgsWLCAajRIIBOjtH8ThOH5c6LrOwpoa5s+bh6Zphe1wuFDe4KU1RczAXZtCCEzLQte0cQeEGGm0HT3QgXFVNMuyiqE2dtqxXebAhFLbaCN5cSMUZdz3Ruc1umnaCetlWVbxb+pIFWj0Oyeu3+i8R9fHHqnCjl3maAnmxNsARqsltm2Pq66NXaZl23DCuoxqamqiubmZTZs2FQ/Y0e9ok2zvVPt27DqNrsdk+2zsPh3dZ1Ot+6jheJyjR48yb+7cYg8zFEoBL7zwAqtWrSo0TRw5wnnnnYfP55t0PqZpsmPHDhYvXly8AEGhJKie0EZ5qmNlsr+Pfk+M/HbKSI/g2N93qv124u851onTn2ofn/g7TXasWpbFK68cxOVyUVOzYNz0hw4dQtU0lixeXDxvRpc1+v3j26mOK8WPXf7of4/d/tGq84n7+41kxjoKCiWtibMae6JP1t409rMTQwEmhtnYaU92H81k85pquSf7zmTrM9kaTbYuY9f9xBN47DL1E5Zh2zaHDx8mmUoxNDTE4rrFxVLaVN85nXU/2XoU5zvFdpysKcDtclFdVUUgEBj3fUVRqKmpwev1kk6n0fVCQ/eJy2hsbGQ4HicRj+MPBCgpGV8N1KbYbyc7Vqb6/U8MpVMdk1PN/2TTn2ofnzj9VNtSVl6OQ9fGd5AA5RUVCFuccjmThdLYZU25Lm/QMBulMEMlNWnmCCEYHo4TG4rh9/mIRqMnDeg3gmw2y9DwMNFIZNz9XwDJZJKBwcFCE0JV1Rv6/ijp9UGGmiRJs8obu0VQkiTpBDLUJEmaNeQ7CiRJmlXkOwokSZp1ZKhJkjSryFCTJGlWkaEmSdKsIkNNkqRZRYaaJEmzigw1SZJmFRlqkiTNKjLUJEmaVWSoSZI0q7wqL/cTFF7EIQcAkSRpKpMNxjkTZjTUbCFIZ7IYRuG1d5O8L0KSJAkAWyjouobH5ULXZ27MwBkbT822bQaH4jg0Fa/PWxgOmgkvKZIkSSoQglw+Tyabx+tx4TrhPRtna0ZKaqZpMZxM4ve6J7xR6Y09OLAkSa8aRcHjdqNrGol0GmBGgm3aFUQhBKl0Bp/bdcp3NUqSJJ3I4XAQ9PkKTVdj3q17tqYdannDQFWZMPa8JEnS6dJ1HZfTgWEY0+5gnHaoWZZdePfkG/xdgZIknVsulwvTtM59qAlho8iWM0mSpklVVVCUwrt1pzOfGVofSZKk1wUZapIkzSoy1CRJmlVkqEmSNKvIUJMkaVaRoSZJ0qwiQ02SpFlFhpokSbOKDDVJkmYVGWqSJM0qr8rIt5L0p2aqB3uUU/x97DSnM/8Txyg80zELz2RZZ+tcPzQpQ02SzlDxpBei8N9CTOshbGVkMAhFGf8U9dg5CtsuLuvsF6SgKgqMjFd2YvgICkOJTXd7oLBNysgyX+uQk6EmSWdo9IS3bRvbtkEIbPvsQkBVFRTbLjzMPSbcRhaEGF2OZRWXfTZ5U8gyBaGqKKo6LtzGBrNlWdi2QFE4q21S1ZHAHNkmZeQh9dcy2GSoSdIZGD3NbcsaGXZLm/awW7ZtY1kWim2j6XqxSjkaaKZpomsamja9cfwFYBoG2DZoGurokPsjKWlaFgiBw6FPe/RZayTwVYBX6QUrU5GhJklnQAiBbdsYhoWuq9MOGgBN04qlPtW2ESPzFEJgmRbCFmhObdrBoAC6w0E+l0dRBIoqivO0LQvbsnE4ZmZsRE3TMEYD2eEolgpfC7L3U5LOkG3bWLbNzDaJK5jWSHV2hBAC07JntJSjKgqWLYrV5lGWbZ/WOGa2LUjnLAzr5NMWSoCF6V/r12We85JaOpvFyOXP+Hu6w4HX435Ni7WSBKPtWqMVxJmdr20X5q0oSqGtTtho6syepqOlTXFCR8fYQD1RZyzL9l0tNLclMYTgnZsWsL6utNiGNsWCRqroM7r6p3ROQ62jo4NnXtxPPJk+4+9qqsoFa5awasXyMyouJ1Mpfvbz24jFYlNOc/HGN7F582Zc8r0L0hQKPYUzOb8xHQBCHK+ujfRGTvqdkYZ9TRtfNR0Np6nOC2Fb2GgcX5xAjJSoJvPcgX5+eM8BXjzUTSKRZ/P5lQSuXHTKGqUtbGwxdVC+Ws5ZqFmWxd6DTRw91n7WRVMjFWPFsqVnFGqGafHSSy/h0B0sXrwYVTn+3Vwux776fVRVzeHNb37zWa2TJJ2NKU8BISYUCPv6+sh94TN47t+FkrUw5wfx3PB2nJ/+FPrAPRh7b0UYKRzzXWgLPoMy/ybQvGNnOsliJi95Pne4l3/6xU5eOTzABRdW8hdXrWTjkiglQdepa0lidN42Au016wE9d6E20tgK4BgpnwohsGzrtK+AZ3sVEALe+ta38t73vBd9TNk4NjTELd/61rgfyzRNent7C2+5GfOj+7w+otEomqaRSqWIx+MMDQ+jaSoBf4DS0lI0XWcoFiORSIz77qj58+YDMDw8TCwWI2/kCfgDRKNRPB4Plm3T29ODy+UiEomgKAqpVIqBwQEqK6twOhzYts3AwACWZVFeXk4mkyEej1NSUlJ8w9foNKqmEY1ERl5rmCYRj5NMJnG6nHg9XsLhcPE7lmUxNDREOp3Gsgu/k6IoBANBwuHwhAM6l8vR19dHSUkJbnehWSCTydDf3084HMbj8ZJMJkimkqSSKdxuNz6/n3AohK7rCCGIxWKFxnJVJZlMks1m8fv9BINBfD4fw8PDxOPxCb+7pmrFdU8kEqRSKYYTCaLhMJFIBK/X+6o0Uwhhk0xlSCYLzSelJX5UVWFoKI2qFe7Tsm2BP+Ailc6QTlnomkok6kMBYkNpdB1CQf9pLk9gPPE0zr/7Glr94eLn+qEM1vd/itD/m/w8rdjUZzRlMJr/Gcfy+1BWfBvNvxiU8QWAk+2VnliGn287Slt7kk9uWc1nblxBUE+A1QF5L8JRiqI6sIVgxyv9qKrC+sVRHPq5bao/521qAG+6YC2aqpLPZzjU0Ex/LHGuV6mop7eHf/2//4qRNwgEAsXPli1dxl/9r78iHA5zxx13cODlA1iWRTqTRtiCd2/ZwuY3b+LJp57iueeexbItjh49SigUoqysDEVR+Nev/SuHDx/m/gfup3+gH4fDgYLC6tWruebt1+Dx+vj5L24nk07x6U9/mmg0yosvvcS//8f3+O53/52a+fNpa2vnP37w79TVLeYvPvJRXtr5EnfdfRef+8znWLRoEQCZbI4f/eTHBPwBPvmJT5BOp9l631bq6w8ghE0un8fpcPDOd97Amy6+GJfLxZ69e7n793czMNCPx+1BVVW6uru48oorufmDN094JWJDQwNf/8bX+czffpZ1687HFoKHHnqY7Y89ykc/8hHKy8rYunUrrW1tWLZFLpslFArz3ve+l/NWnYcQNr/69a9pamrC7/cRGxpC1zWELVhct5jr33k99fvrefqZp0mlUnR1deH1eSmJluDz+bj6qquxLIvHHn+MdCqNaZnk83nWr9/AjVu2EIlEZvzYMAyTlo4e7r7nJY4cjPGlL16Hrqvc+uMnWb+uiq6eNJm0waZNdTz4yIsM9Fr4A17+/nNXMjiY5of/9Tgur8VXvvheAgHPKZeX7+okcfudqIebxn2uRU28G+PoLSaGM4BV7oLRti5bYB7di+L6OWL5/0Z3Bcd9V3D85t8THWwd5tn9nbz1onn8xTuWELTbsJu+D/FHwbUYO/o21Mr3MZR1cf9zx2jqSvLNT15ATUXgrPbnTBC8DkLN61R484Wr0XWdbC5P/1CSgaHka9pbciqhYIjNmzZz3urVCNtm2/3bGB4eBgpXz7nz5nLe6vMoKy0jk8mwffuj/O53v2NJ3WIuveQSLrzgAgC+8k9fYcP6DVxzzTXouk4ub/Cr3/ya+fPmsWXLFiLhCF1dXfz+3nsJBp/lmre/nQ/e9AG+dcu3ePSxx3jn9dePW69MJsMTTz6BpuncuOU9OByO09oeTdNYumQpa9eeT0k0SjqT4cGHHuLJp55iyZIlzKmu5le//hUl0Shb3v0JSksLIfyzn902aVX/xF/Ktm12797N0888xU0fuInz165lYHCA9evXc+WVV+L3BxgainHv1q0888c/UlNTg9/nA6ClpZlLLrmEP/uz9xPw+zl8+DBb79uK+w9urnn7NaxZu5b+/n7uvOMOFi5axJVXXIHD6STg99PQ2Mjll1/BooULEUKwd+9eHvnDI6xZvZoNGzbM+GscnU4nK5YsJPbWOA8/fB97DxzBNt28uKuF92xZy513bad2UZQHH9rLzp29fOqvriAY8uLzurjrrl3s3NtGYjjNxz4SY7HPddJlCSGw6g+iPPEsGMb49ZifRQtZIEDrzGBHnQjn8TKYyNvYvR2oC/vAFRg70+K8T2QLwTP7+nC4NC4+r4yIV8Vq+T5KaieKbzMi34Da+R3Qq8g7LyGVE+w92kcskTunoabwOgi1nCl45eAhKioqSCYSJBPx11WgWaaFZdtUVlYyd+5chG0TDoeJx+NA4e3SV1x+BaZlkUgk8QeDrN+wnh0v7mB4eJhFixYRjUaBwkkQCAaYO3cuuq7z6GOPMzQU4z1b3kN5eSWKqjB33nxqahZw4EA9Gy+6iLlz5/L+99/E3XffTXl5BT3d3di2TXtbG4cOHuT5Hc/xwZs+SEk0Uqxi5XI5BoeGCA4OApBJZ8jlcgT8hYMtGAxy8cUXk0ylyOUNPD4/K1eu5P77tzE8NMSc6moGBvp5y6bNrFm9BofDgWVZU1bjxn7S3t5OLpfj4YcfYuPFb2LDhvXouk55WTnlZeUkkknyhoHL46Guro69e/eSSiaLobZixQquv+56ampqUBSFqqoqenp72LlzJ9ddex3VFRU4HQ68Xi+hYJA5c+YUw3zN6jWYpkEqncYWgkW1dbg9T9PX149lWa/Ku2kVReGCtStReIDHHm/E53VzwYb5eP0uhuIJ6pYuYCimMjSc5Y7f7+KrX3o7LS2DPPXMEa64bCmPPvYKDY2tLFxQdvLl2Fm0vnrURPqkzTNqxkLrzGDO84J2/JfRsy+hZ/dDsGbsyhf+/yQzVIDW2DDhgJvKiA/LMhHZo6jR96JUvAvi+xCd34HeHxFYtJ6qiIdcxsI0X/uOgROd81CzbLj3D8+d69WYkhACTdNwOF2FNhLGX9mEENx119389s7fkEweL2EGg8FThnNvbw9dXV384z99ecLf1qxZSzabRQjBqpUruPuu3/HNb3292BX/tX/5ZwAuecslLFu6bNwJOzg4yBe/+IUJ2/GOa64FIJvNcs8993D37+8mkUwU17O8vLzYflZVWcXOXTtZu3Yt8+fPH3kmcIp9NOa/f3jrfwKwaNEi1q5ZXexB7unp4X9u+x+effZZ8sbxW3iWLV027laCkpJSItGSYng6HA5KoiXE43EM05iwvLFefuUVfvSjWznacKS4TUIILr3k0im+cXbECY8PuZwOLtywiOeeb6CkLMgn/mIzR5uaEUJh8cJFvOVDy7nooio++9l7+NSnf8O7bliHbQvWryvlyScV9u7p55JNNk7n1KFrKS6S+kKUU5yytkfDqvaMCzQAu6sWu3cBWtnpBruCjY2ZFxhZgcfjRV97/+gegN7bwOxGCf8tQvFi2ebIt879LVbnPNQA1q5cdmY9mLkkTW3dgPnqrdSIdCaNbdv4fIXeIwXGlVYOHTrMHb+7g49+5GNccflbcbvdvPzyK3z9m//3lPOuqqpiTvUcPv03f8vKlSuK+8A0TVRVRVVVDNNk631bSWfSfP7vPk9//wC//u2v+NxnPkc2l+N3d93Jjh07uOaaa4p3t5dES/j0pz7N3LnzgEKI3f6r21FVFSEErxw8yJNPP8VffvIvufTSS9F1ned37OCXv7y9eFD+5V/+Fbfd9lM+/4XPEw5H0DSNgYF+3va2t03YjrGH8V/9r09RXlbKPffew2OPPkZlZRUBv59du3fR29vLLd+6hRUrVgDw4EMP8uQTT46b1+DgIPHhIULBAIqikM/nGRgYIBqN4nQ4JyxvVEdHB3fe+VtWrFzJv3zta0QiEdra2vjBD38wrod7JiiT3Ju1cVMVD2/fT0mJj/lzo9xxVxPCVsgZee646zk0NY/D6aC0Isje/a30DyT46W17yOVtjrUMkDfM8e2UJ1wQNVUlWF5KKhzAjifG/d1OaQhDQdGmvogqi4Io8/3jb7cfmcdUbWobFpaze38vrQNDGFYF+uiTDr2/Q/Tfg6XPxSy5kp64xsGWON6IG4fr3EfKuV8DYP3qxYSCwVNPOCKeSNA//CxGaup7zWZCd3c3f3zmj0TCYaIjvY+FmxWPT5PL5UAIstkM6XSGgYFBdrzwPJZpnXL+Gy+6iAcfepB777uHXD5LWWkZyVSKhoYGVq1cyaJFi9i7dx/bH93OlVdcyaZNm3h+xw5UVWXBwoVUlJXR39/P/Q88wLJly6itrQXA6XIyb948Fi5ahAKk0hn8/uM9bNlsFrfLhcPpJJPNMjAwwI4XdpBKp4q9tE6nA4/Hw3XXXs9VV12N2+3mBz/4DzR14mNBY0+luXPmsGbNanSHzs9+/nO23ncfN1x/PbZt43K5sCyLVDpDd1cn++vrMa3xF6YjRw7zwIMPsHnzW/D7fBw+cpjnnn+OSy65hODIMTL5qVv4bVxOJ5ZtMzQ0zP76erq7e16T5ow3bVzDe7YMsGb1XJYtq2LhwhIiYRclkTBPP3WYRCrL9det5+ILa9jxYhM3vmsdF124iO2PHqSvP46mKae8lVdfsxztxiux/vsOlOFM8fPc0UIng2ddstCedkIpTXEFUSouRnjmMO6SMPKg+eT7R7BhWZjb7le4/7l21i+pYH1dtHCzracOpfx9GIHr0bzzeW5nK7sO97JxTTllocnaBl/b0tvrItQefOyPhfaa09z4XD7HYGyYwKt8b+wPfvgDmpqO8d4b3zMuFMZatGgRl1xyKdsf/QN79uxG03QqKspP63d0u93c/MGb+f3v7+Yn//0TXC4XwhaEwxGWL19Oe3s7v/3tr1kwfwFXXnElLtf4A8bj8XD55Zezv34/P/nvn/Cl//OlcX+fbBUURWHJ4iUsXFTLXXf/jscef6xw57dtF3tfAbbdvw3btrnsssuorCjHtu3irRqnomka69etJzYY4+e3/5yqykqWL1vOvn37uO1ntxEIhlCEIJ5ITDih5syZS29PL7fe+l/FkuvatWvZvGkzbrd7ymWWlZWy8aKNPPboozQ1NeJ0utD1kQezZ/qcEsAJt5XMrQjzxX+4Fl3XcOg6H775TUCh+rxqZSWGaeHzeNB0jU1vXlKc7t03bBip8ivk88bEZY2hlJSgf+xmhMuF9Z+/Rgwfv0sglS5Hq7wCMXcnaNnjX9IcOJa/H63uBnCc0MM68kTBZKGmKAp11WGuetNcfvOHY/zL7Xv4hw+s5cLFUZyBdRBYh543uPupdn667SAhv5stmxdRHpr6N3qtKGKal7FUOo2marjdJ++9OZEQgqeeeY7nd79yyufIprJ0wRJufNfmM3qo2LJtent78Hl9BAKBcSepZVkMDg7idDoJBoM0NDagKipVVVV4vd7ieicSCQzTIBwKF+9Ti8VipFIpvF4vkUiERCJBJBIZdyL29PTg8XjGLde2bRKJRKHalUhSEo3g9fkIBYOYpsng4CBut7t4b1g6nSY2FKO8rByHw4EQgsHBQbLZLJWVleRyOZLJJJFIpNiAbgtBbHAQVVUJh8MAJJNJ+vr6iCeTlJWW4PF4MfJ5wuEwLpeLvv4+dE0nGAqhjYTL4OAgmqYRDAYnvU9tcHCQSCSCy+UqVh37+/vx+f34fD5SyST9/f3EkykqyspwupzYllW83eLWH/0Iw8jznve8F1VRGIwNUVoSJRwOjwtU07IYHhrC6XTi9/uLn2ezWeLxOF09vXg9LiKRKPZIB4fP55uRe9VsITAMg1zewO104nSeXo/zqeTyBvm8gdOhF0bJUFUs0ySTy+PQNVxOJ4qiFB58TyaJNxzD9dAjKJkMQ3Pn4nvzhQSqq8lljuKM70IRhXZLpeoKlEANOPyMpnsikUBVdVwuB9rIPYLZTBbLMvF6vcXzSQhBVyzFN36zj61PthD2OVmwMMLCOT6y2TyNDUO092Rw6Bp/vWU1N121kKD3+P7IZLIYponH7UbXT/1Avi0EiWQKn9dTrOqejXMWagCZXJ6XXmqgrbv1jKsIpSEXm9504ZQlKOmNxTAMbv3RjzBNk4985KOEQ6ffHPFaOh5qJm6n49UPtUwWh8OBy+U87VAePZcmm15QCDVtTKjZlkUul58QaqNiqTS3PnKEX289SiJlFMdZU1WF1Ssj/P17N3Dx0pIJN92Ohprb5UR3OApjuJ3ETIXaOa1+elxO3rJpBbDijL/7+rnpQ5oJiqIUel8tC12f/nA+s4ZypgN2Tx5mxb8xeQ9l4TuTfy/i8/LFd6/lo5fXcagtQ/tABssW1FT4uHBxBLfj5L+XoqhykMjTce47jqWZpGkab3vb21AVBZ/Xe+ovnHOTPfg2ndmJkXa6E+aqKGc9qu6Ui4LRbvyRRSjHR8Y9SY2pIuSnIuQ/aUnwROfiFo83bKhJs4uiKGfUA36uKKPj/AuwTBMxA6PEjo5uO1qOGrMwVEXFMPK4XM4ZGZDSMEyEEKiKcny9FQVF1RAURvPVtJOP6Xg622uNjDmnqsprOT4kIENNks6IGBkWSNcKHSGmZaFOcpvL6dJUyJuFMHE7HYUe3zElKF1TMQ0YiidwOp1nXfJRlUJ4Zg0Dp15YzmiECkBTC2GdymTI5o1i59DZLsswDEDB4dSL7yl4rchQk6QzoCgKmqYhHA4EkM0ZGEah5xAhCjc4U3j7k6ppx6tqFBrCVeX4/WjKSGnJ6XDgcDjQNA1NOz6ev6IoaLqG7nAijDyZTBbTNEdeimIXbwS3R5Y7OsLJ6DILo9wWptN0vfBkjK7j0McvBwo34Gq6hm7b5E2DjGkiRoYYL1ZLRaFzYDTYEYVKeOHm5kJ1vLB/CstwOgrLO/EtWa82GWqSdBY0VUVxOFAVFXOKgQQEhYEXiyEFCMa/ok5RCoM56qOBpo5vVFcVBZdTR9cUHLpjkiG3RWGeUGiTU9RCvBTHmTweKJqqFF4Uo2mF9R8TnlAYAkxVFBy6jmnZx+c/EmIKHH8I/sSOBSFAKSxNVVU0tdBOqmraKXs9Z5oMNUk6A4WcUFA0rfCqOVXFcZLG9dHAEQqoovDs8Oh8FI6/+EQZCZmxp78y8hq70fYvTWfC41PjRuBV1cKbokYCRxE2QlVQx4aSokx4JLFY4lNVNEVB08S4bRrdhrHPPAhRCDZlTKhOtU2vNRlqknSGiqfpSLidiammnurUHxuiUxo7/Lemjvnfk7eLTbUsVVFGSmAz41zdoSBDTZLO0mt10p5yOScG0TSCaTbcKiVfkSdJ0qwiQ02SpFlFhpokSbOKDDVJkmYVGWqSJM0qMtQkSZpVZKhJkjSryFCTJGlWkaEmSdLrynQfrZp2qCmKimFZr6sXEEuS9MZjWzbKyP9Nx7RDzeHQEYJJRg+QJEkzqlx6AAAgAElEQVQ6felsduQFLdObz7RDTdd1VBXS6cy4N21LkiSdDgFksjlsW+ByOl4H1U/A63ZjC0E8mRoZlliSJOnUhBBkMllyeQOvxzUjQ5ZP+xV5o0ZXLp3Noes6LofjNR+bXJKkNw7TssgbBrqm4Z3ma/HGmrFQG2XbNrlcHsOyZeeBJEmTUgCHruJwOND1mR0BbcZDTZIk6VyS96lJkjSryFCTJGlWkaEmSdKsIkNNkqRZRYaaJEmzigw1SZJmFRlqkiTNKjLUJEmaVWb0Vl4hBJZtY5omtiUfbpckaWqqpqJpGpqqoaoz+Gb4mXqiwLZtMtkcpmWjKow8mCof/pQkaXK2bWELgaooOB0OHDP0vPiMlNRs2yaZSqOqKj6ve8YeTJUkaXazbZu8YZLJ5gBwOh3TnueMhFoqk0XVVHwez7THQpIk6U+Hqqq4XU5URSGVzaDqGro6vab+aXcUmKaJEAKPWwaaJElnx+l0oGs6uVx+2qP7TDvUDNNEV1VmsJ1PkqQ/QS6HjmmY5z7UbNtGVVVZSpMkaVp0hwMUzn2oSZIkzaTp3o4hQ02SpFlFhpokSbOKDDVJkmYVGWqSJM0aQggZapIkzSKKIkNNkqTZQ0FWPyVJmmVkqEmSNKvIUJMkaVaRoSZJ0qwhkKEmSdIsIjsKJEmadWSoSZI0q8hQkyRp1pBPFEiSNOvM6CvyzkZvXx8vvvQS/cMWpzs23NK6+axfuxyX0/nqrpwkSW8oiqKc21Dr6x/grvsfp39wGKfj9N8i0zfYT2lJkCW1C894mZZl0dHZQTAQJBQKjRux17Isent78Xg9hEPhM563NLmdu3Zx3333ceOWG1m1aiX5fJ7u7m5se/y7Yd1uN5FIBLfbLUdSls6KEOLchlp//zC5nEHA5+Oideed9gtNHTqUl0TOapnxZIpvfPMbXP7WK7jhne9E14/vgkQiwY9/8hPWrFnN9dddjzrNt9pIBaZhUl1djcfjBuDYsWa+dcs38fq8BPwBFEUZGe1UsGzJMq688krmzJkjg006Y+e8pGYY+ZF3HGisWLrwjN75N52qZyqVJp/PTfhcCEE2k8HIGxPGSc9kszgcjln9TlPLslAUZcbD/IILNrBq1So8Hndx3kII3rL5Es4//3w0TUMIQWNjI/c/cD+BQIBrr70Ot9s1bj6GYaDrugw76aTOaagJnIBKIpXi9t89gHIGr6QqDYd5x1WbCPh9M7dCk5wsu3bt5v4HttHR0YFpmSxdspSbP3gzVVVVxZPr29/5NocPH8YWx6tToWCIv/30Z5g/fx6PPfYYd//+br7z7e/g9XoBGIrH+c53vo3b5eLv/+7veeLJJ3jmmWf40v/5UnGaow0N/OjHt/KRP/8oy5cv42hDA7/61S+5+eYPUVdbW1z+nXfeya49u/jqV76Kx+Ph17/5NQMDA3z8Yx/H7XaP256WtjZ+dtttvOuGG1i1ahWqqtLc0sovbv8ZLS0t+P1+Nmy4iOuvfQfBYHBCgGSzWX75q1/ywgsvFLfX5/WxedNmrrnmGny+ib/Hnj17eOrpp7hxy43Mnz8fAF3XqayooHbRomJpuaSkhPr9++nr7yefz+F2u0in0zz51FM8+tijDMViVFZVcsXlV7Fx40WoisK/ffffcDqdfOwvPkYoFMIwDG759i0E/AE+/OcfnnQbpNlLcI5DzeUwUNTCiREbjp/Rdwdjw9QdKmfdujVnVbIwTZNcLodlWcXP8rkctm0jxrz6Yet99xIOh3n3u96Nadls3XoP3/3ed/nyl75MKBQCoL+/n6qqKt6y+S1omsYLL7zAvvp95PN5oFCtbW1rLZb+LMvi1v/6IS+++AJ1dXUIIYjH43R2do5rZ8rncnR0dJDNZgulyGyWzq5OsrkcQojiyRqLxejo6Ch+dzA2SF9f34Q2K4B83qCru4tMJgNAZ3cPX/nKl5kzdy433/QhOjs7uPueu2ltOcZnP/PZYsCOsoWgf2CAOXPmcP1170TTNA4efIWt27YSDIa4/PK3jqvSQ6Fk3NPTU9wfUCipGaZJPp8v/gadHR20tLZw6WWX4XK5yWQy/M/PbuP555/jzW/azJLFdezbv49bb/0h3T2dvOud7+LPP/TnfP0bX+eJJ57g6qvfxrZt99F4tJGvfPWfCQQCMtD+xCicw1ATQM7QEfa5Oege+cMj7N69e9xBb5omra2trFu/rvjZl/7Pl9B1HcuyAcHcOXP4jx/8B0eOHmX9unWoqkoqlWLdunVceuml6LrO0PAwB14+MOlyM5kMj2zfzrHmZubPn4+mFqqzqqpiC7t4ggumflWYaRjk80axDXJsCXFUPB6n/kA9HrcHp9NJSUkJJSUl46axLIsf/vD7VFdX86lP/Q2lJSUowIUXXsQt3/4We/bsYePGjWiTVLkDgSC1tbV4PG7C4TC79+wmk8tMWOeptiGRSHDn7+7g0Ue3oygKhmHQ1tZGRWUFy5Yuw+HQeeVgA3v37GHLu7dwzduvwe12s2nTJqLREnbv3sOFF1xEXW0t73jHtTzx5JM0NDbS2NTIhz/8YeZWV8k20T9R5yzUFEDB5ExeiFVdFqasrJSW9i6G4qlpLb92US3r168fd+BnMhm2b9+OwvGga25uZu++vSSSSYSARDyOYRgYhlGcJpvN4jyNNj7DMNi1exfPPPM01197PUcbjtLcfAyAivIKLNPi2WefZeXKlZimySsHD5LLTmz7e/jhh3lp585iIB88eHBCqayrq4tH/vAHHLqDZDKB0+niz973ZzBme9OZDK2trYRDYbZt2zYuvDKZDG1tbVx44YWThlpDYyO//u1v0HWdvt5eLMti1cpVE0ppk1XpAVwuF2vXnM/KFStQVZVsNstwPM7uPbvZvn071dXVNDYcJRgMsvq81cX963a7WX3eeezc+RLJRAKAzZs309TUxAMPPsBN7/8AGzduxHEGvenS7HJOq5+6rk51zE9q7co6li5ZzGPPvMhwomlay162bBnvuOYd407CoaEh9uzeUwyL4eE4P/rxj6iqqmL9uvU4nA76BwbZt3/vuHml02n8/lNXdZpbW9m2bRsbNmzgsssuLQYawNq1a9m8eTP3bbuPhx5+CI/Hg2VZ5Cbp0NB1DY/bjXqS5dUsrOETH/sEbreL9o4OfvrT/+aPz/6RizZeXJxmdH1LSstZungxuuP4vli5fDlz586dNNAAgkE/S+rq0HUdr8fDwEA/9fX1zJ8377QC3uVysXLFCjZt2lT8DWzbJhwO8ctf/ZLrB68DQCAmlvYUULXjL9DO53IMDw/h8bjp6u7CMAxcrvGdDNKfjnNa/TRMHSFOv4pw6NARkskkrW1t036L81TrNFZ3dzeDsUFu+sBNnH/++aiqSkNDA/fdd29xmubmZizLHtdxMJX//M/vU7uolquuuhqPxzPub4FAgA/d/CFu3HIjlmWhaiqNDY382/f+bcJ8rrjyKlYsW4aiqijAcHyY555/btw0LqeLYDCA1+tFVVXC4TDJZHLcfvN6PNTV1tHX9//bu9PouNL6zuPfu1XVvbWrJGuzJcuL5AVvDb3QYQkNJBMgQBKg2QIHGhIYwouceTMnk5zh5EyaOUMW4IQQCJCcCSFsM3RDhyWBhKYHerfdbtstb1J70V5SlWqvutu8KKksWZLbtmQkV/8/5/iFS7fufWq5v3q2e59Jdu/ZS/umtsZrqFarBAKBFV9TR3sHd999N6ZpYts24+Nj/OxnD/O61752Uahdz+d0ZXPxwIEDfO+h73Hk6BE2b96MaZqUSiWefOop2to20draCsD3f/B9KpUKH77vwzz43Qf5zgMP8Pa3vW3JIIl4cVjX5qdKCXCu+TlD4zmGxi8PKGhB8ypbr97mzd2oisr3f/h9UDWm01N8+9vfolatd3gfe/YYX/y7L7KpvY3t27a9YB9Oa2srH/rQh0m1tCyYm3WZaZqLwm5ifGLZfeq6jmEYjb/N98stlM1kefzxJ9A0jWPPHuP0mdP84R/+l0WBo6oqH/vYx/njP/4j7v/k/Rw8eJCWRILHHn8MVVX5kz/+kyXhO29qaorHH38CVVUZHR3lzNmz7N27b0nzc6XaZLlc5oknnmAmM4Om1qd0jI6N8djjj7F79y4SiQSRSIRf+ZVX8MCDDzA8/Dw7d+zg5MmTDJ4e5N3vejebNm3ixz/+MQ8//DDve9/7ufvlL8cwgnzxS19g+7bt3H77y6QZ+iKkfeITn/jEanZg2zaqoi7tS7kG6eki586PUFvQP3U9dmzeRGdnx3WNcHmuy9jYKP39/fT29C4KDdd1SU9N0dvby5YtWwgGg3R2dnLhwgUOP/0UExMTvOmNv4mmqex7yT5OPneS7GyW3/6t36Gnp6exr9lsFsdxuO2224hGI8zOzlKtVbnvA/c1anQ+kJ6awrIsDh48uKSZ51M/8TOZDIcOHiSZTFKtVMjlcuzft5/Egqsh0tNpdF3nzjvurPdxTU0xk5lhaHiIoeFzaKrKb//273DowAFczyOTybB3zx5aWloIWxYve9ntVCsVTp85zcVLF+nr6+Od976TlrnwXfT+eT7T02nS6TRDw+cYGj5HLj/L7S+7nbe/7W1LpnT4vk+hWMS2bXbv2k0kGqVaqTI+PkaxXGR8fJzRsVHGx8eBev/YW9/yVlKpFLqus2P7dpKJJJdGLnFueIh4PM473/lO7rzzLmzb5uGfPcz+/fu55zX3EAgE2Latj0KhwNTUFNu27yAUCsoI6C3Cpz46H1jwg30jFH+V7bhiqYSmaksmSl6LyakpvvW9f2c6M3tDx773za+jf0ffTf/Sep431xwLommX32zHcfA875r6kG4FtZqN57kEgxsvCBzHoVqrYZnmhiubWBue75MvFAlb5qomua9rqLmex9DzI5w9dxbPdetTE3xQNQ1nbva453v167k0HcexUTUNfGhpbeXQvj2YN3BcIcTG0xShBvUX4nnedXf8q6qKJvOQhGgaaxVq637rIVVRUDXtOmarCSHEytY91OZd2UviX/GYv8J2Qgix0IYJtStdGV4SZkKIayGdUkKIpiKhJoRoKhJqQoimIqEmhGgqEmpCiKYioSaEaCoSakKIpiKhJoRoKhJqQoimIqEmhGgqEmpCiKYioSaEaCprEmq+3DhICLFBrDrUFEXB95dZxkwIIa6D73koysqL9VyrVYeapuk4rid1NSHEqlRqNQxNW/UaFKsOtYCh4/s+1erSRXeFEOJa1Bc3sm9oVborrUnzM2yGKJWr1Gq2NEOFENfM931c1yWXL2KFgui6vuqa2qoXXpnnOA6FUhlN1TB0DVXT5G61QogVeb6H47g4jkPAMNZsjdY1CzWYq0LWbFzHAVmbUQhxVT6KqhLQDXR99X1p89Y01ObJaKgQ4gUpyqpHOpfd7c0INSGEWC9yRYEQoqlIqAkhmoqEmhCiqUioCSGaioSaEKKpSKgJIZqKhJoQoqms/urRK/i+j+04OI4Hcu8OIcQKVFUlYOio6trWrdZ08m3NtikUS2iqWr8wda12LIRoOq7n4TgOuq5jmSaatjbhtmahViiWKVerJKJhDMNYi10KIZqc67oUSmV8H2IRa01qbWsSauVKlUq1SiwSRtO0VRdKCPHiki+WwPcJW+aqg23Vseg4LtWaTTRsSaAJIW5IxDLxfLDt1d+TcdWhZjsOmqZKoAkhbpiiKJihADXbYbVtx1WHmue56Jq6ZvdCEkK8OOmajuf7q16dbk2GGxQZ5xRCrNZcjKx781MIITYSCTUhRFORUBNCNBUJNSFEU5FQE0I0FQk1IURTkVATQjQVCTUhRFORUBNCNBUJNSFEU5FQE0I0FQk1IURTkVATQjQVCTUhRFNZ89WkrpfrumRnS9hO7Zqfo2sKsWiEQCBwE0smhLgVrXuoPTd4iscPD1Os5K/5OaGAyu6d23j5HYfQdbnjrhDisnUNtZrt8PSxU4xMTl3/cysneNmhl0ioCSEWWdc+Ndd1qTo3dpdLz7W5kcWSc/k8f/o//pR/+7cf47ruor99/Rvf4HN/8zmmpqZWffdNIcT62DADBYqiEAwYhEIBQqHg8v+CATR1dTUz1/M5e/YcU+nJRnB5vs+RI0f53kPfZf++/aRSqV/6mgsSokKsjXXvU5uXSsb4jdfcRTQagRXWPLBth0efHOTEmVNreuyhoWH+5vOf46477+Kuu+5CVVXS6TTDw8N4vgeAqqhEo1F6t27FDIVwXZeh4SEM3aCnp6exVmE2m+Xc0BCdHR2Ypsnw8DC2Yy85ZldnFx0dHYyOjTGdTlOulDF0g46OTjZv7m7s79izx4hFY4uOUSwWOXvuLFt7txKLxZienmb4+WFesncfphlqHOP48eOEI2F6e3pRVZWhoSFK5RK7d+1urP5Vq9mcOjVIJBKht7e+XaFQ5OLFCxSLRVyvXptVFIVdA7uJRiOyyI7Y0DZMqLmOS3o6SzZXWSnTcF2XSq2wpsedSqf5znf+D709vfzue9+HPre6/OEjR/jMZz/NK1/xKnRdx3UdxsbGOHjoEO9517up2Tb//PWvE4/H+c8f+SiqqlKpVHjguw/y7W9/i/e8+z0cPHiQn/z7TyiVSly8eJHJqSn27t1LMBDgla98NZ7n85W//wqu66LrGvlcHkXTuO8DH2BgYABVVfnMZz/DoQOH+L3f+73GaO+lSyP81V/9FR//g49z8OBBjhw9ymc++2k+99efp2fL5kbofO7zn2PXwC4+8vsfIRgM8p0HvsO5oXN86n99irAVxnVdHvqXh/jGN7/OnXfeycc++jE83+cfv/q/OX78BJYVJhQKUCqXGRwc5P4/u5+X7H0JmiahJjauDRNq2XyBf//5UyjqykXyfZ9qbX7qx+pOrCefepJ8Ls/o2Cj5fJ6P/8HHicdjS/b6wQ98ANM0cRyHr/3z13jooe9x79vfsWR/tuPwyM9/zk9/+h/U5srY29PLfR+8D8/z+N5DD/GzR37G+9/3flpTKSzLwnFd3vybv0lHRwfBYJBSqcSn/vxT/OCHP2T79u3LTllZy0bqI488wje/9Y1FfYtHnznGj/71X/nYx/6Agf5+gsEgly5e4v7/ef8aHlmIm2fDhJrvg2EEiUWjjWDx3Bq5fJZitX4qd7a1UizMkCt7qz7e5OQkvuczlZ7CMi2SyeSyzapytYavqBQLBS6NjPCqV92Dpml4jtPYxvM8nj5yhG9+8+u87rWv47vf+y4AhmFgWRYA4XAYXddIJpOL+uwOHjxIsViiXK0SNC22bt3KyOgIuXyBVEsSgOxslompdCPkstnMqtdGfG5wkG//32/z6le9htOnBxtN28nxMVzX4SV79tDR0YGiKBQLRVRVamfi1rBhQq2rvY13/davEwwGmK+FVaoVfvrzJzly/Ay//77fIR4N88ThZ3n4saOrPt4b3/BG3vH2d3D+/Hk+/dlP8+WvfJmP/P5HCYetRdv9tz/6ryiqguu6eK7HPa+5pxEA8yYnJ/n6P3+NV/zKK3nNPa/jBz/84TWVYXx8nPs/eT/T09OoWn2f+XyBnp6eRQMHjz72KMeePdYIQsd20PUb/Oh8uHDhIv/0tX9iW9823vued3P/Jy/Xwvr7+0kmk/zL97/P3XffTSIRJ51O43mr/yER4pdhw4RarlDgF08cIRgKNmpqtVqNkbEJwOcXjz9NIh7j+QuX5k74tak5bN++nTe98U186ctfYvv2HbzhN35jUbPvi1/4IpZlkc/n+clPfsLn/uav6e/fSSrVCsB0Os3nv/AF2tvb+bXXv56QaV7zsb/61a+iKAp/8ed/QXt7O4qi8KUvf5mTz51ctN0dt9/Be9/zXgyjXq5zQ0P8/T98+YZeb6lc4kc/+iGe6/LWt7yVSCSy6O+7d+/mvg9+iL//h6/wi0d/TkdHJ+VSiUqlckPHE+KXbcOEWqFY5tHDJ1b8+7HB4SseWbvm0Ktf/avMzMzwwIPfoaOjnTtuv6Pxt4mJCUIhE9uukc1m8TyPSqXa+PvRZ46yZ/dLuPfee2lvbyeXv/aBjGAoiOu5pNNpFEVhZGSUw4efJhBc3JeWakmxZcsWAoEAPlAul1GVpbNxzp8/T7VSbtToKuUKMzMzTExM0NXVBcDMzAxDw8P87nvfS09Pz7JNbtd1SSaSvO1tb2ffvv1cOH+eT/zpf7/m1yXEetowobaeQsEgb37zWzhzdogHH/wuHe0d9U4+4M8+eT+qqqCpGrquc+/b76VnS09jqodlWnz0Ix+hp2fLdU91eMfb38HffvHv+MtP/yWGbhBPxInFYgsGQ67PF//ub9F1HWUu8McnxpmZmeEHP/oh73nXu8GHSCTK+973fg7s27dsE/bs2bP809e+yhv+0xu47dAhQqaJZVkyjUPcMhR/lbM+i6USmqoRCgWv+7nlSpV//Na/MD6ZJmwGiEdCjKVz+D5omsqOrgQjkxkKcwMFHXGDkBXm/HiWeEjlwx94D+Z1NPegPnro2Daqqjbmas1zXRfP89B1Hd/3cRYMBkB9rpamaY0+Ncdx8H0fY24ayNX2v3DfCwPCcRwKxRLVapV4LNoIGk3TUBQFe5l9zZdtviye5y0p6/wxv/mtbzI9k+FDH7wPyzLxfX/ZMqCArulL9r3weFc+T4i15Pk++UKRsGWiazc+yX5da2rzJ0gsYvGm176cVCrFjx95jHPDl9i7a4Bfv+cuTpwc5JHHDpOIhHjLm99IrVLhR//xc2YzGW6kCarAohBaSNO0RngoivKCdwFZrqaz0v4X7vvKfSTisRWPsdy+FEVZ9LiqqsuW1XFdkskkoKBq6oqDCwsfv3LfKz0mxEa1rqFm6Br923vo6UzRt3UrKAq/evfL6GpLcPtLbyNgGOzZvQtVVeju6iYWCeNHwtx1x8sYG5u88RHAFwld03j9616Poqg3VJMW4la0rs1PqM/xWjhF4lrGNT3Pw/f9ZWs+QohbU1M0P4Elc76upUF55XOEEGKepIMQoqlIqAkhmoqEmhCiqUioCSGaioSaEKKpSKgJIZqKhJoQoqlIqAkhmoqEmhCiqUioCSGaioSaEKKpSKgJIZqKhJoQomn4SKgJIZqIwhqEmqKoa7rArhDiRcr38X1v1beMX3WoqaqK57qs8l6TQogXOcdxMDQNdb1DzTAMHM/Dtu3V7koI8SLleR7lam1ubdt1DjVNVTCDAUqVqgSbEOK6ua5LsVRGm1scaLULlq3J7bzrKxkp5AolzFCQUDAgt9wWQlyV7/vUajVK5SqBgIEZCqKqq1+CcdULryzk+z6FYolSpYqmKKtOXCFEc3K9euwYuo5lhQgEAqtsdF62pqE2zwe8ucV7PVRUpb5SDChoio/rK4CPoij4Pii+h6+o9RD0fTwU9AXbqYqC64PK3HYAfn3fmuIz9/6gKuD6KiouKHM1Rd/DQ0NTvLnt6mVwfAUVDxR1URlWKquqKHjXVFZw5/a9uKwLy7C0rD71fd+8stbfr6VlrZfhWsu63Ha+Dz4KquLj+QoKPqzw2S7cbuXvwMLPdn478H0V5aplYO49UVDwqO9MWbC/+g/v4u38+ia+cg1lXX47b+79v3pZL2/n+wr+3Pvv+epcWYG559e3u76yLl+G+vvgcy1l9fAVpV6Mude+cLv5Msw/p17Wy/uej5Ert7uyrP7c91VXFVRVuSmLY9+UUBNCiPUiHV9CiKYioSaEaCoSakKIpiKhJoRoKhJqQoimIqEmhGgqEmpCiKYioSaEaCoSakKIpiKhJoRoKhJqQoimIqEmhGgqEmpCiKYioSaEaCoSakKIpiKhJoRoKhJqQoimIqEmhGgqEmpCiKYioSaEaCoSakKIprImixkLIdaO53mUy2XOnz/P2NgYpmWxc8dOWlqSqKp6XcvK+b6P79eXIrwZy9FtRLJEnhDrzPd9qtUqxVKJ2WyW0dFRJiYnsWu1xjaKohCOROjq6qKrs5NoLEYoGETTtKvud2j4eQr5HKZp0tXVRT6fJ5FIEgwG8H0fVVXxfR/P89B0Hc/zUADX89A1DUVRcF23EYiquvEbdxJqQqyTarXK7OwsmWyWmelpptJpyqUSL3RK6rpOqq2d1lSSZLKFRCKBZYaWBI5t2/zi0UfZvWsXmqbhui7PHj9OT28f0bBJtVolHA5TLpep2TaxaBTbcahWqzi2TUtrG5oCs7kcnusSiURoaWm5apBuBBJqQqyDUrnMyZMnmRgfp1gq4bnude9DURRCpkk0GuPAgf2kWloW/d3zPEZGR8nncqAodHZ0cOzZZ9nZP0Axn0fTVMrlCpZlEggEmJmZwXU9wpEwuq6TLxQxdI1oNEq+UCJo6PT0bEHXN3av1cavSwrRhIqlClOTafL5/A0FGtSbl+VSicmJcYqFwpIaXqlcJmAE6OvrI2AYlMplNE0jbJnoukY4HMbzXBKJBMlkEl3X8X2faCRCPB7HsWvYtk3YCqOpCj63Rv1nY0euEE3Ktat4nrNm+3McpzEgMC8YCHDy/AlAAQX6EgnClsW5s2eJxWIoikLrpk7OnhsCfOKxGJZlNgYjwuEwAcPg7NkzlMplujo716y8N5OEmhDrwHYcPM+7zmcpmGYIRVEplxf3vVWq1SU1NcMwuP322ykUi4SCQQzDoK21lXK5jK7raJqGqqqkkjFsx8EyzfpAgaKgqiqxaJRKpUI4HGZicpJIJIKibPzGnYSaELeISDTKrl27sMwQx48fJ5PJvOCggqIoRCORRY+Zprno/4FAgEAgALBoEEBVVXzqgZmIx0mlUmiahJoQYg2YpsXevXvY3N2NYRhMTE6Sy+VwnLVrwl5JURQi4TCRcPimHeNmkFATYoOwLIuDBw8yM5Ph7NkzjcDSdINDt91Gd1cnmqYxMjLKpYsXrynQSqUSp8+cwfV8tm3bRiIeY6UpuK7rYts2hmFs+GkbVyOhJsQ6UBQFFnTqqzTWSGYAAA6OSURBVKpK/8Auuru76e7uRlEUzg2dQ1U1XvrSl9LdVe+kHx0d5dixZygWi4v2Z+gGXBFXnufx9OHDDPT343keY6MjOLUaphlC13Vs20ZVVao1G01VqNVqjIyOsrm7m0gkQrlcQTd0AoZBtVrFth00TcXzfQxdJxwOUyqVqNZsopEwlUoV13UIBoOYprluVzBIqAmxDoIhC127fPp5nkc6PUVXZwfRaJSBgX5MyyRshenoaAdgbGycEydOkMvlFu1LURRCoSCqujhEcrkc4XCYeDyOYRi0tLRw4cIFSiUD0zSZnZ2lUCigBSzw6sFk12rUajUOHz5MW1sblWoNXdMpFPIkEgmmpiYbI6exeJzxsXH0QBAzGKBarWAYBlu2bLn5b+BVSKgJsQ6sUABdX9zEGxkZwffhwP79RKMRdu7YAdRDa2RklBMnTpDJzCwZHAgEAhhGYEnNKBAINLb1PI9iuYLrehjG5W3a29txXJ9KpYSu6yQSicagQXd3N+l0mkwmQzhs0dXVST6fY8uWLYxPTDA+Pk7IDBEJhwkE6qHW3d1NNBpd67frukioCbEOLMsiFKo30eaDx/c8Rkcu4TgOL73tENFotBFox44dI5ebXXa00zRNAgFj2ceDgSDHnn0WQ9dJJJJEYzGeHx5CVVWi0Si+7+O6LtnZWTo6OiiVyoRCJqFQiHNDQ7iOg2VZOM7SCcKpVCtTU5P4nkfkihHW9SSXSQmxTo4fP87g4OCSDn9FUWhv7+ClL72N6elpnnnmGcrl8or76e3t5cCBA1iWteRvnudRLNbntFmWiaZplMtlVFVF13VUVSWTyWBZFsFgkHKlgoJCMBggl8thWRaapuF5HrquU6vVCAQCeJ6HqqrYtk2lUsWyTFzX3RCDDGsSaoePHOHSxYsYhoHv+4RCIfr7+xsdnhtJLpfjiSef5Fdf/epF17Clp6c5cfw4r3jFK677Q/E8jzNnzvDss8/Ozcauz+VpbU1x6NChVf+K2bbN4cNHcBybAwcObKhfRXHjMtlZ/t8jP1vS6T8vGAzi+z61BXfruJIRCHBg/wG2beu7Je6g8cuwZs3PgYEB+udGWS6NjDA4OEhbWxvBYJBqza5/cL5PLBZF0zSq1SqKohAMBgEoFAqNSYCu61IoFIjFYnieRz5fwHFsTNPEsiwURaFQKBAMBikWSwSCQSwzRLlcplgsomkasVisEU6u65EvFPB976qzuH2o37GgVkPXdaLRKJ7nU6lWCQUDjf3N/9LNl31eOBymr69vLnTqry0UCmHbdqNz1zTrVXtVVSkUCniej2HolMpljLljzjdJisUSlWoFTdUazY6abZPNZrGsMIGAMfdLXD8p6jO+N9aPiFhZMhGns6ub4aFzuMtc/1mtVq/6fEVRSMTr123K537ZmvepaZrGprZNnD17tn7BbbnMc4On5qqr9Xsz7d2zh3Q6je04bO3tRVEUnjl2jO6uLnp7e8lkMgwPD3PgwAEuXrrE9PQ0hm5QrVXp6+tjU1sbp06dxjB0PB86OjooFvJcunQJFAXbtkm1pOjpqY/CPDc4SKVSJRgwUFR1xfk9tVqNM2fOAArVWpXurm5aW1M8//x52je1kkql8H2fM2fP0ppK0dnZuejLpOs6bW1tpFKpxmOVSoVTp08zMTGBpmkEg0G29fXR0dHB6dOnyeVymKZFLjeLqqrs3ruf9rYWpqamOHPmDNVaDcMwcGy73jwolzl96jQ9vT30bd1KqVTi+PETtLW1Eg6H5ct9i9k1MEBuNks6nb7uy6YCgSB9fX3E47EVP3ff98lmswQCgUaFYKH6D7hBuVLGcz0ikRf+Dvm+j23b6LrOxMQE8UQCMxRa8XmVShVd18jOzmIYBrG5H+6b5abUV0ulIgHDQFEULo5OgO+xa6CfXQMDOI7DmTNnMAyDQr5ArVYjOztLPp8nO1vvCB0dHSUYDJLL55menmZrby+7dg2wZfNmhoeHKVcq5PM5VFVlx47tWGaI58+fp62tjV0DA2zfto3pmWlmZmZ4/vx5ptNpBvp3snPnTnzPW/ZXEeofcKq1lf7+fnbu2MGxY8/MTUisNi5JqVQqTKfTy47wlOduJ/P444/zxBNPMDw8zKWREUYujbBrYID9+/ahKgonT54kn8+Tz+fJ5fO0tLZx4MABKpUKz508Tr5Q4MyZM7iuy/59+9jW10e5XMb3fSLhMOVKmfPPn5+bBpBmcnKCeDwugXYLikTC7N2794Zq2dt27KS7u/uqtwJyXZdTp05xYW6ybqlUwrZtbNumUCjw3HODjI6NkcvlmJycpFAoNM6PcqVCce7+buVyhXy+QD6fp1gsMjQ0RCaTwTACaHN9a7OzucaF9aVSiXKlQq1W47nnTjKTyTSuNXVdl9lcrlGOarVKLp9f8by8XmtWU7tw8SIXL14EoFqtsbO/H8MwGBu5yPadA4QjERRgz+49PPHE42zdupVarYpt2wwNDdHZ0YmnqOTyJSYmJ7nt0G1kMhmqlQqFQoFisVjvlKzWKJYqQH3IOWxZzMzM4Mx9SLZt47oetWqNUrnCzPQ0nZv7GnNrurq6mJycXPY1hEIm3V1daJpWnyMUDpPNZmlrbWV8cppKrcbExASxWGzZXz3bcSgUixjVKqqqYoXDFPJ5wpEwnZ2dGIZBuVzh6cOHqdVsACzTpK+3fo+qWDxOsVikVq2Sz+cZGBigra0N1/UYn5qhVi6gaRrbt23n7NkzZLJZpqenCQaDEmq3sE2bNnHgwAGeeeYZ8vn8C17PCbBrz3727OrHMK5+Ck9nsoRME0M3qNk2z508ybZt27Btm4nJSbKzs3iqQTJmMTo2yqWRS3R0dBAKBpmYmMD3IZVqYWR0rDEFJR6LkclmCQSDFAoFUrUUExMTOI5DOJLADAXIZDI4jktLS3wu0HTCkTCGYXB6chIjFMGuFEgmk2QyWQAUVWHvnj1LunWu15qFWiKRoKuzE1XTiIQjjWqs6zpouOD7oCiNC2JNs36Lk9nZHLnZWfbt28dUOs34+Ai6rhOPx5iZmaZcLpNOpxsnbCqZIBRYXGzP86hW67Wp+V+tYDBAJGwx4jgY6uVfAN0ILJrJvZCqXh5eVxtD7QrRWIJLI6OUikWGh4fZs2fPsp2ysWiU2267rdH8rNVqHD16FE29PPCgqAr1OZIrf3Hnh9kvh5Rffw/ndHR2cO7cWcZGxygUCmzZsvFv3CdWpigK3d3dBINBjh8/QTo9tWwXiaqqxOJxBgYG6Nmy5ZoGtMZHR9CNENlsllAouCgwLdPErtXY1ttNpVyuVxIiUYqFAhcuXKC1vQvc+iCFGQqye/ducvk81UoVVdNoa22lUqlQq1axLIsd27dTKpXx8TECBlNTU8SiUcKWRV/fVjLZLJOTk6RSKbq7ujg3NEQun2dT+ya6u7p49LHH1qS2tmZnQiwapaura0ltIZlIkMlk2bRp09ycmxEi0Si6rtOSauX8hQt4nkdLSwu5XI6h4WE6OjpQVZVwOExLSwt79+7FNM3G7Y9DV7TfQ6EQkWiUvq1bSaVSOI5DNpslHA7TmkoxOTlFT08PmqYxlZ5esU+tVCwyOztLS0sL+XyeSrWKFbaIhE2CAYNLFy9h2zaJROKaakX63KUkk5PDzGRmCVshMjMzWJbVmOC4nEAgQDQaZWJiglQqRblSYXJqqnFhcTwWI5lsYWR0BFVRaG1rk5GvJtDa2sodd97B888/z9jo6Fxtp/5dtSyLzs5Otm3bRjKZvKbPu1ypULNtWqJRPDdAqVJFD4SYnp7B81wUVa1P6ZiZwZi/S4cCqgLJZBLftVFVDcuqt1gURUHTNDStPnBVH+jyMAIBarUaU+k0nlvvElFUBcWv9xFqWr0/zXVdQqEQxWKJyclJPNclGAiseC3qjbrpP++9vb0MDp7i6NGj+EA2k+HgwYOoqkprayunBgfZvLkbVVWJRCJ4nt8ItWQyyeTkJEeOPkM0EqZYKpNMxEkmk4uOYVkWiXiCwcFB4vE4lUoFTdPp799JT08PU+k0Tz/9dH0k0q3XvpajaRrnL1zgwsWLzM7O0tu7lXgshqqqdHR0cPSZZ+jt7b1qIC2kqird3d1MTE5y5OgRArpGzbbp29q37Jyiha9n8+bNnD59mqeefhpVVdGu+BJv3tzNyMgl2js6brm7KIiVWabJ7l276O7qYnpmhtlsFsuyiMfr3/vraZr5vk/f1q0kk0ls26ZUrrBp0yYK+RyKomCGQrS1tpIvFIhFo/iRCIZh1O+71tbG7OwsrlcfPNiyZQuBQIC4puGGPcLhevdLR3v73M0kA9TsGqZpsmXLZkqlEigKkUiE7du3U65UaUlGSaVSVCoVyuUyqdZWzFD9OlRFUejbuvWaz62rWZN5avl8vlGzulJ9akKRXD6PpmpEIuFGf5Tv+2QyGUzTxDTNRuflwukYtVqNTDZLrVYjGokQDtfb5bOzs4TD4Uazy3EcisUi+UIBTdNJJuIEg0EURaFcqZCbnQVFIRqNUilXSCYX17Zc1yWXy6FqGoVCkWAgQCKZQJ8rRz6f58mnnuLld70c0wwteZ2VSoVKpUIkElnUFGwMLsxk8DyXeCzWKHcul8N13UbNL5vN4rouLS0tuK5b75QtlYmEL/ffRSIRNE0jn8/zHz99mP7+nezcsfOWuM+VuD7z3RDqXI3qRp4PNL4783fGXXjKK4rSmEi78Hn1x33g8opTC8+XK/cxvxTf/H7mbza58Bjzy/SttGzflce4UXJFwTWo1WqcO3eOQqHAoUOH1r3/6sKFC5w6dQrHcTl48AAdHR0ySCDEHOldfgGu6zI2NkaxWGRgYGDdAw3qtcZoNEZf39ZGX6UQok5qakKIpiIdMUKIpiKhJoRoKhJqQoimIqEmhGgqEmpCiKYioSaEaCoSakKIpiKhJoRoKhJqQoimIqEmhGgqEmpCiKYioSaEaCoSakKIpiKhJoRoKv8fB3HZTsPHMYkAAAAASUVORK5CYII=;" vertex="1" parent="1">
          <mxGeometry x="1090.5" y="850" width="309" height="671" as="geometry" />
        </mxCell>
        <mxCell id="DuZaDqDCN82xKvI541lF-134" value="" style="strokeWidth=1;shadow=0;dashed=0;align=center;html=1;shape=mxgraph.mockup.containers.browserWindow;rSize=0;strokeColor=#666666;strokeColor2=#008cff;strokeColor3=#c4c4c4;mainText=,;recursiveResize=0;fontSize=17;" vertex="1" parent="1">
          <mxGeometry x="1660" y="40" width="690" height="720" as="geometry" />
        </mxCell>
        <mxCell id="DuZaDqDCN82xKvI541lF-135" value="&lt;font style=&quot;font-size: 16px;&quot;&gt;Інфо про заказ&lt;/font&gt;" style="strokeWidth=1;shadow=0;dashed=0;align=center;html=1;shape=mxgraph.mockup.containers.anchor;fontSize=17;fontColor=#666666;align=left;" vertex="1" parent="DuZaDqDCN82xKvI541lF-134">
          <mxGeometry x="56" y="20" width="260" height="10" as="geometry" />
        </mxCell>
        <mxCell id="DuZaDqDCN82xKvI541lF-136" value="https://www.safetyplace.ua" style="strokeWidth=1;shadow=0;dashed=0;align=center;html=1;shape=mxgraph.mockup.containers.anchor;rSize=0;fontSize=17;fontColor=#666666;align=left;" vertex="1" parent="DuZaDqDCN82xKvI541lF-134">
          <mxGeometry x="130" y="60" width="250" height="26" as="geometry" />
        </mxCell>
        <mxCell id="DuZaDqDCN82xKvI541lF-137" value="&lt;b&gt;&lt;font style=&quot;font-size: 23px;&quot;&gt;Сеанс&lt;/font&gt;&lt;/b&gt;" style="text;html=1;resizable=0;autosize=1;align=center;verticalAlign=middle;points=[];fillColor=none;strokeColor=none;rounded=0;fontSize=16;" vertex="1" parent="DuZaDqDCN82xKvI541lF-134">
          <mxGeometry x="295" y="150" width="90" height="40" as="geometry" />
        </mxCell>
        <mxCell id="DuZaDqDCN82xKvI541lF-141" value="" style="shape=mxgraph.mockup.containers.marginRect;rectMarginTop=10;strokeColor=#666666;strokeWidth=1;dashed=0;rounded=1;arcSize=5;recursiveResize=0;fontSize=23;" vertex="1" parent="DuZaDqDCN82xKvI541lF-134">
          <mxGeometry x="38" y="190" width="622" height="440" as="geometry" />
        </mxCell>
        <mxCell id="DuZaDqDCN82xKvI541lF-140" value="Психолог" style="strokeWidth=1;shadow=0;dashed=0;align=center;html=1;shape=mxgraph.mockup.text.textBox;fontColor=#666666;align=left;fontSize=17;spacingLeft=4;spacingTop=-3;strokeColor=#666666;mainText=" vertex="1" parent="DuZaDqDCN82xKvI541lF-134">
          <mxGeometry x="56" y="240" width="150" height="30" as="geometry" />
        </mxCell>
        <mxCell id="DuZaDqDCN82xKvI541lF-143" value="Дата проведення" style="strokeWidth=1;shadow=0;dashed=0;align=center;html=1;shape=mxgraph.mockup.text.textBox;fontColor=#666666;align=left;fontSize=17;spacingLeft=4;spacingTop=-3;strokeColor=#666666;mainText=" vertex="1" parent="DuZaDqDCN82xKvI541lF-134">
          <mxGeometry x="56" y="300" width="150" height="30" as="geometry" />
        </mxCell>
        <mxCell id="DuZaDqDCN82xKvI541lF-144" value="Час проведення" style="strokeWidth=1;shadow=0;dashed=0;align=center;html=1;shape=mxgraph.mockup.text.textBox;fontColor=#666666;align=left;fontSize=17;spacingLeft=4;spacingTop=-3;strokeColor=#666666;mainText=" vertex="1" parent="DuZaDqDCN82xKvI541lF-134">
          <mxGeometry x="56" y="370" width="150" height="30" as="geometry" />
        </mxCell>
        <mxCell id="DuZaDqDCN82xKvI541lF-147" value="Курс терапії" style="strokeWidth=1;shadow=0;dashed=0;align=center;html=1;shape=mxgraph.mockup.text.textBox;fontColor=#666666;align=left;fontSize=17;spacingLeft=4;spacingTop=-3;strokeColor=#666666;mainText=" vertex="1" parent="DuZaDqDCN82xKvI541lF-134">
          <mxGeometry x="56" y="440" width="150" height="30" as="geometry" />
        </mxCell>
        <mxCell id="DuZaDqDCN82xKvI541lF-148" value="Вартість" style="strokeWidth=1;shadow=0;dashed=0;align=center;html=1;shape=mxgraph.mockup.text.textBox;fontColor=#666666;align=left;fontSize=17;spacingLeft=4;spacingTop=-3;strokeColor=#666666;mainText=" vertex="1" parent="DuZaDqDCN82xKvI541lF-134">
          <mxGeometry x="56" y="510" width="150" height="30" as="geometry" />
        </mxCell>
        <mxCell id="DuZaDqDCN82xKvI541lF-149" value="&lt;font style=&quot;font-size: 17px;&quot;&gt;Ткачук Ольга Володимирівна&amp;nbsp;&lt;/font&gt;" style="text;html=1;resizable=0;autosize=1;align=center;verticalAlign=middle;points=[];fillColor=none;strokeColor=none;rounded=0;fontSize=23;" vertex="1" parent="DuZaDqDCN82xKvI541lF-134">
          <mxGeometry x="240" y="235" width="260" height="40" as="geometry" />
        </mxCell>
        <mxCell id="DuZaDqDCN82xKvI541lF-153" value="" style="verticalLabelPosition=bottom;shadow=0;dashed=0;align=center;html=1;verticalAlign=top;strokeWidth=1;shape=mxgraph.mockup.containers.userFemale;strokeColor=#666666;strokeColor2=#008cff;fontSize=17;" vertex="1" parent="DuZaDqDCN82xKvI541lF-134">
          <mxGeometry x="510" y="235" width="120" height="110" as="geometry" />
        </mxCell>
        <mxCell id="DuZaDqDCN82xKvI541lF-154" value="28.11.2022" style="text;html=1;resizable=0;autosize=1;align=center;verticalAlign=middle;points=[];fillColor=none;strokeColor=none;rounded=0;fontSize=17;" vertex="1" parent="DuZaDqDCN82xKvI541lF-134">
          <mxGeometry x="240" y="300" width="110" height="30" as="geometry" />
        </mxCell>
        <mxCell id="DuZaDqDCN82xKvI541lF-155" value="18:45" style="text;html=1;resizable=0;autosize=1;align=center;verticalAlign=middle;points=[];fillColor=none;strokeColor=none;rounded=0;fontSize=17;" vertex="1" parent="DuZaDqDCN82xKvI541lF-134">
          <mxGeometry x="240" y="370" width="70" height="30" as="geometry" />
        </mxCell>
        <mxCell id="DuZaDqDCN82xKvI541lF-156" value="Арт-терапія" style="text;html=1;resizable=0;autosize=1;align=center;verticalAlign=middle;points=[];fillColor=none;strokeColor=none;rounded=0;fontSize=17;" vertex="1" parent="DuZaDqDCN82xKvI541lF-134">
          <mxGeometry x="240" y="440" width="120" height="30" as="geometry" />
        </mxCell>
        <mxCell id="DuZaDqDCN82xKvI541lF-157" value="200 UAH" style="text;html=1;resizable=0;autosize=1;align=center;verticalAlign=middle;points=[];fillColor=none;strokeColor=none;rounded=0;fontSize=17;" vertex="1" parent="DuZaDqDCN82xKvI541lF-134">
          <mxGeometry x="240" y="510" width="90" height="30" as="geometry" />
        </mxCell>
        <mxCell id="DuZaDqDCN82xKvI541lF-159" style="edgeStyle=orthogonalEdgeStyle;rounded=0;orthogonalLoop=1;jettySize=auto;html=1;fontSize=17;" edge="1" parent="1" source="DuZaDqDCN82xKvI541lF-132" target="DuZaDqDCN82xKvI541lF-133">
          <mxGeometry relative="1" as="geometry">
            <mxPoint x="1410" y="1100" as="targetPoint" />
          </mxGeometry>
        </mxCell>
        <mxCell id="DuZaDqDCN82xKvI541lF-161" style="edgeStyle=orthogonalEdgeStyle;rounded=0;orthogonalLoop=1;jettySize=auto;html=1;fontSize=17;" edge="1" parent="1" source="DuZaDqDCN82xKvI541lF-36" target="DuZaDqDCN82xKvI541lF-46">
          <mxGeometry relative="1" as="geometry" />
        </mxCell>
      </root>
    </mxGraphModel>
  </diagram>
</mxfile>
